<svg width="193" height="48" viewBox="0 0 193 48" fill="none" xmlns="http://www.w3.org/2000/svg">
<path d="M187.502 18.2671H186.622V17.7627H189.005V18.2671H188.124V20.4528H187.48V18.2671H187.502Z" fill="white"/>
<path d="M191.839 20.4528V18.8345L191.023 20.1585H190.744L189.949 18.8765V20.4528H189.348V17.7627H189.863L190.894 19.423L191.903 17.7627H192.418V20.4528H191.839Z" fill="white"/>
<path d="M61.7764 17.6362H65.7912V34.5962H61.7764V17.6362Z" fill="white"/>
<path d="M71.6092 34.3228C70.321 33.9655 69.312 33.4821 68.5391 32.9147L69.8916 29.9514C70.6431 30.4768 71.5233 30.9182 72.5324 31.2334C73.5629 31.5487 74.572 31.7168 75.6025 31.7168C76.7404 31.7168 77.5777 31.5487 78.136 31.2124C78.6727 30.8761 78.9518 30.4348 78.9518 29.8884C78.9518 29.4891 78.78 29.1528 78.4795 28.8796C78.1574 28.6064 77.7495 28.3963 77.2342 28.2281C76.7404 28.06 76.0534 27.8919 75.1946 27.7027C73.885 27.3875 72.79 27.0933 71.9527 26.778C71.1154 26.4628 70.3854 25.9794 69.7843 25.3069C69.1832 24.6344 68.8826 23.7307 68.8826 22.5958C68.8826 21.6081 69.1617 20.7254 69.6984 19.9268C70.2352 19.1282 71.0725 18.4977 72.1674 18.0353C73.2624 17.573 74.6149 17.3418 76.1822 17.3418C77.2772 17.3418 78.3721 17.4679 79.4241 17.7201C80.4761 17.9723 81.3993 18.3506 82.1937 18.8339L80.9485 21.8182C79.3382 20.9355 77.7495 20.4942 76.1393 20.4942C75.0229 20.4942 74.1856 20.6623 73.6488 21.0196C73.1121 21.3769 72.8544 21.8392 72.8544 22.4277C72.8544 23.0161 73.155 23.4365 73.7776 23.7307C74.4002 24.0039 75.3449 24.2981 76.6116 24.5713C77.9213 24.8866 79.0162 25.1808 79.8535 25.496C80.6908 25.8113 81.4208 26.2946 82.0219 26.9461C82.6231 27.6187 82.9237 28.5013 82.9237 29.6362C82.9237 30.6029 82.6446 31.4856 82.0863 32.2842C81.5281 33.0828 80.7123 33.7133 79.5959 34.1757C78.5009 34.638 77.1484 34.8692 75.5596 34.8692C74.207 34.8692 72.8974 34.7011 71.6092 34.3228Z" fill="white"/>
<path d="M89.0211 20.8307H83.4819V17.6362H98.575V20.8307H93.0359V34.5962H89.0211V20.8307Z" fill="white"/>
<path d="M111.263 30.9604H103.212L101.688 34.5962H97.5659L105.295 17.6362H109.245L116.996 34.5962H112.788L111.263 30.9604ZM109.997 27.9761L107.249 21.4822L104.501 27.9761H109.997Z" fill="white"/>
<path d="M134.687 17.6362V34.5962H131.402L122.771 24.2983V34.5962H118.821V17.6362H122.127L130.736 27.9341V17.6362H134.687Z" fill="white"/>
<path d="M153.838 27.3036C154.396 28.0182 154.675 28.9008 154.675 29.9516C154.675 31.4438 154.095 32.5787 152.915 33.3773C151.734 34.1759 150.016 34.5752 147.762 34.5752H138.788V17.6362H147.247C149.351 17.6362 150.982 18.0355 152.099 18.8131C153.237 19.6117 153.795 20.6836 153.795 22.0286C153.795 22.8482 153.602 23.5838 153.194 24.2353C152.786 24.8868 152.228 25.3912 151.498 25.7695C152.507 26.0847 153.28 26.5891 153.838 27.3036ZM142.781 20.5785V24.5715H146.774C147.762 24.5715 148.513 24.4034 149.029 24.0671C149.544 23.7309 149.801 23.2265 149.801 22.575C149.801 21.9235 149.544 21.4191 149.029 21.0829C148.513 20.7466 147.762 20.5785 146.774 20.5785H142.781ZM149.844 31.1285C150.381 30.7923 150.639 30.2669 150.639 29.5523C150.639 28.1443 149.565 27.4507 147.44 27.4507H142.759V31.6329H147.44C148.513 31.6329 149.308 31.4648 149.844 31.1285Z" fill="white"/>
<path d="M159.634 32.8729C158.26 31.5279 157.573 29.6154 157.573 27.1355V17.6362H161.588V26.9884C161.588 30.0147 162.876 31.5489 165.453 31.5489C166.698 31.5489 167.664 31.1916 168.329 30.456C168.995 29.7205 169.317 28.5646 169.317 27.0094V17.6362H173.267V27.1355C173.267 29.6154 172.58 31.5279 171.206 32.8729C169.832 34.2179 167.9 34.8904 165.431 34.8904C162.941 34.8694 161.008 34.1969 159.634 32.8729Z" fill="white"/>
<path d="M177.218 17.6362H181.233V31.4018H189.907V34.5962H177.218V17.6362Z" fill="white"/>
<path d="M65.3618 43.0862H66.5856V45.377C66.2635 45.6082 65.8985 45.7763 65.4906 45.9024C65.0827 46.0285 64.6533 46.0915 64.2454 46.0915C63.6442 46.0915 63.1075 45.9654 62.6352 45.7132C62.1628 45.461 61.7764 45.1248 61.5188 44.6624C61.2397 44.2211 61.1108 43.7167 61.1108 43.1493C61.1108 42.5818 61.2397 42.0775 61.5188 41.6361C61.7979 41.1948 62.1628 40.8375 62.6566 40.5853C63.1504 40.3331 63.6872 40.207 64.2883 40.207C64.8036 40.207 65.2545 40.2911 65.6624 40.4592C66.0703 40.6274 66.4138 40.8585 66.6929 41.1948L65.8341 41.9724C65.4262 41.5521 64.9324 41.3419 64.3313 41.3419C63.9663 41.3419 63.6442 41.426 63.3437 41.5731C63.0646 41.7202 62.8284 41.9303 62.6781 42.2036C62.5278 42.4768 62.4419 42.792 62.4419 43.1493C62.4419 43.5066 62.5278 43.8218 62.6781 44.095C62.8284 44.3682 63.0646 44.5784 63.3437 44.7465C63.6228 44.8936 63.9448 44.9777 64.3098 44.9777C64.6963 44.9777 65.0398 44.8936 65.3403 44.7255V43.0862H65.3618Z" fill="white"/>
<path d="M73.1552 45.9868L72.0388 44.4106H71.9744H70.815V45.9868H69.4839V40.3335H71.9744C72.4896 40.3335 72.9405 40.4176 73.3055 40.5857C73.6919 40.7538 73.971 40.985 74.1857 41.3002C74.3789 41.6155 74.4863 41.9727 74.4863 42.3931C74.4863 42.8134 74.3789 43.1707 74.1857 43.4859C73.971 43.7801 73.6919 44.0323 73.3055 44.1794L74.5936 45.9868H73.1552ZM72.8117 41.6575C72.597 41.4894 72.2964 41.4053 71.8885 41.4053H70.7935V43.3808H71.8885C72.2964 43.3808 72.597 43.2968 72.8117 43.1286C73.0264 42.9605 73.1337 42.7083 73.1337 42.3931C73.1337 42.0778 73.0264 41.8256 72.8117 41.6575Z" fill="white"/>
<path d="M78.351 45.7137C77.8786 45.4615 77.4922 45.1042 77.2131 44.6629C76.934 44.2215 76.8052 43.7172 76.8052 43.1707C76.8052 42.6243 76.934 42.1199 77.2131 41.6786C77.4922 41.2373 77.8572 40.88 78.351 40.6278C78.8233 40.3756 79.3815 40.2495 79.9827 40.2495C80.5838 40.2495 81.1206 40.3756 81.5929 40.6278C82.0652 40.88 82.4517 41.2373 82.7308 41.6786C83.0099 42.1199 83.1387 42.6243 83.1387 43.1707C83.1387 43.7172 83.0099 44.2215 82.7308 44.6629C82.4517 45.1042 82.0867 45.4615 81.5929 45.7137C81.1206 45.9659 80.5838 46.092 79.9827 46.092C79.3815 46.092 78.8448 45.9659 78.351 45.7137ZM80.9059 44.747C81.185 44.5998 81.3997 44.3897 81.5499 44.0955C81.7002 43.8222 81.7861 43.507 81.7861 43.1497C81.7861 42.7925 81.7002 42.4772 81.5499 42.204C81.3997 41.9308 81.185 41.7206 80.9059 41.5525C80.6268 41.4054 80.3262 41.3213 79.9827 41.3213C79.6392 41.3213 79.3386 41.4054 79.0595 41.5525C78.7804 41.6996 78.5657 41.9098 78.4154 42.204C78.2651 42.4772 78.1792 42.7925 78.1792 43.1497C78.1792 43.507 78.2651 43.8222 78.4154 44.0955C78.5657 44.3687 78.7804 44.5788 79.0595 44.747C79.3386 44.8941 79.6392 44.9781 79.9827 44.9781C80.3262 44.9781 80.6268 44.8941 80.9059 44.747Z" fill="white"/>
<path d="M86.4448 45.4194C85.9725 44.978 85.7578 44.3476 85.7578 43.5069V40.3335H87.0889V43.4439C87.0889 44.4526 87.5183 44.957 88.3771 44.957C88.785 44.957 89.1071 44.8309 89.3432 44.5998C89.5579 44.3476 89.6653 43.9693 89.6653 43.4439V40.3335H90.9749V43.5069C90.9749 44.3266 90.7387 44.978 90.2879 45.4194C89.837 45.8607 89.1929 46.0919 88.3556 46.0919C87.5183 46.0919 86.8957 45.8607 86.4448 45.4194Z" fill="white"/>
<path d="M97.781 40.5854C98.1675 40.7536 98.4466 40.9847 98.6613 41.3C98.8545 41.6152 98.9619 41.9725 98.9619 42.3928C98.9619 42.8131 98.8545 43.1704 98.6613 43.4856C98.4681 43.8009 98.1675 44.0321 97.781 44.2002C97.3946 44.3683 96.9652 44.4524 96.4499 44.4524H95.2906V46.0076H93.9595V40.3542H96.4499C96.9652 40.3332 97.4161 40.4173 97.781 40.5854ZM97.2873 43.1074C97.5019 42.9392 97.6093 42.687 97.6093 42.3928C97.6093 42.0776 97.5019 41.8254 97.2873 41.6572C97.0726 41.4891 96.772 41.4051 96.3641 41.4051H95.2691V43.3595H96.3641C96.772 43.3806 97.0726 43.2965 97.2873 43.1074Z" fill="white"/>
<path d="M106.798 45.7137C106.326 45.4615 105.939 45.1042 105.66 44.6629C105.381 44.2215 105.252 43.7172 105.252 43.1707C105.252 42.6243 105.381 42.1199 105.66 41.6786C105.939 41.2373 106.304 40.88 106.798 40.6278C107.271 40.3756 107.829 40.2495 108.43 40.2495C109.031 40.2495 109.568 40.3756 110.04 40.6278C110.512 40.88 110.899 41.2373 111.178 41.6786C111.457 42.1199 111.586 42.6243 111.586 43.1707C111.586 43.7172 111.457 44.2215 111.178 44.6629C110.899 45.1042 110.534 45.4615 110.04 45.7137C109.568 45.9659 109.031 46.092 108.43 46.092C107.829 46.092 107.292 45.9659 106.798 45.7137ZM109.353 44.747C109.632 44.5998 109.847 44.3897 109.997 44.0955C110.147 43.8222 110.233 43.507 110.233 43.1497C110.233 42.7925 110.147 42.4772 109.997 42.204C109.847 41.9308 109.632 41.7206 109.353 41.5525C109.074 41.4054 108.773 41.3213 108.43 41.3213C108.086 41.3213 107.786 41.4054 107.507 41.5525C107.228 41.6996 107.013 41.9098 106.863 42.204C106.712 42.4772 106.626 42.7925 106.626 43.1497C106.626 43.507 106.712 43.8222 106.863 44.0955C107.013 44.3687 107.228 44.5788 107.507 44.747C107.786 44.8941 108.086 44.9781 108.43 44.9781C108.773 44.9781 109.074 44.8941 109.353 44.747Z" fill="white"/>
<path d="M115.579 41.3843V42.8764H118.263V43.9272H115.579V45.9868H114.248V40.3335H118.606V41.3843H115.579Z" fill="white"/>
<path d="M126.314 45.7132C125.842 45.461 125.455 45.1248 125.197 44.6624C124.918 44.2211 124.79 43.7167 124.79 43.1493C124.79 42.5818 124.918 42.0775 125.197 41.6361C125.477 41.1948 125.842 40.8375 126.314 40.5853C126.786 40.3331 127.323 40.207 127.924 40.207C128.418 40.207 128.869 40.2911 129.277 40.4592C129.685 40.6274 130.028 40.8795 130.286 41.1948L129.427 41.9724C129.041 41.531 128.547 41.2999 127.967 41.2999C127.602 41.2999 127.28 41.3839 127.001 41.531C126.722 41.6782 126.507 41.8883 126.335 42.1825C126.185 42.4558 126.099 42.771 126.099 43.1283C126.099 43.4855 126.185 43.8008 126.335 44.074C126.486 44.3472 126.7 44.5574 127.001 44.7255C127.28 44.8726 127.602 44.9567 127.967 44.9567C128.547 44.9567 129.019 44.7255 129.427 44.2842L130.286 45.0617C130.007 45.398 129.663 45.6502 129.255 45.8183C128.847 45.9865 128.396 46.0705 127.903 46.0705C127.323 46.0915 126.786 45.9654 126.314 45.7132Z" fill="white"/>
<path d="M133.892 45.7137C133.42 45.4615 133.034 45.1042 132.755 44.6629C132.475 44.2215 132.347 43.7172 132.347 43.1707C132.347 42.6243 132.475 42.1199 132.755 41.6786C133.034 41.2373 133.399 40.88 133.892 40.6278C134.365 40.3756 134.923 40.2495 135.524 40.2495C136.125 40.2495 136.662 40.3756 137.134 40.6278C137.607 40.88 137.993 41.2373 138.272 41.6786C138.551 42.1199 138.68 42.6243 138.68 43.1707C138.68 43.7172 138.551 44.2215 138.272 44.6629C137.993 45.1042 137.628 45.4615 137.134 45.7137C136.662 45.9659 136.125 46.092 135.524 46.092C134.923 46.092 134.386 45.9659 133.892 45.7137ZM136.447 44.747C136.726 44.5998 136.941 44.3897 137.091 44.0955C137.242 43.8222 137.328 43.507 137.328 43.1497C137.328 42.7925 137.242 42.4772 137.091 42.204C136.941 41.9308 136.726 41.7206 136.447 41.5525C136.168 41.4054 135.868 41.3213 135.524 41.3213C135.181 41.3213 134.88 41.4054 134.601 41.5525C134.322 41.6996 134.107 41.9098 133.957 42.204C133.807 42.4772 133.721 42.7925 133.721 43.1497C133.721 43.507 133.807 43.8222 133.957 44.0955C134.107 44.3687 134.322 44.5788 134.601 44.747C134.88 44.8941 135.181 44.9781 135.524 44.9781C135.868 44.9781 136.168 44.8941 136.447 44.747Z" fill="white"/>
<path d="M146.581 45.9868V42.6032L144.885 45.3984H144.284L142.588 42.6663V45.9868H141.343V40.3335H142.438L144.606 43.8432L146.732 40.3335H147.827L147.848 45.9868H146.581Z" fill="white"/>
<path d="M154.697 40.5854C155.083 40.7536 155.362 40.9847 155.577 41.3C155.77 41.6152 155.877 41.9725 155.877 42.3928C155.877 42.8131 155.77 43.1704 155.577 43.4856C155.384 43.8009 155.083 44.0321 154.697 44.2002C154.31 44.3683 153.881 44.4524 153.365 44.4524H152.206V46.0076H150.875V40.3542H153.365C153.881 40.3332 154.31 40.4173 154.697 40.5854ZM154.203 43.1074C154.417 42.9392 154.525 42.687 154.525 42.3928C154.525 42.0776 154.417 41.8254 154.203 41.6572C153.988 41.4891 153.688 41.4051 153.28 41.4051H152.185V43.3595H153.28C153.688 43.3806 153.988 43.2965 154.203 43.1074Z" fill="white"/>
<path d="M161.975 44.7884H159.291L158.776 46.0073H157.402L159.978 40.354H161.309L163.886 46.0073H162.49L161.975 44.7884ZM161.567 43.8006L160.644 41.636L159.721 43.8006H161.567Z" fill="white"/>
<path d="M171.443 40.3335V45.9868H170.348L167.471 42.5612V45.9868H166.161V40.3335H167.256L170.133 43.7591V40.3335H171.443Z" fill="white"/>
<path d="M174.47 40.3335H175.801V45.9868H174.47V40.3335Z" fill="white"/>
<path d="M183.294 44.9565V46.0073H178.828V40.354H183.186V41.4048H180.159V42.6237H182.843V43.6325H180.159V44.9355H183.294V44.9565Z" fill="white"/>
<path d="M186.579 45.9023C186.149 45.7762 185.806 45.6291 185.548 45.44L185.999 44.4522C186.257 44.6203 186.536 44.7675 186.879 44.8725C187.223 44.9776 187.566 45.0407 187.91 45.0407C188.296 45.0407 188.576 44.9776 188.747 44.8725C188.919 44.7675 189.026 44.6203 189.026 44.4312C189.026 44.3051 188.983 44.179 188.876 44.0949C188.769 44.0109 188.64 43.9268 188.468 43.8848C188.296 43.8217 188.082 43.7797 187.781 43.7167C187.33 43.6116 186.987 43.5065 186.708 43.4014C186.429 43.2963 186.192 43.1282 185.978 42.918C185.784 42.6869 185.677 42.3926 185.677 42.0144C185.677 41.6781 185.763 41.3839 185.956 41.1317C186.128 40.8585 186.407 40.6483 186.772 40.5012C187.137 40.3541 187.588 40.27 188.103 40.27C188.468 40.27 188.833 40.3121 189.177 40.3961C189.52 40.4802 189.842 40.6063 190.1 40.7744L189.692 41.7622C189.155 41.4679 188.618 41.3208 188.082 41.3208C187.717 41.3208 187.438 41.3839 187.244 41.489C187.073 41.615 186.987 41.7622 186.987 41.9513C186.987 42.1404 187.094 42.2876 187.287 42.3926C187.502 42.4767 187.803 42.5818 188.232 42.6659C188.683 42.7709 189.026 42.876 189.306 42.9811C189.585 43.0862 189.821 43.2543 190.035 43.4645C190.229 43.6956 190.336 43.9899 190.336 44.3682C190.336 44.6834 190.25 44.9776 190.057 45.2508C189.864 45.524 189.606 45.7342 189.22 45.8813C188.855 46.0284 188.404 46.1125 187.867 46.1125C187.459 46.0915 187.008 46.0284 186.579 45.9023Z" fill="white"/>
<path d="M67.3583 2.58838H68.8826V9.6708C68.8826 10.1962 68.7967 10.6796 68.625 11.1209C68.4532 11.5622 68.217 11.9405 67.895 12.2768C67.573 12.592 67.1865 12.8442 66.7356 13.0334C66.2848 13.2225 65.7695 13.3066 65.1898 13.3066C64.5672 13.3066 64.009 13.2225 63.5581 13.0544C63.0858 12.8863 62.7208 12.6551 62.3988 12.3609C62.0982 12.0666 61.862 11.7304 61.7118 11.3521C61.5615 10.9738 61.4971 10.5745 61.4971 10.1542C61.4971 9.96502 61.5185 9.75486 61.5615 9.5447C61.6044 9.33454 61.6474 9.12438 61.7332 8.91422C61.7976 8.70406 61.8835 8.4939 61.9694 8.30475C62.0553 8.09459 62.1626 7.92646 62.27 7.75833L63.4937 8.43085C63.4293 8.53593 63.3649 8.64101 63.322 8.76711C63.279 8.8932 63.2146 9.0193 63.1932 9.16641C63.1502 9.31352 63.1288 9.46064 63.1073 9.60775C63.0858 9.75486 63.0858 9.90197 63.0858 10.0281C63.0858 10.3223 63.1288 10.5745 63.2361 10.8267C63.3435 11.0789 63.4723 11.289 63.6655 11.4782C63.8587 11.6673 64.0949 11.8144 64.374 11.9195C64.6531 12.0246 64.9751 12.0876 65.3401 12.0876C65.6622 12.0876 65.9627 12.0246 66.2204 11.9195C66.478 11.8144 66.6712 11.6463 66.843 11.4572C67.0147 11.247 67.1436 10.9948 67.2294 10.7006C67.3153 10.4064 67.3583 10.0701 67.3583 9.69181V2.58838Z" fill="white"/>
<path d="M73.1767 10.8059C72.6615 10.8059 72.2106 10.7429 71.8456 10.5957C71.4806 10.4486 71.1801 10.2805 70.9654 10.0493C70.7507 9.81815 70.5789 9.58697 70.4716 9.31376C70.3642 9.04055 70.3213 8.78836 70.3213 8.51515C70.3213 8.15788 70.3857 7.84264 70.5145 7.5274C70.6433 7.21216 70.8366 6.93895 71.0727 6.70777C71.3089 6.47659 71.6095 6.28745 71.9315 6.14034C72.275 5.99322 72.64 5.93018 73.0694 5.93018C73.2411 5.93018 73.4129 5.95119 73.6061 5.97221C73.7994 5.99322 73.9711 6.05627 74.1643 6.14034C74.3361 6.2244 74.5078 6.32948 74.6796 6.45558C74.8299 6.58167 74.9802 6.7498 75.109 6.95996C75.2378 7.17012 75.3237 7.4013 75.4096 7.69553C75.474 7.96873 75.5169 8.30499 75.5169 8.68328V9.56596H76.5689C76.6763 9.56596 76.7622 9.56596 76.8266 9.58697C76.891 9.60799 76.9339 9.629 76.9554 9.67104C76.9769 9.71307 76.9983 9.7551 76.9983 9.79713C76.9983 9.83917 76.9983 9.90221 76.9983 9.98628V10.3856C76.9983 10.4907 76.9983 10.5537 76.9768 10.6168C76.9554 10.6798 76.9339 10.7218 76.9124 10.7429C76.8695 10.7639 76.8266 10.7849 76.7622 10.8059C76.6977 10.8059 76.6333 10.8269 76.526 10.8269H75.3666C75.2163 11.1842 75.0231 11.5205 74.744 11.8147C74.4649 12.1089 74.1643 12.3401 73.7779 12.5502C73.4129 12.7604 73.005 12.9285 72.5541 13.0546C72.1033 13.1807 71.6309 13.2648 71.1371 13.3278L70.9868 12.1089C71.3518 12.0879 71.6739 12.0459 71.9744 11.9618C72.275 11.8777 72.5541 11.7937 72.7903 11.6676C73.0264 11.5625 73.2411 11.4154 73.4129 11.2893C73.5847 11.1422 73.7135 10.995 73.8208 10.8269H73.1767V10.8059ZM73.9926 9.54494V8.99852C73.9926 8.59922 73.9711 8.28398 73.9067 8.03178C73.8423 7.77959 73.7564 7.59045 73.6491 7.46435C73.5417 7.31724 73.4344 7.23317 73.3056 7.19114C73.1767 7.14911 73.0479 7.10708 72.8976 7.10708C72.7473 7.10708 72.5971 7.12809 72.4682 7.19114C72.3394 7.25419 72.2106 7.33825 72.1033 7.44333C71.9959 7.54841 71.91 7.69553 71.8456 7.84264C71.7812 7.98975 71.7597 8.15788 71.7597 8.34702C71.7597 8.7043 71.8671 8.99852 72.1033 9.20868C72.3394 9.41884 72.6829 9.52392 73.1767 9.52392H73.9926V9.54494Z" fill="white"/>
<path d="M79.4239 8.91477C79.4239 8.97781 79.4239 9.04086 79.4239 9.12493C79.4239 9.18798 79.4025 9.25102 79.4025 9.31407C79.5957 9.39814 79.7889 9.44017 80.0251 9.4822C80.2398 9.52423 80.476 9.54525 80.7121 9.54525H80.7551C80.8624 9.54525 80.9483 9.54525 81.0127 9.56627C81.0771 9.58728 81.12 9.6083 81.1415 9.65033C81.163 9.69236 81.1844 9.73439 81.1844 9.77643C81.1844 9.81846 81.1844 9.88151 81.1844 9.96557V10.3649C81.1844 10.47 81.1844 10.533 81.163 10.5961C81.1415 10.6591 81.12 10.7011 81.0986 10.7221C81.0556 10.7432 81.0127 10.7642 80.9483 10.7852C80.8839 10.7852 80.8195 10.8062 80.7121 10.8062H80.6477C80.2613 10.8062 79.9177 10.7642 79.6601 10.6801C79.381 10.5961 79.1448 10.491 78.9301 10.3439C78.8013 10.491 78.6296 10.5961 78.4149 10.6801C78.2217 10.7642 77.964 10.8062 77.6634 10.8062H76.5256C76.4397 10.8062 76.3538 10.8062 76.2894 10.7852C76.225 10.7852 76.182 10.7642 76.1391 10.7221C76.0962 10.7011 76.0747 10.6381 76.0747 10.5961C76.0532 10.533 76.0532 10.47 76.0532 10.3649V9.96557C76.0532 9.90252 76.0532 9.83947 76.0532 9.77643C76.0532 9.73439 76.0747 9.69236 76.0962 9.65033C76.1176 9.6083 76.1606 9.58728 76.225 9.56627C76.2894 9.54525 76.3753 9.54525 76.4826 9.54525H77.1696C77.2985 9.54525 77.4058 9.52423 77.4917 9.50322C77.5776 9.4822 77.6634 9.44017 77.7064 9.37712C77.7708 9.31407 77.8137 9.23001 77.8352 9.12493C77.8567 9.01985 77.8781 8.89375 77.8781 8.72562V6.11963H79.4025V8.91477H79.4239ZM77.9211 12.4455C77.9211 12.3404 77.9425 12.2563 77.9855 12.1512C78.0284 12.0672 78.0714 11.9831 78.1358 11.9201C78.2002 11.857 78.2861 11.794 78.3719 11.773C78.4578 11.7309 78.5652 11.7099 78.6725 11.7099C78.7799 11.7099 78.8657 11.7309 78.9731 11.773C79.059 11.815 79.1448 11.857 79.2092 11.9201C79.2737 11.9831 79.3381 12.0672 79.3595 12.1512C79.4025 12.2353 79.4239 12.3404 79.4239 12.4455C79.4239 12.5505 79.4025 12.6346 79.3595 12.7397C79.3166 12.8027 79.2737 12.8868 79.1878 12.9499C79.1234 13.0129 79.0375 13.076 78.9516 13.097C78.8657 13.16 78.7799 13.181 78.6725 13.181C78.5652 13.181 78.4793 13.16 78.3719 13.118C78.2861 13.0759 78.2002 13.0339 78.1358 12.9709C78.0714 12.9078 78.007 12.8238 77.9855 12.7397C77.9425 12.6346 77.9211 12.5505 77.9211 12.4455Z" fill="white"/>
<path d="M83.5894 8.91459C83.5894 8.97764 83.5894 9.04069 83.5894 9.12475C83.5894 9.1878 83.568 9.25085 83.568 9.3139C83.7612 9.39796 83.9544 9.44 84.1906 9.48203C84.4053 9.52406 84.6414 9.54508 84.8776 9.54508H84.9205C85.0279 9.54508 85.1138 9.54508 85.1782 9.56609C85.2426 9.58711 85.2855 9.60812 85.307 9.65016C85.3285 9.69219 85.3499 9.73422 85.3499 9.77625C85.3499 9.81829 85.3499 9.88133 85.3499 9.9654V10.3647C85.3499 10.4698 85.3499 10.5328 85.3285 10.5959C85.307 10.6589 85.2855 10.701 85.2641 10.722C85.2211 10.743 85.1782 10.764 85.1138 10.785C85.0494 10.785 84.985 10.806 84.8776 10.806H84.8132C84.4268 10.806 84.0832 10.764 83.8256 10.6799C83.5465 10.5959 83.3103 10.4908 83.0956 10.3437C82.9668 10.4908 82.7951 10.5959 82.5804 10.6799C82.3871 10.764 82.1295 10.806 81.8289 10.806H80.6481C80.5622 10.806 80.4763 10.806 80.4119 10.785C80.3475 10.785 80.3046 10.764 80.2617 10.722C80.2187 10.701 80.1972 10.6379 80.1972 10.5959C80.1758 10.5328 80.1758 10.4698 80.1758 10.3647V9.9654C80.1758 9.90235 80.1758 9.8393 80.1758 9.77625C80.1758 9.73422 80.1972 9.69219 80.2187 9.65016C80.2402 9.60812 80.2831 9.58711 80.3475 9.56609C80.4119 9.54508 80.4978 9.54508 80.6052 9.54508H81.2707C81.3995 9.54508 81.5069 9.52406 81.5928 9.50304C81.6786 9.48203 81.7645 9.44 81.8075 9.37695C81.8719 9.3139 81.9148 9.22984 81.9363 9.12475C81.9578 9.01967 81.9792 8.89358 81.9792 8.72545V6.11946H83.5036V8.91459H83.5894ZM82.0436 3.9548C82.0436 3.84972 82.0651 3.76566 82.108 3.66058C82.151 3.57651 82.1939 3.49245 82.2583 3.4294C82.3227 3.36635 82.4086 3.3033 82.4945 3.28229C82.5804 3.24025 82.6877 3.21924 82.7951 3.21924C82.9024 3.21924 82.9883 3.24025 83.0956 3.28229C83.1815 3.32432 83.2674 3.36635 83.3318 3.4294C83.3962 3.49245 83.4606 3.57651 83.4821 3.66058C83.525 3.74464 83.5465 3.84972 83.5465 3.9548C83.5465 4.05988 83.525 4.14395 83.4821 4.24903C83.4391 4.33309 83.3962 4.41715 83.3318 4.4802C83.2674 4.54325 83.1815 4.6063 83.0956 4.62732C83.0098 4.66935 82.9024 4.69036 82.7951 4.69036C82.6877 4.69036 82.6018 4.66935 82.4945 4.62732C82.4086 4.58528 82.3227 4.54325 82.2583 4.4802C82.1939 4.41715 82.1295 4.33309 82.108 4.24903C82.0651 4.16496 82.0436 4.05988 82.0436 3.9548Z" fill="white"/>
<path d="M84.8776 10.8057C84.7917 10.8057 84.7058 10.8057 84.6414 10.7846C84.577 10.7846 84.5341 10.7636 84.4912 10.7216C84.4482 10.7006 84.4267 10.6375 84.4267 10.5955C84.4053 10.5325 84.4053 10.4694 84.4053 10.3643V9.96502C84.4053 9.90197 84.4053 9.83892 84.4053 9.77588C84.4053 9.73384 84.4267 9.69181 84.4482 9.64978C84.4697 9.60775 84.5126 9.58673 84.577 9.56571C84.6414 9.5447 84.7273 9.5447 84.8347 9.5447H86.0799C86.1443 9.39759 86.2087 9.22946 86.2946 9.04031C86.3805 8.87219 86.4664 8.68304 86.5737 8.4939V2.58838H88.098V6.64448C88.4416 6.37127 88.8065 6.1401 89.2145 5.95095C89.6224 5.76181 90.0518 5.67774 90.5456 5.67774C90.9964 5.67774 91.3829 5.76181 91.7049 5.90892C92.027 6.05603 92.3061 6.26619 92.5208 6.5394C92.7355 6.81261 92.9072 7.12785 92.9931 7.48512C93.1004 7.8424 93.1434 8.2417 93.1434 8.66202V9.5447H94.131C94.2383 9.5447 94.3242 9.5447 94.3886 9.56571C94.453 9.58673 94.496 9.60775 94.5174 9.64978C94.5389 9.69181 94.5604 9.73384 94.5604 9.77588C94.5604 9.81791 94.5604 9.88096 94.5604 9.96502V10.3643C94.5604 10.4694 94.5604 10.5325 94.5389 10.5955C94.5174 10.6586 94.496 10.7006 94.4745 10.7216C94.4316 10.7426 94.3886 10.7636 94.3242 10.7846C94.2598 10.7846 94.1954 10.8057 94.088 10.8057H84.8776ZM91.6834 8.78812C91.6834 8.43085 91.6405 8.13662 91.5761 7.90545C91.5117 7.67427 91.4043 7.46411 91.2755 7.33801C91.1467 7.1909 90.9964 7.08582 90.8247 7.02277C90.6529 6.95972 90.4812 6.93871 90.2879 6.93871C90.0303 6.93871 89.7727 7.00175 89.4936 7.14887C89.2359 7.29598 88.9783 7.48512 88.7421 7.7163C88.506 7.94748 88.2913 8.2417 88.0766 8.55694C87.8833 8.85117 87.7116 9.18743 87.5828 9.5447H91.6834V8.78812Z" fill="white"/>
<path d="M98.8324 9.54525C98.9612 9.54525 99.0686 9.52423 99.1544 9.50322C99.2403 9.4822 99.3262 9.44017 99.3691 9.37712C99.4335 9.31407 99.4765 9.23001 99.4979 9.12493C99.5194 9.01985 99.5409 8.89375 99.5409 8.72562V6.72909H101.065V8.91477C101.065 8.9568 101.065 9.01985 101.065 9.06188C101.065 9.10391 101.065 9.14594 101.065 9.20899C101.258 9.31407 101.495 9.39814 101.731 9.46118C101.967 9.52423 102.246 9.54525 102.568 9.54525H102.997V6.11963H104.522V10.8062H102.654C102.225 10.8062 101.838 10.7432 101.516 10.6381C101.194 10.533 100.915 10.3859 100.679 10.2178C100.55 10.3859 100.378 10.533 100.163 10.6381C99.9488 10.7432 99.6697 10.7852 99.3477 10.7852H99.09C98.7036 10.7852 98.3386 10.7221 98.038 10.6171C97.716 10.512 97.4583 10.3649 97.2222 10.1967C97.0933 10.3859 96.9001 10.512 96.6854 10.6171C96.4707 10.7221 96.1916 10.7852 95.8696 10.7852H94.1306C94.0447 10.7852 93.9588 10.7852 93.8944 10.7642C93.83 10.7642 93.787 10.7432 93.7441 10.7011C93.7012 10.6591 93.7012 10.6591 93.7012 10.5961C93.6797 10.533 93.6797 10.47 93.6797 10.3649V9.96557C93.6797 9.90252 93.6797 9.83947 93.6797 9.77643C93.6797 9.73439 93.7012 9.69236 93.7226 9.65033C93.7441 9.6083 93.787 9.58728 93.8514 9.56626C93.9159 9.54525 94.0017 9.54525 94.1091 9.54525H95.3114C95.4402 9.54525 95.5475 9.52423 95.6334 9.50322C95.7193 9.4822 95.8052 9.44017 95.8481 9.37712C95.9125 9.31407 95.9555 9.23001 95.9769 9.12493C95.9984 9.01985 96.0199 8.89375 96.0199 8.72562V7.2545H97.5442V8.91477C97.5442 8.9568 97.5442 8.99883 97.5442 9.04086C97.5442 9.0829 97.5442 9.12493 97.5227 9.16696C97.7374 9.29306 97.9521 9.37712 98.1668 9.44017C98.4245 9.52423 98.6177 9.54525 98.8324 9.54525Z" fill="white"/>
<path d="M106.046 2.58838H107.571V10.8057H106.046V2.58838Z" fill="white"/>
<path d="M120.152 9.54508V6.11946H121.676V10.806H114.935C114.462 10.806 114.076 10.785 113.732 10.722C113.389 10.6589 113.088 10.5959 112.852 10.4908C112.616 10.3857 112.401 10.2806 112.251 10.1335C112.101 10.0074 111.972 9.8393 111.865 9.69219C111.779 9.52406 111.714 9.35593 111.671 9.16679C111.628 8.97764 111.607 8.7885 111.607 8.57834C111.607 8.49427 111.607 8.41021 111.628 8.30513C111.628 8.20005 111.65 8.09497 111.65 7.98989C111.671 7.88481 111.671 7.75871 111.693 7.65363C111.714 7.54855 111.736 7.42245 111.736 7.33839L113.088 7.44347C113.067 7.59058 113.045 7.73769 113.024 7.88481C113.002 8.03192 113.002 8.17903 113.002 8.32614C113.002 8.55732 113.024 8.74647 113.088 8.89358C113.153 9.04069 113.26 9.16679 113.432 9.27187C113.604 9.37695 113.84 9.44 114.14 9.48203C114.441 9.52406 114.849 9.54508 115.343 9.54508H120.152ZM115.3 3.9548C115.3 3.84972 115.321 3.76566 115.364 3.66058C115.407 3.57651 115.45 3.49245 115.514 3.4294C115.579 3.36635 115.665 3.3033 115.751 3.28229C115.836 3.24025 115.944 3.21924 116.051 3.21924C116.158 3.21924 116.244 3.24025 116.352 3.28229C116.438 3.32432 116.523 3.36635 116.588 3.4294C116.652 3.49245 116.717 3.57651 116.738 3.66058C116.781 3.74464 116.803 3.84972 116.803 3.9548C116.803 4.05988 116.781 4.14395 116.738 4.24903C116.695 4.33309 116.652 4.41715 116.588 4.4802C116.523 4.54325 116.438 4.6063 116.352 4.62732C116.266 4.66935 116.158 4.69036 116.051 4.69036C115.944 4.69036 115.858 4.66935 115.751 4.62732C115.665 4.58528 115.579 4.54325 115.514 4.4802C115.45 4.41715 115.386 4.33309 115.364 4.24903C115.321 4.16496 115.3 4.05988 115.3 3.9548ZM117.06 3.9548C117.06 3.84972 117.082 3.76566 117.125 3.66058C117.168 3.57651 117.21 3.49245 117.275 3.4294C117.339 3.36635 117.425 3.3033 117.511 3.28229C117.597 3.24025 117.704 3.21924 117.812 3.21924C117.919 3.21924 118.005 3.24025 118.112 3.28229C118.198 3.32432 118.284 3.36635 118.348 3.4294C118.413 3.49245 118.477 3.57651 118.499 3.66058C118.542 3.74464 118.563 3.84972 118.563 3.9548C118.563 4.05988 118.542 4.14395 118.499 4.24903C118.456 4.33309 118.413 4.41715 118.348 4.4802C118.284 4.54325 118.198 4.6063 118.112 4.62732C118.026 4.66935 117.919 4.69036 117.812 4.69036C117.704 4.69036 117.618 4.66935 117.511 4.62732C117.425 4.58528 117.339 4.54325 117.275 4.4802C117.21 4.41715 117.146 4.33309 117.125 4.24903C117.082 4.16496 117.06 4.05988 117.06 3.9548Z" fill="white"/>
<path d="M123.179 2.58838H124.704V8.57796C124.704 8.7671 124.725 8.93523 124.746 9.04031C124.768 9.16641 124.811 9.27149 124.875 9.33454C124.94 9.39759 125.004 9.46063 125.09 9.48165C125.176 9.50267 125.283 9.52368 125.391 9.52368H125.67C125.777 9.52368 125.863 9.52368 125.927 9.5447C125.992 9.56572 126.035 9.58673 126.056 9.62876C126.078 9.6708 126.099 9.71283 126.099 9.75486C126.099 9.79689 126.099 9.85994 126.099 9.944V10.3433C126.099 10.4484 126.099 10.5114 126.078 10.5745C126.056 10.6375 126.035 10.6796 126.013 10.7006C125.97 10.7216 125.927 10.7426 125.863 10.7636C125.798 10.7636 125.734 10.7846 125.627 10.7846H124.983C124.661 10.7846 124.381 10.7426 124.145 10.6375C123.909 10.5535 123.716 10.4274 123.566 10.2592C123.415 10.0911 123.308 9.90197 123.244 9.64978C123.222 9.43962 123.179 9.18743 123.179 8.8932V2.58838Z" fill="white"/>
<path d="M125.648 10.8057C125.562 10.8057 125.476 10.8057 125.412 10.7847C125.348 10.7847 125.305 10.7637 125.262 10.7217C125.219 10.7006 125.197 10.6376 125.197 10.5956C125.176 10.5325 125.176 10.4695 125.176 10.3644V9.96508C125.176 9.90203 125.176 9.83899 125.176 9.77594C125.176 9.71289 125.197 9.69187 125.219 9.64984C125.24 9.60781 125.283 9.58679 125.348 9.56578C125.412 9.54476 125.498 9.54476 125.605 9.54476H127.387C127.623 9.54476 127.817 9.52374 127.967 9.50273C128.117 9.4607 128.246 9.41866 128.332 9.35562C128.418 9.29257 128.482 9.2085 128.504 9.12444C128.546 9.04037 128.546 8.93529 128.546 8.83021C128.546 8.66208 128.504 8.51497 128.396 8.34684C128.289 8.17871 128.139 8.01059 127.945 7.84246C127.752 7.67433 127.516 7.48518 127.237 7.29604C127.022 7.08588 126.7 6.89673 126.357 6.68657L128.89 2.52539L130.006 3.21892L128.203 6.24524C128.504 6.47641 128.783 6.68657 128.997 6.89673C129.234 7.1069 129.405 7.31706 129.556 7.52722C129.706 7.73738 129.813 7.94754 129.899 8.1577C129.963 8.36786 130.006 8.59904 130.006 8.85123C130.006 9.12444 129.963 9.37663 129.878 9.60781C129.792 9.83898 129.641 10.0491 129.448 10.2383C129.255 10.4274 128.997 10.5535 128.697 10.6586C128.396 10.7637 128.01 10.8057 127.58 10.8057H125.648Z" fill="white"/>
<path d="M130.521 11.899C130.865 11.836 131.144 11.7519 131.337 11.6469C131.552 11.5418 131.702 11.4157 131.831 11.2686C131.938 11.1215 132.024 10.9533 132.067 10.7432C132.11 10.533 132.132 10.3018 132.132 10.0496V6.11963H133.656V9.56626H134.837C134.944 9.56626 135.03 9.56627 135.095 9.58728C135.137 9.58728 135.18 9.6083 135.202 9.65033C135.223 9.69236 135.245 9.73439 135.245 9.77643C135.245 9.81846 135.245 9.88151 135.245 9.96557V10.3649C135.245 10.47 135.245 10.533 135.223 10.5961C135.202 10.6591 135.18 10.7011 135.159 10.7221C135.137 10.7642 135.095 10.7852 135.03 10.7852C134.966 10.7852 134.901 10.8062 134.794 10.8062H133.549C133.484 11.1635 133.377 11.4787 133.248 11.7519C133.098 12.0251 132.926 12.2353 132.69 12.4245C132.454 12.6136 132.175 12.7607 131.853 12.8868C131.531 13.0129 131.144 13.097 130.715 13.16L130.521 11.899Z" fill="white"/>
<path d="M139.453 9.54507C139.582 9.54507 139.689 9.52405 139.775 9.50304C139.861 9.48202 139.947 9.43999 139.99 9.37694C140.054 9.31389 140.097 9.22983 140.119 9.12475C140.14 9.01967 140.161 8.89357 140.161 8.72544V6.72892H141.686V8.91459C141.686 8.95662 141.686 9.01967 141.686 9.0617C141.686 9.10373 141.686 9.14576 141.686 9.20881C141.879 9.31389 142.115 9.39796 142.351 9.46101C142.588 9.52405 142.867 9.54507 143.189 9.54507H143.618V6.11945H145.142V10.806H143.296C142.867 10.806 142.48 10.743 142.158 10.6379C141.836 10.5328 141.557 10.3857 141.321 10.2176C141.192 10.3857 141.02 10.5328 140.806 10.6379C140.591 10.743 140.312 10.785 139.99 10.785H139.732C139.346 10.785 138.981 10.722 138.68 10.6169C138.358 10.5118 138.1 10.3647 137.864 10.1966C137.735 10.3857 137.542 10.5118 137.327 10.6169C137.113 10.722 136.834 10.785 136.512 10.785H134.773C134.687 10.785 134.601 10.785 134.536 10.764C134.472 10.764 134.429 10.743 134.386 10.701C134.343 10.6799 134.322 10.6169 134.322 10.5749C134.3 10.5118 134.3 10.4488 134.3 10.3437V9.96539C134.3 9.90234 134.3 9.8393 134.3 9.77625C134.3 9.7132 134.322 9.69218 134.343 9.65015C134.365 9.60812 134.408 9.5871 134.472 9.56609C134.536 9.54507 134.622 9.54507 134.73 9.54507H135.932C136.061 9.54507 136.168 9.52405 136.254 9.50304C136.34 9.48202 136.426 9.43999 136.469 9.37694C136.533 9.31389 136.576 9.22983 136.598 9.12475C136.619 9.01967 136.64 8.89357 136.64 8.72544V7.25432H138.165V8.91459C138.165 8.95662 138.165 8.99865 138.165 9.04068C138.165 9.08272 138.165 9.12475 138.143 9.16678C138.358 9.29288 138.573 9.37694 138.787 9.43999C139.045 9.52405 139.26 9.54507 139.453 9.54507ZM139.195 3.95479C139.195 3.84971 139.217 3.76565 139.26 3.66057C139.303 3.57651 139.346 3.49244 139.41 3.42939C139.474 3.36634 139.56 3.3033 139.646 3.28228C139.732 3.24025 139.839 3.21923 139.947 3.21923C140.054 3.21923 140.14 3.24025 140.247 3.28228C140.333 3.32431 140.419 3.36634 140.484 3.42939C140.548 3.49244 140.612 3.57651 140.634 3.66057C140.677 3.74463 140.698 3.84971 140.698 3.95479C140.698 4.05987 140.677 4.14394 140.634 4.24902C140.591 4.33308 140.548 4.41715 140.484 4.4802C140.419 4.54324 140.333 4.60629 140.247 4.62731C140.161 4.66934 140.054 4.69036 139.947 4.69036C139.839 4.69036 139.754 4.66934 139.646 4.62731C139.56 4.58528 139.474 4.54324 139.41 4.4802C139.346 4.41715 139.281 4.33308 139.26 4.24902C139.217 4.16496 139.195 4.05987 139.195 3.95479ZM140.076 2.42062C140.076 2.31554 140.097 2.23148 140.14 2.1264C140.183 2.04233 140.226 1.95827 140.29 1.89522C140.355 1.83217 140.441 1.76912 140.526 1.74811C140.612 1.70607 140.72 1.68506 140.827 1.68506C140.934 1.68506 141.02 1.70607 141.128 1.74811C141.213 1.79014 141.299 1.83217 141.364 1.89522C141.428 1.95827 141.493 2.04233 141.514 2.1264C141.557 2.21046 141.578 2.31554 141.578 2.42062C141.578 2.5257 141.557 2.60977 141.514 2.71485C141.471 2.79891 141.428 2.88297 141.364 2.94602C141.299 3.00907 141.213 3.07212 141.128 3.09314C141.042 3.13517 140.934 3.15618 140.827 3.15618C140.72 3.15618 140.634 3.13517 140.526 3.09314C140.441 3.0511 140.355 3.00907 140.29 2.94602C140.226 2.88297 140.161 2.79891 140.14 2.71485C140.097 2.60977 140.076 2.5257 140.076 2.42062ZM140.956 3.95479C140.956 3.84971 140.977 3.76565 141.02 3.66057C141.063 3.57651 141.106 3.49244 141.171 3.42939C141.235 3.36634 141.321 3.3033 141.407 3.28228C141.493 3.24025 141.6 3.21923 141.707 3.21923C141.815 3.21923 141.901 3.24025 142.008 3.28228C142.094 3.32431 142.18 3.36634 142.244 3.42939C142.308 3.49244 142.373 3.57651 142.394 3.66057C142.437 3.74463 142.459 3.84971 142.459 3.95479C142.459 4.05987 142.437 4.14394 142.394 4.24902C142.351 4.33308 142.308 4.41715 142.244 4.4802C142.18 4.54324 142.094 4.60629 142.008 4.62731C141.922 4.66934 141.815 4.69036 141.707 4.69036C141.6 4.69036 141.514 4.66934 141.407 4.62731C141.321 4.58528 141.235 4.54324 141.171 4.4802C141.106 4.41715 141.042 4.33308 141.02 4.24902C140.977 4.16496 140.956 4.05987 140.956 3.95479Z" fill="white"/>
<path d="M154.331 8.83081C154.331 8.97792 154.331 9.083 154.353 9.16707C154.374 9.25113 154.396 9.3352 154.439 9.37723C154.482 9.44028 154.546 9.46129 154.61 9.50332C154.675 9.52434 154.782 9.54536 154.89 9.54536H155.319C155.426 9.54536 155.512 9.54536 155.577 9.56637C155.641 9.58739 155.684 9.6084 155.705 9.65044C155.727 9.69247 155.748 9.7345 155.748 9.77653C155.748 9.81857 155.748 9.88161 155.748 9.96568V10.365C155.748 10.4701 155.748 10.5331 155.727 10.5962C155.705 10.6592 155.684 10.7012 155.662 10.7223C155.62 10.7433 155.577 10.7643 155.512 10.7853C155.448 10.7853 155.383 10.8063 155.276 10.8063H154.589C154.331 10.8063 154.095 10.7853 153.902 10.7433C153.709 10.7012 153.558 10.6592 153.408 10.5751C153.258 10.4911 153.172 10.428 153.086 10.344C153 10.2599 152.936 10.1548 152.871 10.0497C152.614 10.1758 152.378 10.2809 152.141 10.323C151.905 10.386 151.648 10.407 151.39 10.407C151.132 10.407 150.853 10.365 150.596 10.3019C150.317 10.2389 150.08 10.1128 149.866 9.96568C149.651 9.81856 149.479 9.62942 149.329 9.39824C149.2 9.16707 149.114 8.87284 149.114 8.5576C149.114 8.26338 149.179 8.01118 149.286 7.78001C149.393 7.54883 149.565 7.33867 149.758 7.14952C149.952 6.96038 150.188 6.79225 150.424 6.64514C150.682 6.49803 150.939 6.37193 151.197 6.26685C151.476 6.16177 151.734 6.05669 152.013 5.99364C152.292 5.90958 152.528 5.84653 152.764 5.8045V5.153H154.267V8.83081H154.331ZM152.828 6.96038C152.485 7.02343 152.184 7.10749 151.927 7.21257C151.669 7.29664 151.433 7.40172 151.24 7.5068C151.047 7.63289 150.896 7.75899 150.789 7.9061C150.682 8.05322 150.639 8.22134 150.639 8.41049C150.639 8.5576 150.66 8.6837 150.724 8.78878C150.789 8.89386 150.853 8.97792 150.961 9.04097C151.047 9.10402 151.154 9.14605 151.283 9.16707C151.411 9.18808 151.519 9.2091 151.648 9.2091C151.862 9.2091 152.077 9.18808 152.292 9.12503C152.506 9.06199 152.678 8.97792 152.828 8.89386V6.96038ZM151.004 3.66086C151.004 3.55578 151.025 3.47171 151.068 3.36663C151.111 3.28257 151.154 3.1985 151.218 3.13545C151.283 3.07241 151.369 3.00936 151.454 2.98834C151.54 2.94631 151.648 2.92529 151.755 2.92529C151.862 2.92529 151.948 2.94631 152.056 2.98834C152.141 3.03037 152.227 3.07241 152.292 3.13545C152.356 3.1985 152.421 3.28257 152.442 3.36663C152.485 3.45069 152.506 3.55578 152.506 3.66086C152.506 3.76594 152.485 3.85 152.442 3.95508C152.399 4.03914 152.356 4.12321 152.292 4.18626C152.227 4.24931 152.141 4.31235 152.056 4.33337C151.97 4.3754 151.862 4.39642 151.755 4.39642C151.648 4.39642 151.562 4.3754 151.454 4.33337C151.369 4.29134 151.283 4.24931 151.218 4.18626C151.154 4.12321 151.089 4.03914 151.068 3.95508C151.025 3.85 151.004 3.76594 151.004 3.66086ZM152.743 3.66086C152.743 3.55578 152.764 3.47171 152.807 3.36663C152.85 3.28257 152.893 3.1985 152.957 3.13545C153.022 3.07241 153.108 3.00936 153.193 2.98834C153.279 2.94631 153.387 2.92529 153.494 2.92529C153.601 2.92529 153.687 2.94631 153.795 2.98834C153.88 3.03037 153.966 3.07241 154.031 3.13545C154.095 3.1985 154.16 3.28257 154.181 3.36663C154.224 3.45069 154.245 3.55578 154.245 3.66086C154.245 3.76594 154.224 3.85 154.181 3.95508C154.138 4.03914 154.095 4.12321 154.031 4.18626C153.966 4.24931 153.88 4.31235 153.795 4.33337C153.709 4.3754 153.601 4.39642 153.494 4.39642C153.387 4.39642 153.301 4.3754 153.193 4.33337C153.108 4.29134 153.022 4.24931 152.957 4.18626C152.893 4.12321 152.828 4.03914 152.807 3.95508C152.764 3.85 152.743 3.76594 152.743 3.66086Z" fill="white"/>
<path d="M160.128 7.33835C160.064 7.31734 159.978 7.29632 159.892 7.2753C159.806 7.25429 159.699 7.23327 159.591 7.21226C159.484 7.19124 159.355 7.17022 159.248 7.14921C159.119 7.12819 159.012 7.12819 158.904 7.12819C158.776 7.12819 158.647 7.14921 158.518 7.17022C158.389 7.21226 158.26 7.25429 158.153 7.33835C158.046 7.42242 157.96 7.5275 157.874 7.67461C157.809 7.82172 157.767 7.98985 157.767 8.20001C157.767 8.38916 157.809 8.5783 157.852 8.72541C157.895 8.87253 158.003 9.01964 158.131 9.14574C158.26 9.27183 158.389 9.3559 158.561 9.41894C158.733 9.48199 158.904 9.52402 159.098 9.52402H160.751V10.785H155.276C155.19 10.785 155.104 10.785 155.04 10.764C154.975 10.764 154.933 10.743 154.89 10.7009C154.847 10.6799 154.825 10.6169 154.825 10.5748C154.804 10.5118 154.804 10.4487 154.804 10.3437V9.96536C154.804 9.90231 154.804 9.83927 154.804 9.77622C154.804 9.71317 154.825 9.69215 154.847 9.65012C154.868 9.60809 154.911 9.58707 154.975 9.56606C155.04 9.54504 155.126 9.54504 155.233 9.54504H156.521C156.478 9.46098 156.457 9.3559 156.414 9.25082C156.392 9.14574 156.35 9.04065 156.328 8.93557C156.307 8.83049 156.285 8.72541 156.264 8.62033C156.242 8.51525 156.242 8.43119 156.242 8.34712C156.242 8.01087 156.307 7.69563 156.435 7.38038C156.629 7.08616 156.8 6.81295 157.037 6.58177C157.273 6.3506 157.53 6.18247 157.852 6.03536C158.174 5.90926 158.518 5.8252 158.904 5.8252C158.99 5.8252 159.098 5.8252 159.226 5.84621C159.355 5.84621 159.484 5.86723 159.613 5.88824C159.742 5.90926 159.871 5.93028 159.999 5.95129C160.128 5.97231 160.214 5.99332 160.3 6.03536L160.128 7.33835Z" fill="white"/>
<path d="M164.766 10.8059C164.229 10.8059 163.799 10.7429 163.434 10.5957C163.07 10.4486 162.769 10.2805 162.554 10.0493C162.34 9.81815 162.168 9.58697 162.06 9.31376C161.953 9.04055 161.91 8.78836 161.91 8.51515C161.91 8.15788 161.975 7.84264 162.103 7.5274C162.232 7.21216 162.425 6.93895 162.662 6.70777C162.898 6.47659 163.198 6.28745 163.52 6.14034C163.864 5.99322 164.229 5.93018 164.658 5.93018C164.83 5.93018 165.002 5.95119 165.195 5.97221C165.388 5.99322 165.56 6.05627 165.753 6.14034C165.925 6.2244 166.097 6.32948 166.268 6.45558C166.419 6.58167 166.569 6.7498 166.698 6.95996C166.827 7.17012 166.913 7.4013 166.998 7.69553C167.063 7.96873 167.106 8.30499 167.106 8.68328V9.56596H168.158C168.265 9.56596 168.351 9.56596 168.415 9.58697C168.48 9.60799 168.523 9.629 168.544 9.67104C168.566 9.71307 168.587 9.7551 168.587 9.79713C168.587 9.83917 168.587 9.90221 168.587 9.98628V10.3856C168.587 10.4907 168.587 10.5537 168.566 10.6168C168.544 10.6798 168.523 10.7218 168.501 10.7429C168.458 10.7639 168.415 10.7849 168.351 10.8059C168.287 10.8059 168.222 10.8269 168.115 10.8269H166.955C166.805 11.1842 166.612 11.5205 166.333 11.8147C166.054 12.1089 165.753 12.3401 165.367 12.5502C165.002 12.7604 164.594 12.9285 164.143 13.0546C163.692 13.1807 163.22 13.2648 162.726 13.3278L162.576 12.1089C162.941 12.0879 163.263 12.0459 163.563 11.9618C163.864 11.8777 164.143 11.7937 164.379 11.6676C164.615 11.5625 164.83 11.4154 165.002 11.2893C165.174 11.1422 165.302 10.995 165.41 10.8269H164.766V10.8059ZM165.581 9.54494V8.99852C165.581 8.59922 165.539 8.28398 165.496 8.03178C165.431 7.77959 165.345 7.59045 165.238 7.46435C165.131 7.31724 165.023 7.23317 164.894 7.19114C164.766 7.14911 164.637 7.10708 164.486 7.10708C164.336 7.10708 164.186 7.12809 164.057 7.19114C163.928 7.25419 163.799 7.33825 163.692 7.44333C163.585 7.54841 163.499 7.69553 163.434 7.84264C163.37 7.98975 163.349 8.15788 163.349 8.34702C163.349 8.7043 163.456 8.99852 163.692 9.20868C163.928 9.41884 164.272 9.52392 164.766 9.52392H165.581V9.54494Z" fill="white"/>
<path d="M172.194 10.8694C171.915 10.8694 171.679 10.8483 171.464 10.8063C171.249 10.7643 171.056 10.7012 170.884 10.6172C170.713 10.5331 170.562 10.449 170.434 10.365C170.305 10.2809 170.176 10.1758 170.09 10.0918C169.747 10.5751 169.253 10.8063 168.587 10.8063H168.115C168.029 10.8063 167.943 10.8063 167.879 10.7853C167.814 10.7853 167.771 10.7643 167.728 10.7222C167.686 10.7012 167.664 10.6382 167.664 10.5962C167.643 10.5331 167.643 10.4701 167.643 10.365V9.96567C167.643 9.90262 167.643 9.83957 167.643 9.77653C167.643 9.71348 167.664 9.69246 167.686 9.65043C167.707 9.6084 167.75 9.58738 167.814 9.56636C167.879 9.54535 167.965 9.54535 168.072 9.54535H168.351C168.544 9.54535 168.716 9.50332 168.845 9.39824C168.995 9.29316 169.103 9.14604 169.167 8.93588C169.36 8.3054 169.575 7.82203 169.811 7.42273C170.047 7.04444 170.305 6.75021 170.562 6.54005C170.82 6.32989 171.078 6.20379 171.335 6.11973C171.636 6.05668 171.872 6.01465 172.065 6.01465C172.344 6.01465 172.624 6.05668 172.86 6.11973C173.096 6.20379 173.311 6.28786 173.504 6.41395C173.697 6.54005 173.847 6.68716 173.998 6.85529C174.126 7.02342 174.255 7.19155 174.341 7.38069C174.427 7.56984 174.491 7.75898 174.556 7.96914C174.599 8.1793 174.62 8.36845 174.62 8.55759C174.62 8.66267 174.62 8.78877 174.599 8.89385C174.577 8.99893 174.556 9.10401 174.534 9.23011C174.749 9.33519 174.964 9.41925 175.221 9.4823C175.479 9.52433 175.737 9.56636 176.016 9.56636H176.059C176.166 9.56636 176.252 9.56637 176.316 9.58738C176.381 9.6084 176.424 9.62941 176.445 9.67145C176.467 9.71348 176.488 9.75551 176.488 9.79754C176.488 9.83957 176.488 9.90262 176.488 9.98669V10.386C176.488 10.4911 176.488 10.5541 176.467 10.6172C176.445 10.6802 176.424 10.7222 176.402 10.7433C176.381 10.7643 176.316 10.7853 176.252 10.8063C176.187 10.8063 176.123 10.8273 176.016 10.8273H175.951C175.715 10.8273 175.5 10.8063 175.307 10.7853C175.114 10.7433 174.942 10.7012 174.77 10.6382C174.599 10.5751 174.47 10.5121 174.341 10.428C174.212 10.344 174.083 10.2599 173.976 10.1548C173.761 10.386 173.525 10.5541 173.225 10.6802C172.946 10.7853 172.602 10.8694 172.194 10.8694ZM173.182 8.55759C173.182 8.4315 173.16 8.28438 173.096 8.11626C173.053 7.96914 172.967 7.82203 172.86 7.67492C172.752 7.54882 172.624 7.42273 172.473 7.33866C172.323 7.2546 172.151 7.21256 171.958 7.21256C171.765 7.21256 171.593 7.27561 171.443 7.38069C171.292 7.48577 171.142 7.63289 171.013 7.82203C170.884 8.01118 170.777 8.22134 170.691 8.45251C170.627 8.70471 170.562 8.93588 170.52 9.18808C170.562 9.23011 170.648 9.29316 170.756 9.33519C170.863 9.39824 170.97 9.44027 171.121 9.4823C171.249 9.52433 171.4 9.56637 171.529 9.58738C171.679 9.6084 171.808 9.62941 171.936 9.62941C172.13 9.62941 172.301 9.6084 172.452 9.56636C172.602 9.52433 172.731 9.46129 172.86 9.37722C172.967 9.29316 173.053 9.18808 173.117 9.04096C173.16 8.91487 173.182 8.74674 173.182 8.55759Z" fill="white"/>
<path d="M176.896 6.07694C177.175 5.99288 177.433 5.92983 177.712 5.86678C177.991 5.80373 178.292 5.78271 178.635 5.78271C178.979 5.78271 179.279 5.82475 179.537 5.92983C179.794 6.03491 180.031 6.161 180.202 6.32913C180.396 6.49726 180.546 6.70742 180.653 6.95961C180.761 7.19079 180.846 7.464 180.889 7.75823C180.932 7.9894 180.954 8.22058 180.997 8.43074C181.04 8.6409 181.083 8.83005 181.126 8.99817C181.168 9.1663 181.233 9.2924 181.297 9.39748C181.362 9.50256 181.448 9.54459 181.533 9.54459H182.092C182.199 9.54459 182.285 9.54459 182.349 9.56561C182.414 9.58662 182.457 9.60764 182.478 9.64967C182.5 9.6917 182.521 9.73374 182.521 9.77577C182.521 9.8178 182.521 9.88085 182.521 9.96491V10.3642C182.521 10.4693 182.521 10.5323 182.5 10.5954C182.478 10.6584 182.457 10.7005 182.435 10.7215C182.414 10.7635 182.371 10.7845 182.306 10.7845C182.242 10.7845 182.178 10.8056 182.07 10.8056H175.994C175.908 10.8056 175.823 10.8056 175.758 10.7845C175.694 10.7845 175.651 10.7635 175.608 10.7215C175.565 10.7005 175.543 10.6374 175.543 10.5954C175.522 10.5323 175.522 10.4693 175.522 10.3642V9.96491C175.522 9.90186 175.522 9.83882 175.522 9.77577C175.522 9.71272 175.543 9.6917 175.565 9.64967C175.586 9.60764 175.629 9.58662 175.694 9.56561C175.758 9.54459 175.844 9.54459 175.951 9.54459H179.794C179.794 9.43951 179.751 9.31341 179.709 9.18732C179.666 9.04021 179.623 8.91411 179.601 8.767C179.58 8.55684 179.537 8.34668 179.494 8.13651C179.451 7.92635 179.386 7.73721 179.301 7.56908C179.215 7.40095 179.086 7.25384 178.936 7.14876C178.785 7.04368 178.592 6.98063 178.356 6.98063C178.27 6.98063 178.184 6.98063 178.055 7.00165C177.948 7.02266 177.819 7.02266 177.69 7.04368C177.54 7.0647 177.411 7.08571 177.261 7.12774C177.132 7.16978 177.003 7.21181 176.875 7.25384V6.07694H176.896ZM178.012 12.4448C178.012 12.3397 178.034 12.2557 178.077 12.1506C178.12 12.0665 178.163 11.9825 178.227 11.9194C178.292 11.8564 178.377 11.7933 178.463 11.7723C178.549 11.7303 178.657 11.7092 178.764 11.7092C178.871 11.7092 178.957 11.7303 179.064 11.7723C179.15 11.8143 179.236 11.8564 179.301 11.9194C179.365 11.9825 179.429 12.0665 179.451 12.1506C179.472 12.2346 179.515 12.3397 179.515 12.4448C179.515 12.5499 179.494 12.634 179.451 12.739C179.408 12.8441 179.365 12.9072 179.301 12.9702C179.236 13.0333 179.15 13.0963 179.064 13.1173C178.979 13.1594 178.871 13.1804 178.764 13.1804C178.657 13.1804 178.571 13.1594 178.463 13.1173C178.377 13.0753 178.292 13.0333 178.227 12.9702C178.163 12.9072 178.098 12.8231 178.077 12.739C178.034 12.634 178.012 12.5499 178.012 12.4448Z" fill="white"/>
<path d="M186.128 10.8694C185.849 10.8694 185.612 10.8483 185.398 10.8063C185.183 10.7643 184.99 10.7012 184.818 10.6172C184.646 10.5331 184.496 10.449 184.367 10.365C184.238 10.2809 184.11 10.1758 184.024 10.0918C183.68 10.5751 183.186 10.8063 182.521 10.8063H182.049C181.963 10.8063 181.877 10.8063 181.812 10.7853C181.748 10.7853 181.705 10.7643 181.662 10.7222C181.619 10.7012 181.598 10.6382 181.598 10.5962C181.576 10.5331 181.576 10.4701 181.576 10.365V9.96567C181.576 9.90262 181.576 9.83957 181.576 9.77653C181.576 9.73449 181.598 9.69246 181.619 9.65043C181.641 9.6084 181.684 9.58738 181.748 9.56636C181.812 9.54535 181.898 9.54535 182.006 9.54535H182.285C182.478 9.54535 182.65 9.50332 182.778 9.39824C182.929 9.29316 183.036 9.14604 183.101 8.93588C183.294 8.3054 183.508 7.82203 183.745 7.42273C183.981 7.04444 184.238 6.75021 184.496 6.54005C184.754 6.32989 185.011 6.20379 185.269 6.11973C185.527 6.05668 185.741 6.01465 185.956 6.01465C186.235 6.01465 186.514 6.05668 186.75 6.11973C186.987 6.20379 187.201 6.28786 187.394 6.41395C187.588 6.54005 187.738 6.68716 187.888 6.85529C188.017 7.02342 188.146 7.19155 188.232 7.38069C188.318 7.56984 188.382 7.75898 188.446 7.96914C188.489 8.1793 188.511 8.36845 188.511 8.55759C188.511 8.85182 188.468 9.14604 188.361 9.41925C188.253 9.69246 188.103 9.94465 187.91 10.1548C187.716 10.365 187.459 10.5331 187.158 10.6592C186.858 10.8063 186.514 10.8694 186.128 10.8694ZM187.115 8.55759C187.115 8.4315 187.094 8.28438 187.029 8.11626C186.986 7.96914 186.901 7.82203 186.793 7.67492C186.686 7.54882 186.557 7.42273 186.407 7.33866C186.257 7.2546 186.085 7.21256 185.892 7.21256C185.698 7.21256 185.527 7.27561 185.376 7.38069C185.226 7.48577 185.076 7.63289 184.947 7.82203C184.818 8.01118 184.711 8.22134 184.625 8.45251C184.539 8.68369 184.453 8.93588 184.41 9.18808C184.453 9.23011 184.539 9.29316 184.646 9.33519C184.754 9.39824 184.861 9.44027 185.011 9.4823C185.14 9.52433 185.29 9.56637 185.419 9.58738C185.57 9.6084 185.698 9.62941 185.827 9.62941C186.02 9.62941 186.192 9.6084 186.342 9.56636C186.536 9.54535 186.664 9.4823 186.772 9.39824C186.879 9.29316 186.965 9.18808 187.029 9.06198C187.094 8.91487 187.115 8.74674 187.115 8.55759Z" fill="white"/>
<path d="M13.427 3.34521C13.3196 3.38724 13.2338 3.42928 13.1479 3.47131C9.90598 12.8655 9.66982 22.9322 14.3716 31.9901C18.2147 39.4508 24.312 44.2215 31.3541 47.6051C33.6084 46.9536 35.7768 45.9868 37.7949 44.6838L30.4953 40.943C33.3078 25.0128 28.9924 12.0879 13.427 3.34521ZM38.4605 44.2635C39.5984 43.4859 40.6933 42.5822 41.7024 41.5945C48.2935 35.1425 50.3331 25.9375 47.8212 17.7833C45.9963 20.3472 44.429 23.2264 42.8617 26.568C40.0492 32.4525 38.7181 38.358 38.4605 44.2635ZM46.0392 13.538C44.9228 11.4784 43.4844 9.52394 41.7024 7.80062C36.9361 3.11403 30.667 0.78125 24.4194 0.78125C30.6885 6.0773 35.4333 12.8445 37.752 21.4401C40.3713 18.1195 43.1408 15.4925 46.0392 13.538ZM14.3072 46.4702C11.4518 43.591 8.93985 40.2284 6.87878 36.2564C3.25042 29.1319 1.96225 21.7973 2.32723 14.5047C-1.94521 23.3735 -0.334991 34.2809 7.15788 41.6155C9.28337 43.6961 11.7309 45.3143 14.3072 46.4702Z" fill="#5EBE79"/>
</svg>
