<svg width="222" height="56" viewBox="0 0 222 56" fill="none" xmlns="http://www.w3.org/2000/svg">
<path d="M216.328 20.6912H215.312V20.0943H218.061V20.6912H217.046V23.2776H216.303V20.6912H216.328Z" fill="#162C40"/>
<path d="M221.331 23.2776V21.3626L220.39 22.9294H220.068L219.152 21.4124V23.2776H218.458V20.0943H219.052L220.241 22.059L221.406 20.0943H222V23.2776H221.331Z" fill="#162C40"/>
<path d="M71.2739 19.9452H75.906V40.0146H71.2739V19.9452Z" fill="#162C40"/>
<path d="M82.6183 39.6913C81.1321 39.2685 79.9679 38.6965 79.0762 38.0251L80.6367 34.5185C81.5037 35.1402 82.5192 35.6625 83.6834 36.0355C84.8724 36.4086 86.0366 36.6075 87.2256 36.6075C88.5384 36.6075 89.5044 36.4086 90.1485 36.0107C90.7677 35.6127 91.0897 35.0905 91.0897 34.4439C91.0897 33.9714 90.8916 33.5735 90.5448 33.2502C90.1732 32.9269 89.7026 32.6782 89.1081 32.4792C88.5384 32.2803 87.7457 32.0813 86.7549 31.8575C85.244 31.4845 83.9807 31.1363 83.0146 30.7632C82.0486 30.3902 81.2064 29.8182 80.5128 29.0224C79.8193 28.2266 79.4725 27.1572 79.4725 25.8143C79.4725 24.6454 79.7945 23.6009 80.4138 22.6559C81.033 21.7108 81.9991 20.9648 83.2623 20.4176C84.5256 19.8705 86.0861 19.597 87.8944 19.597C89.1576 19.597 90.4209 19.7462 91.6347 20.0446C92.8484 20.343 93.9135 20.7907 94.83 21.3627L93.3933 24.8941C91.5356 23.8496 89.7026 23.3273 87.8448 23.3273C86.5568 23.3273 85.5907 23.5263 84.9715 23.9491C84.3522 24.3719 84.055 24.919 84.055 25.6153C84.055 26.3117 84.4018 26.809 85.1201 27.1572C85.8384 27.4805 86.9283 27.8287 88.3898 28.152C89.9008 28.525 91.164 28.8732 92.1301 29.2462C93.0961 29.6193 93.9383 30.1913 94.6319 30.9622C95.3254 31.758 95.6722 32.8025 95.6722 34.1455C95.6722 35.2894 95.3502 36.334 94.7062 37.279C94.0621 38.224 93.1209 38.9701 91.8328 39.5172C90.5696 40.0643 89.009 40.3379 87.176 40.3379C85.6155 40.3379 84.1045 40.139 82.6183 39.6913Z" fill="#162C40"/>
<path d="M102.708 23.7253H96.3169V19.9452H113.73V23.7253H107.34V40.0146H102.708V23.7253Z" fill="#162C40"/>
<path d="M128.369 35.7123H119.08L117.322 40.0146H112.566L121.483 19.9452H126.041L134.983 40.0146H130.128L128.369 35.7123ZM126.908 32.1808L123.737 24.4962L120.567 32.1808H126.908Z" fill="#162C40"/>
<path d="M155.394 19.9452V40.0146H151.604L141.647 27.8287V40.0146H137.089V19.9452H140.903L150.836 32.1311V19.9452H155.394Z" fill="#162C40"/>
<path d="M177.488 31.385C178.132 32.2306 178.454 33.2751 178.454 34.5185C178.454 36.2843 177.786 37.6272 176.423 38.5722C175.061 39.5173 173.079 39.9898 170.478 39.9898H160.125V19.9452H169.884C172.311 19.9452 174.194 20.4177 175.482 21.3378C176.795 22.2829 177.439 23.5512 177.439 25.1428C177.439 26.1127 177.216 26.9832 176.745 27.7541C176.275 28.5251 175.631 29.1219 174.788 29.5696C175.953 29.9426 176.844 30.5395 177.488 31.385ZM164.732 23.4269V28.152H169.339C170.478 28.152 171.345 27.9531 171.94 27.5551C172.534 27.1572 172.832 26.5604 172.832 25.7894C172.832 25.0185 172.534 24.4216 171.94 24.0237C171.345 23.6258 170.478 23.4269 169.339 23.4269H164.732ZM172.881 35.9112C173.5 35.5133 173.798 34.8916 173.798 34.046C173.798 32.3798 172.559 31.5591 170.107 31.5591H164.707V36.5081H170.107C171.345 36.5081 172.262 36.3091 172.881 35.9112Z" fill="#162C40"/>
<path d="M184.177 37.9754C182.591 36.3837 181.799 34.1206 181.799 31.1861V19.9452H186.431V31.012C186.431 34.5931 187.917 36.4086 190.89 36.4086C192.326 36.4086 193.441 35.9858 194.209 35.1154C194.977 34.245 195.348 32.8772 195.348 31.0368V19.9452H199.906V31.1861C199.906 34.1206 199.113 36.3837 197.528 37.9754C195.943 39.567 193.713 40.3628 190.865 40.3628C187.991 40.3379 185.762 39.5421 184.177 37.9754Z" fill="#162C40"/>
<path d="M204.463 19.9452H209.095V36.2345H219.103V40.0146H204.463V19.9452Z" fill="#162C40"/>
<path d="M75.4104 50.0617H76.8223V52.7725C76.4507 53.0461 76.0296 53.245 75.559 53.3942C75.0883 53.5434 74.5929 53.6181 74.1223 53.6181C73.4287 53.6181 72.8095 53.4688 72.2645 53.1704C71.7196 52.872 71.2737 52.4741 70.9765 51.9269C70.6545 51.4047 70.5059 50.8078 70.5059 50.1364C70.5059 49.4649 70.6545 48.868 70.9765 48.3458C71.2985 47.8235 71.7196 47.4007 72.2893 47.1023C72.859 46.8039 73.4783 46.6547 74.1718 46.6547C74.7663 46.6547 75.2865 46.7541 75.7571 46.9531C76.2278 47.152 76.6241 47.4256 76.9461 47.8235L75.9553 48.7437C75.4847 48.2463 74.915 47.9976 74.2214 47.9976C73.8003 47.9976 73.4287 48.0971 73.082 48.2712C72.7599 48.4452 72.4875 48.6939 72.3141 49.0172C72.1407 49.3405 72.0416 49.7136 72.0416 50.1364C72.0416 50.5591 72.1407 50.9322 72.3141 51.2555C72.4875 51.5788 72.7599 51.8275 73.082 52.0264C73.404 52.2005 73.7755 52.3 74.1966 52.3C74.6425 52.3 75.0388 52.2005 75.3856 52.0016V50.0617H75.4104Z" fill="#162C40"/>
<path d="M84.4022 53.4938L83.1142 51.6286H83.0399H81.7023V53.4938H80.1665V46.804H83.0399C83.6343 46.804 84.1545 46.9034 84.5756 47.1024C85.0215 47.3013 85.3435 47.5749 85.5912 47.9479C85.8141 48.321 85.938 48.7438 85.938 49.2411C85.938 49.7385 85.8141 50.1613 85.5912 50.5343C85.3435 50.8825 85.0215 51.1809 84.5756 51.355L86.0618 53.4938H84.4022ZM84.0059 48.3707C83.7582 48.1718 83.4114 48.0723 82.9408 48.0723H81.6775V50.41H82.9408C83.4114 50.41 83.7582 50.3105 84.0059 50.1116C84.2536 49.9126 84.3774 49.6142 84.3774 49.2411C84.3774 48.8681 84.2536 48.5697 84.0059 48.3707Z" fill="#162C40"/>
<path d="M90.3958 53.1704C89.8508 52.872 89.4049 52.4492 89.0829 51.9269C88.7609 51.4047 88.6123 50.8078 88.6123 50.1612C88.6123 49.5146 88.7609 48.9178 89.0829 48.3955C89.4049 47.8733 89.826 47.4505 90.3958 47.152C90.9407 46.8536 91.5847 46.7044 92.2783 46.7044C92.9719 46.7044 93.5911 46.8536 94.1361 47.152C94.681 47.4505 95.1269 47.8733 95.4489 48.3955C95.7709 48.9178 95.9195 49.5146 95.9195 50.1612C95.9195 50.8078 95.7709 51.4047 95.4489 51.9269C95.1269 52.4492 94.7058 52.872 94.1361 53.1704C93.5911 53.4688 92.9719 53.6181 92.2783 53.6181C91.5847 53.6181 90.9655 53.4688 90.3958 53.1704ZM93.3434 52.0264C93.6654 51.8523 93.9131 51.6036 94.0865 51.2555C94.2599 50.9322 94.359 50.5591 94.359 50.1364C94.359 49.7136 94.2599 49.3405 94.0865 49.0172C93.9131 48.6939 93.6654 48.4453 93.3434 48.2463C93.0214 48.0722 92.6746 47.9727 92.2783 47.9727C91.882 47.9727 91.5352 48.0722 91.2132 48.2463C90.8912 48.4204 90.6435 48.6691 90.4701 49.0172C90.2967 49.3405 90.1976 49.7136 90.1976 50.1364C90.1976 50.5591 90.2967 50.9322 90.4701 51.2555C90.6435 51.5788 90.8912 51.8275 91.2132 52.0264C91.5352 52.2005 91.882 52.3 92.2783 52.3C92.6746 52.3 93.0214 52.2005 93.3434 52.0264Z" fill="#162C40"/>
<path d="M99.7341 52.8223C99.1891 52.3001 98.9414 51.554 98.9414 50.5592V46.804H100.477V50.4846C100.477 51.6783 100.973 52.2752 101.963 52.2752C102.434 52.2752 102.806 52.126 103.078 51.8524C103.326 51.554 103.45 51.1063 103.45 50.4846V46.804H104.961V50.5592C104.961 51.5291 104.688 52.3001 104.168 52.8223C103.648 53.3446 102.905 53.6181 101.939 53.6181C100.973 53.6181 100.254 53.3446 99.7341 52.8223Z" fill="#162C40"/>
<path d="M112.813 47.1024C113.259 47.3013 113.581 47.5749 113.829 47.9479C114.052 48.321 114.176 48.7437 114.176 49.2411C114.176 49.7385 114.052 50.1613 113.829 50.5343C113.606 50.9074 113.259 51.1809 112.813 51.3799C112.368 51.5788 111.872 51.6783 111.278 51.6783H109.94V53.5186H108.404V46.8288H111.278C111.872 46.8039 112.392 46.9034 112.813 47.1024ZM112.244 50.0867C112.491 49.8877 112.615 49.5893 112.615 49.2411C112.615 48.8681 112.491 48.5696 112.244 48.3707C111.996 48.1717 111.649 48.0723 111.179 48.0723H109.915V50.3851H111.179C111.649 50.41 111.996 50.3105 112.244 50.0867Z" fill="#162C40"/>
<path d="M123.217 53.1704C122.672 52.872 122.226 52.4492 121.904 51.9269C121.582 51.4047 121.433 50.8078 121.433 50.1612C121.433 49.5146 121.582 48.9178 121.904 48.3955C122.226 47.8733 122.647 47.4505 123.217 47.152C123.761 46.8536 124.406 46.7044 125.099 46.7044C125.793 46.7044 126.412 46.8536 126.957 47.152C127.502 47.4505 127.948 47.8733 128.27 48.3955C128.592 48.9178 128.74 49.5146 128.74 50.1612C128.74 50.8078 128.592 51.4047 128.27 51.9269C127.948 52.4492 127.527 52.872 126.957 53.1704C126.412 53.4688 125.793 53.6181 125.099 53.6181C124.406 53.6181 123.786 53.4688 123.217 53.1704ZM126.164 52.0264C126.486 51.8523 126.734 51.6036 126.907 51.2555C127.081 50.9322 127.18 50.5591 127.18 50.1364C127.18 49.7136 127.081 49.3405 126.907 49.0172C126.734 48.6939 126.486 48.4453 126.164 48.2463C125.842 48.0722 125.495 47.9727 125.099 47.9727C124.703 47.9727 124.356 48.0722 124.034 48.2463C123.712 48.4204 123.464 48.6691 123.291 49.0172C123.117 49.3405 123.018 49.7136 123.018 50.1364C123.018 50.5591 123.117 50.9322 123.291 51.2555C123.464 51.5788 123.712 51.8275 124.034 52.0264C124.356 52.2005 124.703 52.3 125.099 52.3C125.495 52.3 125.842 52.2005 126.164 52.0264Z" fill="#162C40"/>
<path d="M133.348 48.0474V49.8131H136.444V51.0566H133.348V53.4938H131.812V46.804H136.84V48.0474H133.348Z" fill="#162C40"/>
<path d="M145.733 53.1705C145.188 52.872 144.742 52.4741 144.445 51.927C144.123 51.4047 143.974 50.8079 143.974 50.1364C143.974 49.4649 144.123 48.8681 144.445 48.3458C144.767 47.8236 145.188 47.4008 145.733 47.1024C146.278 46.8039 146.897 46.6547 147.591 46.6547C148.16 46.6547 148.68 46.7542 149.151 46.9532C149.622 47.1521 150.018 47.4505 150.315 47.8236L149.324 48.7437C148.879 48.2215 148.309 47.9479 147.64 47.9479C147.219 47.9479 146.847 48.0474 146.525 48.2215C146.203 48.3956 145.956 48.6443 145.758 48.9924C145.584 49.3157 145.485 49.6888 145.485 50.1115C145.485 50.5343 145.584 50.9074 145.758 51.2307C145.931 51.554 146.179 51.8027 146.525 52.0016C146.847 52.1757 147.219 52.2752 147.64 52.2752C148.309 52.2752 148.854 52.0016 149.324 51.4794L150.315 52.3995C149.993 52.7974 149.597 53.0959 149.126 53.2948C148.656 53.4938 148.136 53.5932 147.566 53.5932C146.897 53.6181 146.278 53.4689 145.733 53.1705Z" fill="#162C40"/>
<path d="M154.476 53.1704C153.931 52.872 153.486 52.4492 153.164 51.9269C152.841 51.4047 152.693 50.8078 152.693 50.1612C152.693 49.5146 152.841 48.9178 153.164 48.3955C153.486 47.8733 153.907 47.4505 154.476 47.152C155.021 46.8536 155.665 46.7044 156.359 46.7044C157.052 46.7044 157.672 46.8536 158.217 47.152C158.762 47.4505 159.207 47.8733 159.529 48.3955C159.851 48.9178 160 49.5146 160 50.1612C160 50.8078 159.851 51.4047 159.529 51.9269C159.207 52.4492 158.786 52.872 158.217 53.1704C157.672 53.4688 157.052 53.6181 156.359 53.6181C155.665 53.6181 155.046 53.4688 154.476 53.1704ZM157.424 52.0264C157.746 51.8523 157.994 51.6036 158.167 51.2555C158.34 50.9322 158.44 50.5591 158.44 50.1364C158.44 49.7136 158.34 49.3405 158.167 49.0172C157.994 48.6939 157.746 48.4453 157.424 48.2463C157.102 48.0722 156.755 47.9727 156.359 47.9727C155.963 47.9727 155.616 48.0722 155.294 48.2463C154.972 48.4204 154.724 48.6691 154.551 49.0172C154.377 49.3405 154.278 49.7136 154.278 50.1364C154.278 50.5591 154.377 50.9322 154.551 51.2555C154.724 51.5788 154.972 51.8275 155.294 52.0264C155.616 52.2005 155.963 52.3 156.359 52.3C156.755 52.3 157.102 52.2005 157.424 52.0264Z" fill="#162C40"/>
<path d="M169.116 53.4938V49.4898L167.159 52.7974H166.466L164.509 49.5644V53.4938H163.072V46.804H164.336L166.837 50.9571L169.29 46.804H170.553L170.578 53.4938H169.116Z" fill="#162C40"/>
<path d="M178.479 47.1024C178.925 47.3013 179.247 47.5749 179.495 47.9479C179.718 48.321 179.842 48.7437 179.842 49.2411C179.842 49.7385 179.718 50.1613 179.495 50.5343C179.272 50.9074 178.925 51.1809 178.479 51.3799C178.034 51.5788 177.538 51.6783 176.944 51.6783H175.606V53.5186H174.07V46.8288H176.944C177.538 46.8039 178.034 46.9034 178.479 47.1024ZM177.91 50.0867C178.157 49.8877 178.281 49.5893 178.281 49.2411C178.281 48.8681 178.157 48.5696 177.91 48.3707C177.662 48.1717 177.315 48.0723 176.845 48.0723H175.581V50.3851H176.845C177.315 50.41 177.662 50.3105 177.91 50.0867Z" fill="#162C40"/>
<path d="M186.876 52.0762H183.78L183.185 53.5186H181.6L184.573 46.8288H186.108L189.081 53.5186H187.471L186.876 52.0762ZM186.406 50.9073L185.34 48.3458L184.275 50.9073H186.406Z" fill="#162C40"/>
<path d="M197.8 46.804V53.4938H196.537L193.218 49.4401V53.4938H191.707V46.804H192.97L196.289 50.8576V46.804H197.8Z" fill="#162C40"/>
<path d="M201.292 46.804H202.828V53.4938H201.292V46.804Z" fill="#162C40"/>
<path d="M211.473 52.2751V53.5186H206.321V46.8288H211.35V48.0722H207.857V49.5146H210.953V50.7084H207.857V52.2503H211.473V52.2751Z" fill="#162C40"/>
<path d="M215.263 53.3942C214.768 53.245 214.371 53.0709 214.074 52.8471L214.594 51.6783C214.892 51.8772 215.214 52.0513 215.61 52.1756C216.006 52.3 216.403 52.3746 216.799 52.3746C217.245 52.3746 217.567 52.3 217.765 52.1756C217.963 52.0513 218.087 51.8772 218.087 51.6534C218.087 51.5042 218.037 51.355 217.914 51.2555C217.79 51.156 217.641 51.0565 217.443 51.0068C217.245 50.9322 216.997 50.8824 216.65 50.8078C216.13 50.6835 215.734 50.5591 215.412 50.4348C215.09 50.3105 214.817 50.1115 214.57 49.8628C214.347 49.5892 214.223 49.2411 214.223 48.7934C214.223 48.3955 214.322 48.0473 214.545 47.7489C214.743 47.4256 215.065 47.1769 215.486 47.0028C215.907 46.8288 216.427 46.7293 217.022 46.7293C217.443 46.7293 217.864 46.779 218.26 46.8785C218.657 46.978 219.028 47.1272 219.325 47.3261L218.855 48.495C218.236 48.1468 217.616 47.9727 216.997 47.9727C216.576 47.9727 216.254 48.0473 216.031 48.1717C215.833 48.3209 215.734 48.495 215.734 48.7188C215.734 48.9426 215.858 49.1167 216.081 49.2411C216.328 49.3405 216.675 49.4649 217.17 49.5644C217.691 49.6887 218.087 49.8131 218.409 49.9374C218.731 50.0618 219.003 50.2607 219.251 50.5094C219.474 50.783 219.598 51.1311 219.598 51.5788C219.598 51.9518 219.499 52.3 219.276 52.6233C219.053 52.9466 218.756 53.1953 218.31 53.3694C217.889 53.5434 217.369 53.6429 216.749 53.6429C216.279 53.6181 215.759 53.5434 215.263 53.3942Z" fill="#162C40"/>
<path d="M77.7134 2.13879H79.4721V10.5197C79.4721 11.1415 79.373 11.7135 79.1749 12.2357C78.9767 12.758 78.7042 13.2056 78.3327 13.6035C77.9611 13.9766 77.5153 14.275 76.9951 14.4988C76.4749 14.7226 75.8804 14.8221 75.2116 14.8221C74.4933 14.8221 73.8493 14.7226 73.3291 14.5237C72.7842 14.3247 72.3631 14.0512 71.9915 13.703C71.6447 13.3548 71.3723 12.9569 71.1989 12.5093C71.0255 12.0616 70.9512 11.5891 70.9512 11.0917C70.9512 10.8679 70.9759 10.6192 71.0255 10.3705C71.075 10.1218 71.1246 9.87313 71.2236 9.62444C71.298 9.37575 71.397 9.12705 71.4961 8.90323C71.5952 8.65454 71.719 8.45558 71.8429 8.25663L73.2548 9.05245C73.1805 9.17679 73.1062 9.30114 73.0566 9.45035C73.0071 9.59957 72.9328 9.74879 72.908 9.92287C72.8585 10.097 72.8337 10.271 72.8089 10.4451C72.7842 10.6192 72.7842 10.7933 72.7842 10.9425C72.7842 11.2907 72.8337 11.5891 72.9576 11.8875C73.0814 12.186 73.23 12.4347 73.453 12.6585C73.6759 12.8823 73.9484 13.0564 74.2704 13.1807C74.5924 13.3051 74.9639 13.3797 75.385 13.3797C75.7566 13.3797 76.1034 13.3051 76.4006 13.1807C76.6979 13.0564 76.9208 12.8574 77.119 12.6336C77.3171 12.3849 77.4657 12.0865 77.5648 11.7383C77.6639 11.3902 77.7134 10.9922 77.7134 10.5446V2.13879Z" fill="#162C40"/>
<path d="M84.4263 11.8626C83.8318 11.8626 83.3116 11.788 82.8905 11.6139C82.4694 11.4398 82.1226 11.2409 81.8749 10.9673C81.6272 10.6938 81.4291 10.4202 81.3052 10.0969C81.1814 9.77361 81.1318 9.47517 81.1318 9.15187C81.1318 8.7291 81.2061 8.35606 81.3548 7.98302C81.5034 7.60998 81.7263 7.28668 81.9988 7.01312C82.2713 6.73956 82.618 6.51573 82.9896 6.34165C83.3859 6.16756 83.807 6.09296 84.3024 6.09296C84.5006 6.09296 84.6987 6.11783 84.9217 6.14269C85.1446 6.16756 85.3428 6.24217 85.5657 6.34165C85.7639 6.44113 85.962 6.56547 86.1602 6.71469C86.3336 6.8639 86.507 7.06286 86.6556 7.31155C86.8042 7.56024 86.9033 7.8338 87.0024 8.18197C87.0767 8.50527 87.1262 8.90318 87.1262 9.35083V10.3953H88.34C88.4638 10.3953 88.5629 10.3953 88.6372 10.4202C88.7115 10.4451 88.7611 10.4699 88.7858 10.5197C88.8106 10.5694 88.8354 10.6192 88.8354 10.6689C88.8354 10.7186 88.8354 10.7932 88.8354 10.8927V11.3652C88.8354 11.4896 88.8354 11.5642 88.8106 11.6388C88.7858 11.7134 88.7611 11.7631 88.7363 11.788C88.6867 11.8129 88.6372 11.8378 88.5629 11.8626C88.4886 11.8626 88.4143 11.8875 88.2904 11.8875H86.9528C86.7794 12.3103 86.5565 12.7082 86.2345 13.0563C85.9125 13.4045 85.5657 13.6781 85.1198 13.9268C84.6987 14.1755 84.2281 14.3744 83.7079 14.5236C83.1878 14.6728 82.6428 14.7723 82.0731 14.8469L81.8997 13.4045C82.3208 13.3796 82.6924 13.3299 83.0391 13.2304C83.3859 13.131 83.7079 13.0315 83.9804 12.8823C84.2529 12.7579 84.5006 12.5838 84.6987 12.4346C84.8969 12.2605 85.0455 12.0864 85.1694 11.8875H84.4263V11.8626ZM85.3675 10.3705V9.72387C85.3675 9.25135 85.3428 8.87831 85.2685 8.57988C85.1941 8.28145 85.0951 8.05763 84.9712 7.90841C84.8474 7.73433 84.7235 7.63485 84.5749 7.58511C84.4263 7.53537 84.2776 7.48563 84.1043 7.48563C83.9309 7.48563 83.7575 7.5105 83.6089 7.58511C83.4602 7.65972 83.3116 7.7592 83.1878 7.88354C83.0639 8.00789 82.9648 8.18197 82.8905 8.35606C82.8162 8.53014 82.7914 8.7291 82.7914 8.95292C82.7914 9.3757 82.9153 9.72387 83.1878 9.97256C83.4602 10.2213 83.8566 10.3456 84.4263 10.3456H85.3675V10.3705Z" fill="#162C40"/>
<path d="M91.6345 9.62441C91.6345 9.69902 91.6345 9.77363 91.6345 9.87311C91.6345 9.94771 91.6098 10.0223 91.6098 10.0969C91.8327 10.1964 92.0556 10.2461 92.3281 10.2959C92.5758 10.3456 92.8483 10.3705 93.1207 10.3705H93.1703C93.2941 10.3705 93.3932 10.3705 93.4675 10.3954C93.5418 10.4202 93.5914 10.4451 93.6161 10.4948C93.6409 10.5446 93.6657 10.5943 93.6657 10.6441C93.6657 10.6938 93.6657 10.7684 93.6657 10.8679V11.3404C93.6657 11.4647 93.6657 11.5393 93.6409 11.614C93.6161 11.6886 93.5914 11.7383 93.5666 11.7632C93.5171 11.788 93.4675 11.8129 93.3932 11.8378C93.3189 11.8378 93.2446 11.8626 93.1207 11.8626H93.0464C92.6006 11.8626 92.2042 11.8129 91.907 11.7134C91.585 11.614 91.3125 11.4896 91.0648 11.3155C90.9162 11.4896 90.718 11.614 90.4703 11.7134C90.2474 11.8129 89.9502 11.8626 89.6034 11.8626H88.2906C88.1915 11.8626 88.0924 11.8626 88.0181 11.8378C87.9438 11.8378 87.8942 11.8129 87.8447 11.7632C87.7951 11.7383 87.7704 11.6637 87.7704 11.614C87.7456 11.5393 87.7456 11.4647 87.7456 11.3404V10.8679C87.7456 10.7933 87.7456 10.7187 87.7456 10.6441C87.7456 10.5943 87.7704 10.5446 87.7951 10.4948C87.8199 10.4451 87.8695 10.4202 87.9438 10.3954C88.0181 10.3705 88.1172 10.3705 88.241 10.3705H89.0337C89.1823 10.3705 89.3061 10.3456 89.4052 10.3208C89.5043 10.2959 89.6034 10.2461 89.6529 10.1715C89.7272 10.0969 89.7768 9.99745 89.8015 9.87311C89.8263 9.74876 89.8511 9.59954 89.8511 9.40059V6.3168H91.6098V9.62441H91.6345ZM89.9006 13.8024C89.9006 13.6781 89.9254 13.5786 89.9749 13.4543C90.0245 13.3548 90.074 13.2553 90.1483 13.1807C90.2226 13.1061 90.3217 13.0315 90.4208 13.0066C90.5199 12.9569 90.6437 12.932 90.7676 12.932C90.8914 12.932 90.9905 12.9569 91.1144 13.0066C91.2134 13.0564 91.3125 13.1061 91.3868 13.1807C91.4611 13.2553 91.5354 13.3548 91.5602 13.4543C91.6098 13.5538 91.6345 13.6781 91.6345 13.8024C91.6345 13.9268 91.6098 14.0263 91.5602 14.1506C91.5107 14.2252 91.4611 14.3247 91.3621 14.3993C91.2877 14.4739 91.1887 14.5485 91.0896 14.5734C90.9905 14.648 90.8914 14.6729 90.7676 14.6729C90.6437 14.6729 90.5446 14.648 90.4208 14.5983C90.3217 14.5485 90.2226 14.4988 90.1483 14.4242C90.074 14.3496 89.9997 14.2501 89.9749 14.1506C89.9254 14.0263 89.9006 13.9268 89.9006 13.8024Z" fill="#162C40"/>
<path d="M96.4394 9.62436C96.4394 9.69897 96.4394 9.77358 96.4394 9.87305C96.4394 9.94766 96.4147 10.0223 96.4147 10.0969C96.6376 10.1964 96.8605 10.2461 97.133 10.2958C97.3807 10.3456 97.6532 10.3704 97.9256 10.3704H97.9752C98.099 10.3704 98.1981 10.3704 98.2724 10.3953C98.3467 10.4202 98.3963 10.445 98.4211 10.4948C98.4458 10.5445 98.4706 10.5943 98.4706 10.644C98.4706 10.6937 98.4706 10.7683 98.4706 10.8678V11.3403C98.4706 11.4647 98.4706 11.5393 98.4458 11.6139C98.4211 11.6885 98.3963 11.7382 98.3715 11.7631C98.322 11.788 98.2724 11.8129 98.1981 11.8377C98.1238 11.8377 98.0495 11.8626 97.9256 11.8626H97.8513C97.4055 11.8626 97.0091 11.8129 96.7119 11.7134C96.3899 11.6139 96.1174 11.4896 95.8697 11.3155C95.7211 11.4896 95.5229 11.6139 95.2752 11.7134C95.0523 11.8129 94.7551 11.8626 94.4083 11.8626H93.0459C92.9468 11.8626 92.8478 11.8626 92.7734 11.8377C92.6991 11.8377 92.6496 11.8129 92.6001 11.7631C92.5505 11.7382 92.5257 11.6636 92.5257 11.6139C92.501 11.5393 92.501 11.4647 92.501 11.3403V10.8678C92.501 10.7932 92.501 10.7186 92.501 10.644C92.501 10.5943 92.5257 10.5445 92.5505 10.4948C92.5753 10.445 92.6248 10.4202 92.6991 10.3953C92.7734 10.3704 92.8725 10.3704 92.9964 10.3704H93.7643C93.9129 10.3704 94.0367 10.3456 94.1358 10.3207C94.2349 10.2958 94.334 10.2461 94.3835 10.1715C94.4578 10.0969 94.5074 9.9974 94.5321 9.87305C94.5569 9.74871 94.5817 9.59949 94.5817 9.40054V6.31675H96.3404V9.62436H96.4394ZM94.656 3.75522C94.656 3.63087 94.6807 3.5314 94.7303 3.40705C94.7798 3.30757 94.8294 3.2081 94.9037 3.13349C94.978 3.05888 95.0771 2.98427 95.1762 2.9594C95.2752 2.90967 95.3991 2.8848 95.5229 2.8848C95.6468 2.8848 95.7459 2.90967 95.8697 2.9594C95.9688 3.00914 96.0679 3.05888 96.1422 3.13349C96.2165 3.2081 96.2908 3.30757 96.3156 3.40705C96.3651 3.50653 96.3899 3.63087 96.3899 3.75522C96.3899 3.87957 96.3651 3.97904 96.3156 4.10339C96.266 4.20287 96.2165 4.30234 96.1422 4.37695C96.0679 4.45156 95.9688 4.52617 95.8697 4.55104C95.7706 4.60077 95.6468 4.62564 95.5229 4.62564C95.3991 4.62564 95.3 4.60077 95.1762 4.55104C95.0771 4.5013 94.978 4.45156 94.9037 4.37695C94.8294 4.30234 94.7551 4.20287 94.7303 4.10339C94.6807 4.00391 94.656 3.87957 94.656 3.75522Z" fill="#162C40"/>
<path d="M97.9263 11.8627C97.8272 11.8627 97.7281 11.8627 97.6538 11.8378C97.5795 11.8378 97.53 11.8129 97.4804 11.7632C97.4309 11.7383 97.4061 11.6637 97.4061 11.614C97.3814 11.5394 97.3813 11.4648 97.3813 11.3404V10.8679C97.3813 10.7933 97.3813 10.7187 97.3813 10.6441C97.3813 10.5943 97.4061 10.5446 97.4309 10.4949C97.4557 10.4451 97.5052 10.4203 97.5795 10.3954C97.6538 10.3705 97.7529 10.3705 97.8768 10.3705H99.3134C99.3877 10.1964 99.462 9.99748 99.5611 9.77365C99.6602 9.5747 99.7593 9.35088 99.8831 9.12705V2.13879H101.642V6.93856C102.038 6.61526 102.459 6.3417 102.93 6.11787C103.401 5.89405 103.896 5.79457 104.466 5.79457C104.986 5.79457 105.432 5.89405 105.803 6.06814C106.175 6.24222 106.497 6.49091 106.744 6.81421C106.992 7.13751 107.19 7.51055 107.289 7.93333C107.413 8.35611 107.463 8.82862 107.463 9.32601V10.3705H108.602C108.726 10.3705 108.825 10.3705 108.899 10.3954C108.974 10.4203 109.023 10.4451 109.048 10.4949C109.073 10.5446 109.098 10.5943 109.098 10.6441C109.098 10.6938 109.098 10.7684 109.098 10.8679V11.3404C109.098 11.4648 109.098 11.5394 109.073 11.614C109.048 11.6886 109.023 11.7383 108.999 11.7632C108.949 11.7881 108.899 11.8129 108.825 11.8378C108.751 11.8378 108.677 11.8627 108.553 11.8627H97.9263ZM105.778 9.47522C105.778 9.05244 105.729 8.70428 105.655 8.43071C105.58 8.15715 105.456 7.90846 105.308 7.75924C105.159 7.58516 104.986 7.46081 104.788 7.38621C104.589 7.3116 104.391 7.28673 104.168 7.28673C103.871 7.28673 103.574 7.36134 103.252 7.53542C102.955 7.70951 102.657 7.93333 102.385 8.20689C102.112 8.48045 101.865 8.82862 101.617 9.20166C101.394 9.54983 101.196 9.94774 101.047 10.3705H105.778V9.47522Z" fill="#162C40"/>
<path d="M114.026 10.3705C114.175 10.3705 114.299 10.3456 114.398 10.3208C114.497 10.2959 114.596 10.2461 114.646 10.1715C114.72 10.0969 114.77 9.99745 114.794 9.87311C114.819 9.74876 114.844 9.59954 114.844 9.40059V7.03801H116.602V9.62441C116.602 9.67415 116.602 9.74876 116.602 9.7985C116.602 9.84824 116.602 9.89798 116.602 9.97258C116.825 10.0969 117.098 10.1964 117.37 10.271C117.643 10.3456 117.965 10.3705 118.336 10.3705H118.832V6.3168H120.591V11.8626H118.435C117.94 11.8626 117.494 11.788 117.123 11.6637C116.751 11.5393 116.429 11.3653 116.157 11.1663C116.008 11.3653 115.81 11.5393 115.562 11.6637C115.314 11.788 114.992 11.8378 114.621 11.8378H114.324C113.878 11.8378 113.457 11.7632 113.11 11.6388C112.738 11.5145 112.441 11.3404 112.169 11.1414C112.02 11.3653 111.797 11.5145 111.549 11.6388C111.302 11.7632 110.98 11.8378 110.608 11.8378H108.602C108.503 11.8378 108.404 11.8378 108.329 11.8129C108.255 11.8129 108.205 11.788 108.156 11.7383C108.106 11.6886 108.106 11.6886 108.106 11.614C108.082 11.5393 108.082 11.4647 108.082 11.3404V10.8679C108.082 10.7933 108.082 10.7187 108.082 10.6441C108.082 10.5943 108.106 10.5446 108.131 10.4948C108.156 10.4451 108.205 10.4202 108.28 10.3954C108.354 10.3705 108.453 10.3705 108.577 10.3705H109.964C110.113 10.3705 110.237 10.3456 110.336 10.3208C110.435 10.2959 110.534 10.2461 110.583 10.1715C110.658 10.0969 110.707 9.99745 110.732 9.87311C110.757 9.74876 110.781 9.59954 110.781 9.40059V7.65974H112.54V9.62441C112.54 9.67415 112.54 9.72389 112.54 9.77363C112.54 9.82337 112.54 9.87311 112.515 9.92284C112.763 10.0721 113.011 10.1715 113.259 10.2461C113.556 10.3456 113.779 10.3705 114.026 10.3705Z" fill="#162C40"/>
<path d="M122.349 2.13879H124.108V11.8627H122.349V2.13879Z" fill="#162C40"/>
<path d="M138.624 10.3704V6.31675H140.382V11.8626H132.605C132.06 11.8626 131.614 11.8377 131.217 11.7631C130.821 11.6885 130.474 11.6139 130.202 11.4896C129.929 11.3652 129.682 11.2409 129.508 11.0668C129.335 10.9176 129.186 10.7186 129.062 10.5445C128.963 10.3456 128.889 10.1466 128.839 9.92279C128.79 9.69897 128.765 9.47515 128.765 9.22645C128.765 9.12698 128.765 9.0275 128.79 8.90315C128.79 8.77881 128.815 8.65446 128.815 8.53012C128.839 8.40577 128.839 8.25655 128.864 8.13221C128.889 8.00786 128.914 7.85865 128.914 7.75917L130.474 7.88352C130.45 8.0576 130.425 8.23168 130.4 8.40577C130.375 8.57985 130.375 8.75394 130.375 8.92802C130.375 9.20158 130.4 9.42541 130.474 9.59949C130.549 9.77358 130.672 9.92279 130.871 10.0471C131.069 10.1715 131.341 10.2461 131.688 10.2958C132.035 10.3456 132.505 10.3704 133.075 10.3704H138.624ZM133.026 3.75522C133.026 3.63087 133.05 3.5314 133.1 3.40705C133.149 3.30757 133.199 3.2081 133.273 3.13349C133.348 3.05888 133.447 2.98427 133.546 2.9594C133.645 2.90967 133.769 2.8848 133.893 2.8848C134.016 2.8848 134.115 2.90967 134.239 2.9594C134.338 3.00914 134.438 3.05888 134.512 3.13349C134.586 3.2081 134.66 3.30757 134.685 3.40705C134.735 3.50653 134.76 3.63087 134.76 3.75522C134.76 3.87957 134.735 3.97904 134.685 4.10339C134.636 4.20287 134.586 4.30234 134.512 4.37695C134.438 4.45156 134.338 4.52617 134.239 4.55104C134.14 4.60077 134.016 4.62564 133.893 4.62564C133.769 4.62564 133.67 4.60077 133.546 4.55104C133.447 4.5013 133.348 4.45156 133.273 4.37695C133.199 4.30234 133.125 4.20287 133.1 4.10339C133.05 4.00391 133.026 3.87957 133.026 3.75522ZM135.057 3.75522C135.057 3.63087 135.082 3.5314 135.131 3.40705C135.181 3.30757 135.23 3.2081 135.304 3.13349C135.379 3.05888 135.478 2.98427 135.577 2.9594C135.676 2.90967 135.8 2.8848 135.924 2.8848C136.048 2.8848 136.147 2.90967 136.271 2.9594C136.37 3.00914 136.469 3.05888 136.543 3.13349C136.617 3.2081 136.692 3.30757 136.716 3.40705C136.766 3.50653 136.791 3.63087 136.791 3.75522C136.791 3.87957 136.766 3.97904 136.716 4.10339C136.667 4.20287 136.617 4.30234 136.543 4.37695C136.469 4.45156 136.37 4.52617 136.271 4.55104C136.171 4.60077 136.048 4.62564 135.924 4.62564C135.8 4.62564 135.701 4.60077 135.577 4.55104C135.478 4.5013 135.379 4.45156 135.304 4.37695C135.23 4.30234 135.156 4.20287 135.131 4.10339C135.082 4.00391 135.057 3.87957 135.057 3.75522Z" fill="#162C40"/>
<path d="M142.116 2.13879H143.875V9.22653C143.875 9.45035 143.9 9.64931 143.924 9.77365C143.949 9.92287 143.999 10.0472 144.073 10.1218C144.147 10.1964 144.222 10.271 144.321 10.2959C144.42 10.3208 144.544 10.3456 144.668 10.3456H144.99C145.113 10.3456 145.212 10.3456 145.287 10.3705C145.361 10.3954 145.411 10.4203 145.435 10.47C145.46 10.5197 145.485 10.5695 145.485 10.6192C145.485 10.6689 145.485 10.7436 145.485 10.843V11.3155C145.485 11.4399 145.485 11.5145 145.46 11.5891C145.435 11.6637 145.411 11.7135 145.386 11.7383C145.336 11.7632 145.287 11.7881 145.212 11.8129C145.138 11.8129 145.064 11.8378 144.94 11.8378H144.197C143.825 11.8378 143.503 11.7881 143.231 11.6637C142.958 11.5642 142.735 11.415 142.562 11.2161C142.389 11.0171 142.265 10.7933 142.191 10.4949C142.166 10.2462 142.116 9.94774 142.116 9.59957V2.13879Z" fill="#162C40"/>
<path d="M144.965 11.8626C144.866 11.8626 144.767 11.8626 144.692 11.8377C144.618 11.8377 144.569 11.8129 144.519 11.7631C144.469 11.7383 144.445 11.6636 144.445 11.6139C144.42 11.5393 144.42 11.4647 144.42 11.3403V10.8678C144.42 10.7932 144.42 10.7186 144.42 10.644C144.42 10.5694 144.445 10.5445 144.469 10.4948C144.494 10.4451 144.544 10.4202 144.618 10.3953C144.692 10.3704 144.791 10.3704 144.915 10.3704H146.971C147.244 10.3704 147.467 10.3456 147.64 10.3207C147.813 10.271 147.962 10.2212 148.061 10.1466C148.16 10.072 148.235 9.97254 148.259 9.87306C148.309 9.77359 148.309 9.64924 148.309 9.52489C148.309 9.32594 148.259 9.15185 148.135 8.9529C148.012 8.75395 147.838 8.55499 147.615 8.35604C147.392 8.15708 147.12 7.93326 146.798 7.70944C146.55 7.46074 146.179 7.23692 145.782 6.98823L148.705 2.06412L149.993 2.8848L147.913 6.46597C148.259 6.73954 148.581 6.98823 148.829 7.23692C149.101 7.48561 149.3 7.73431 149.473 7.983C149.646 8.23169 149.77 8.48038 149.869 8.72908C149.944 8.97777 149.993 9.25133 149.993 9.54976C149.993 9.87306 149.944 10.1715 149.845 10.4451C149.746 10.7186 149.572 10.9673 149.349 11.1911C149.126 11.415 148.829 11.5642 148.482 11.6885C148.135 11.8129 147.69 11.8626 147.194 11.8626H144.965Z" fill="#162C40"/>
<path d="M150.587 13.1558C150.984 13.0812 151.306 12.9818 151.529 12.8574C151.776 12.7331 151.95 12.5839 152.098 12.4098C152.222 12.2357 152.321 12.0367 152.371 11.788C152.42 11.5393 152.445 11.2658 152.445 10.9674V6.3168H154.204V10.3954H155.566C155.69 10.3954 155.789 10.3954 155.863 10.4202C155.913 10.4202 155.963 10.4451 155.987 10.4948C156.012 10.5446 156.037 10.5943 156.037 10.6441C156.037 10.6938 156.037 10.7684 156.037 10.8679V11.3404C156.037 11.4647 156.037 11.5393 156.012 11.614C155.987 11.6886 155.963 11.7383 155.938 11.7632C155.913 11.8129 155.863 11.8378 155.789 11.8378C155.715 11.8378 155.641 11.8626 155.517 11.8626H154.08C154.006 12.2854 153.882 12.6585 153.733 12.9818C153.56 13.3051 153.362 13.5538 153.089 13.7776C152.817 14.0014 152.495 14.1755 152.123 14.3247C151.752 14.4739 151.306 14.5734 150.81 14.648L150.587 13.1558Z" fill="#162C40"/>
<path d="M160.892 10.3705C161.04 10.3705 161.164 10.3457 161.263 10.3208C161.362 10.2959 161.461 10.2462 161.511 10.1716C161.585 10.097 161.635 9.99749 161.66 9.87314C161.684 9.7488 161.709 9.59958 161.709 9.40063V7.03805H163.468V9.62445C163.468 9.67419 163.468 9.7488 163.468 9.79853C163.468 9.84827 163.468 9.89801 163.468 9.97262C163.691 10.097 163.963 10.1964 164.236 10.271C164.508 10.3457 164.83 10.3705 165.202 10.3705H165.697V6.31684H167.456V11.8627H165.325C164.83 11.8627 164.384 11.7881 164.013 11.6637C163.641 11.5394 163.319 11.3653 163.047 11.1663C162.898 11.3653 162.7 11.5394 162.452 11.6637C162.204 11.7881 161.882 11.8378 161.511 11.8378H161.214C160.768 11.8378 160.347 11.7632 160 11.6389C159.628 11.5145 159.331 11.3404 159.059 11.1415C158.91 11.3653 158.687 11.5145 158.439 11.6389C158.192 11.7632 157.87 11.8378 157.498 11.8378H155.492C155.393 11.8378 155.294 11.8378 155.219 11.8129C155.145 11.8129 155.095 11.7881 155.046 11.7383C154.996 11.7135 154.972 11.6389 154.972 11.5891C154.947 11.5145 154.947 11.4399 154.947 11.3156V10.8679C154.947 10.7933 154.947 10.7187 154.947 10.6441C154.947 10.5695 154.972 10.5446 154.996 10.4949C155.021 10.4451 155.071 10.4203 155.145 10.3954C155.219 10.3705 155.318 10.3705 155.442 10.3705H156.829C156.978 10.3705 157.102 10.3457 157.201 10.3208C157.3 10.2959 157.399 10.2462 157.449 10.1716C157.523 10.097 157.572 9.99749 157.597 9.87314C157.622 9.7488 157.647 9.59958 157.647 9.40063V7.65978H159.405V9.62445C159.405 9.67419 159.405 9.72393 159.405 9.77366C159.405 9.8234 159.405 9.87314 159.381 9.92288C159.628 10.0721 159.876 10.1716 160.124 10.2462C160.421 10.3457 160.669 10.3705 160.892 10.3705ZM160.594 3.75531C160.594 3.63096 160.619 3.53148 160.669 3.40714C160.718 3.30766 160.768 3.20818 160.842 3.13358C160.916 3.05897 161.015 2.98436 161.115 2.95949C161.214 2.90975 161.337 2.88488 161.461 2.88488C161.585 2.88488 161.684 2.90975 161.808 2.95949C161.907 3.00923 162.006 3.05897 162.081 3.13358C162.155 3.20818 162.229 3.30766 162.254 3.40714C162.304 3.50661 162.328 3.63096 162.328 3.75531C162.328 3.87965 162.304 3.97913 162.254 4.10348C162.204 4.20295 162.155 4.30243 162.081 4.37704C162.006 4.45165 161.907 4.52625 161.808 4.55112C161.709 4.60086 161.585 4.62573 161.461 4.62573C161.337 4.62573 161.238 4.60086 161.115 4.55112C161.015 4.50138 160.916 4.45165 160.842 4.37704C160.768 4.30243 160.693 4.20295 160.669 4.10348C160.619 4.004 160.594 3.87965 160.594 3.75531ZM161.61 1.93985C161.61 1.8155 161.635 1.71603 161.684 1.59168C161.734 1.4922 161.783 1.39273 161.858 1.31812C161.932 1.24351 162.031 1.1689 162.13 1.14404C162.229 1.0943 162.353 1.06943 162.477 1.06943C162.601 1.06943 162.7 1.0943 162.824 1.14404C162.923 1.19377 163.022 1.24351 163.096 1.31812C163.17 1.39273 163.245 1.4922 163.27 1.59168C163.319 1.69116 163.344 1.8155 163.344 1.93985C163.344 2.0642 163.319 2.16367 163.27 2.28802C163.22 2.3875 163.17 2.48697 163.096 2.56158C163.022 2.63619 162.923 2.7108 162.824 2.73567C162.725 2.78541 162.601 2.81027 162.477 2.81027C162.353 2.81027 162.254 2.78541 162.13 2.73567C162.031 2.68593 161.932 2.63619 161.858 2.56158C161.783 2.48697 161.709 2.3875 161.684 2.28802C161.635 2.16367 161.61 2.0642 161.61 1.93985ZM162.626 3.75531C162.626 3.63096 162.65 3.53148 162.7 3.40714C162.749 3.30766 162.799 3.20818 162.873 3.13358C162.948 3.05897 163.047 2.98436 163.146 2.95949C163.245 2.90975 163.369 2.88488 163.492 2.88488C163.616 2.88488 163.715 2.90975 163.839 2.95949C163.938 3.00923 164.037 3.05897 164.112 3.13358C164.186 3.20818 164.26 3.30766 164.285 3.40714C164.335 3.50661 164.359 3.63096 164.359 3.75531C164.359 3.87965 164.335 3.97913 164.285 4.10348C164.236 4.20295 164.186 4.30243 164.112 4.37704C164.037 4.45165 163.938 4.52625 163.839 4.55112C163.74 4.60086 163.616 4.62573 163.492 4.62573C163.369 4.62573 163.27 4.60086 163.146 4.55112C163.047 4.50138 162.948 4.45165 162.873 4.37704C162.799 4.30243 162.725 4.20295 162.7 4.10348C162.65 4.004 162.626 3.87965 162.626 3.75531Z" fill="#162C40"/>
<path d="M178.058 9.52491C178.058 9.699 178.058 9.82334 178.082 9.92282C178.107 10.0223 178.132 10.1218 178.182 10.1715C178.231 10.2461 178.305 10.271 178.38 10.3207C178.454 10.3456 178.578 10.3705 178.702 10.3705H179.197C179.321 10.3705 179.42 10.3705 179.494 10.3953C179.569 10.4202 179.618 10.4451 179.643 10.4948C179.668 10.5445 179.693 10.5943 179.693 10.644C179.693 10.6938 179.693 10.7684 179.693 10.8678V11.3404C179.693 11.4647 179.693 11.5393 179.668 11.6139C179.643 11.6885 179.618 11.7383 179.593 11.7631C179.544 11.788 179.494 11.8129 179.42 11.8378C179.346 11.8378 179.271 11.8626 179.148 11.8626H178.355C178.058 11.8626 177.785 11.8378 177.562 11.788C177.339 11.7383 177.166 11.6885 176.993 11.5891C176.819 11.4896 176.72 11.415 176.621 11.3155C176.522 11.216 176.448 11.0917 176.373 10.9673C176.076 11.1165 175.804 11.2409 175.531 11.2906C175.259 11.3652 174.961 11.3901 174.664 11.3901C174.367 11.3901 174.045 11.3404 173.748 11.2658C173.426 11.1912 173.153 11.0419 172.906 10.8678C172.658 10.6938 172.46 10.4699 172.286 10.1964C172.138 9.92282 172.039 9.57465 172.039 9.20161C172.039 8.85344 172.113 8.55501 172.237 8.28145C172.361 8.00789 172.559 7.75919 172.782 7.53537C173.005 7.31155 173.277 7.11259 173.55 6.93851C173.847 6.76442 174.144 6.61521 174.441 6.49086C174.763 6.36652 175.061 6.24217 175.383 6.16756C175.705 6.06808 175.977 5.99348 176.25 5.94374V5.17279H177.983V9.52491H178.058ZM176.324 7.31155C175.927 7.38616 175.581 7.48563 175.283 7.60998C174.986 7.70946 174.714 7.8338 174.491 7.95815C174.268 8.10736 174.094 8.25658 173.971 8.43066C173.847 8.60475 173.797 8.8037 173.797 9.02753C173.797 9.20161 173.822 9.35083 173.896 9.47517C173.971 9.59952 174.045 9.699 174.169 9.7736C174.268 9.84821 174.392 9.89795 174.54 9.92282C174.689 9.94769 174.813 9.97256 174.961 9.97256C175.209 9.97256 175.457 9.94769 175.705 9.87308C175.952 9.79847 176.15 9.699 176.324 9.59952V7.31155ZM174.218 3.40708C174.218 3.28273 174.243 3.18325 174.293 3.05891C174.342 2.95943 174.392 2.85995 174.466 2.78534C174.54 2.71074 174.639 2.63613 174.739 2.61126C174.838 2.56152 174.961 2.53665 175.085 2.53665C175.209 2.53665 175.308 2.56152 175.432 2.61126C175.531 2.661 175.63 2.71074 175.705 2.78534C175.779 2.85995 175.853 2.95943 175.878 3.05891C175.927 3.15838 175.952 3.28273 175.952 3.40708C175.952 3.53142 175.927 3.6309 175.878 3.75524C175.828 3.85472 175.779 3.9542 175.705 4.02881C175.63 4.10341 175.531 4.17802 175.432 4.20289C175.333 4.25263 175.209 4.2775 175.085 4.2775C174.961 4.2775 174.862 4.25263 174.739 4.20289C174.639 4.15315 174.54 4.10341 174.466 4.02881C174.392 3.9542 174.317 3.85472 174.293 3.75524C174.243 3.6309 174.218 3.53142 174.218 3.40708ZM176.225 3.40708C176.225 3.28273 176.25 3.18325 176.299 3.05891C176.349 2.95943 176.398 2.85995 176.472 2.78534C176.547 2.71074 176.646 2.63613 176.745 2.61126C176.844 2.56152 176.968 2.53665 177.092 2.53665C177.216 2.53665 177.315 2.56152 177.438 2.61126C177.538 2.661 177.637 2.71074 177.711 2.78534C177.785 2.85995 177.86 2.95943 177.884 3.05891C177.934 3.15838 177.959 3.28273 177.959 3.40708C177.959 3.53142 177.934 3.6309 177.884 3.75524C177.835 3.85472 177.785 3.9542 177.711 4.02881C177.637 4.10341 177.538 4.17802 177.438 4.20289C177.339 4.25263 177.216 4.2775 177.092 4.2775C176.968 4.2775 176.869 4.25263 176.745 4.20289C176.646 4.15315 176.547 4.10341 176.472 4.02881C176.398 3.9542 176.324 3.85472 176.299 3.75524C176.25 3.6309 176.225 3.53142 176.225 3.40708Z" fill="#162C40"/>
<path d="M184.746 7.75921C184.672 7.73434 184.573 7.70947 184.474 7.68461C184.374 7.65974 184.251 7.63487 184.127 7.61C184.003 7.58513 183.854 7.56026 183.73 7.53539C183.582 7.51052 183.458 7.51052 183.334 7.51052C183.186 7.51052 183.037 7.53539 182.888 7.56026C182.74 7.61 182.591 7.65974 182.467 7.75921C182.343 7.85869 182.244 7.98304 182.145 8.15712C182.071 8.33121 182.021 8.53016 182.021 8.77885C182.021 9.00268 182.071 9.2265 182.12 9.40058C182.17 9.57467 182.294 9.74875 182.442 9.89797C182.591 10.0472 182.74 10.1467 182.938 10.2213C183.136 10.2959 183.334 10.3456 183.557 10.3456H185.464V11.8378H179.148C179.049 11.8378 178.95 11.8378 178.875 11.8129C178.801 11.8129 178.752 11.788 178.702 11.7383C178.653 11.7134 178.628 11.6388 178.628 11.5891C178.603 11.5145 178.603 11.4399 178.603 11.3155V10.8679C178.603 10.7933 178.603 10.7187 178.603 10.644C178.603 10.5694 178.628 10.5446 178.653 10.4948C178.677 10.4451 178.727 10.4202 178.801 10.3954C178.875 10.3705 178.975 10.3705 179.098 10.3705H180.585C180.535 10.271 180.51 10.1467 180.461 10.0223C180.436 9.89797 180.386 9.77362 180.362 9.64928C180.337 9.52493 180.312 9.40058 180.287 9.27624C180.263 9.15189 180.263 9.05241 180.263 8.95294C180.263 8.55503 180.337 8.18199 180.486 7.80895C180.708 7.46078 180.907 7.13748 181.179 6.86392C181.452 6.59036 181.749 6.3914 182.12 6.21732C182.492 6.0681 182.888 5.96863 183.334 5.96863C183.433 5.96863 183.557 5.96863 183.706 5.9935C183.854 5.9935 184.003 6.01837 184.152 6.04324C184.3 6.0681 184.449 6.09297 184.597 6.11784C184.746 6.14271 184.845 6.16758 184.944 6.21732L184.746 7.75921Z" fill="#162C40"/>
<path d="M190.096 11.8626C189.477 11.8626 188.982 11.788 188.56 11.6139C188.139 11.4398 187.793 11.2409 187.545 10.9673C187.297 10.6938 187.099 10.4202 186.975 10.0969C186.851 9.77361 186.802 9.47517 186.802 9.15187C186.802 8.7291 186.876 8.35606 187.025 7.98302C187.173 7.60998 187.396 7.28668 187.669 7.01312C187.941 6.73956 188.288 6.51573 188.66 6.34165C189.056 6.16756 189.477 6.09296 189.972 6.09296C190.171 6.09296 190.369 6.11783 190.592 6.14269C190.815 6.16756 191.013 6.24217 191.236 6.34165C191.434 6.44113 191.632 6.56547 191.83 6.71469C192.003 6.8639 192.177 7.06286 192.326 7.31155C192.474 7.56024 192.573 7.8338 192.672 8.18197C192.747 8.50527 192.796 8.90318 192.796 9.35083V10.3953H194.01C194.134 10.3953 194.233 10.3953 194.307 10.4202C194.381 10.4451 194.431 10.4699 194.456 10.5197C194.481 10.5694 194.505 10.6192 194.505 10.6689C194.505 10.7186 194.505 10.7932 194.505 10.8927V11.3652C194.505 11.4896 194.505 11.5642 194.481 11.6388C194.456 11.7134 194.431 11.7631 194.406 11.788C194.357 11.8129 194.307 11.8378 194.233 11.8626C194.159 11.8626 194.084 11.8875 193.96 11.8875H192.623C192.449 12.3103 192.226 12.7082 191.904 13.0563C191.582 13.4045 191.236 13.6781 190.79 13.9268C190.369 14.1755 189.898 14.3744 189.378 14.5236C188.858 14.6728 188.313 14.7723 187.743 14.8469L187.57 13.4045C187.991 13.3796 188.362 13.3299 188.709 13.2304C189.056 13.131 189.378 13.0315 189.65 12.8823C189.923 12.7579 190.171 12.5838 190.369 12.4346C190.567 12.2605 190.715 12.0864 190.839 11.8875H190.096V11.8626ZM191.037 10.3705V9.72387C191.037 9.25135 190.988 8.87831 190.938 8.57988C190.864 8.28145 190.765 8.05763 190.641 7.90841C190.517 7.73433 190.393 7.63485 190.245 7.58511C190.096 7.53537 189.948 7.48563 189.774 7.48563C189.601 7.48563 189.427 7.5105 189.279 7.58511C189.13 7.65972 188.982 7.7592 188.858 7.88354C188.734 8.00789 188.635 8.18197 188.56 8.35606C188.486 8.53014 188.461 8.7291 188.461 8.95292C188.461 9.3757 188.585 9.72387 188.858 9.97256C189.13 10.2213 189.526 10.3456 190.096 10.3456H191.037V10.3705Z" fill="#162C40"/>
<path d="M198.666 11.9372C198.344 11.9372 198.072 11.9123 197.824 11.8626C197.576 11.8129 197.354 11.7383 197.155 11.6388C196.957 11.5393 196.784 11.4398 196.635 11.3403C196.487 11.2409 196.338 11.1165 196.239 11.017C195.843 11.589 195.273 11.8626 194.505 11.8626H193.96C193.861 11.8626 193.762 11.8626 193.688 11.8377C193.613 11.8377 193.564 11.8129 193.514 11.7631C193.465 11.7383 193.44 11.6636 193.44 11.6139C193.415 11.5393 193.415 11.4647 193.415 11.3403V10.8678C193.415 10.7932 193.415 10.7186 193.415 10.644C193.415 10.5694 193.44 10.5445 193.465 10.4948C193.489 10.4451 193.539 10.4202 193.613 10.3953C193.688 10.3704 193.787 10.3704 193.91 10.3704H194.232C194.455 10.3704 194.654 10.3207 194.802 10.1964C194.976 10.072 195.099 9.89793 195.174 9.64924C195.397 8.90316 195.644 8.33117 195.917 7.85865C196.189 7.41101 196.487 7.06284 196.784 6.81414C197.081 6.56545 197.378 6.41624 197.676 6.31676C198.022 6.24215 198.295 6.19241 198.518 6.19241C198.84 6.19241 199.162 6.24215 199.434 6.31676C199.707 6.41624 199.954 6.51571 200.177 6.66493C200.4 6.81414 200.574 6.98823 200.747 7.18718C200.896 7.38614 201.044 7.58509 201.143 7.80891C201.242 8.03274 201.317 8.25656 201.391 8.50525C201.441 8.75395 201.465 8.97777 201.465 9.20159C201.465 9.32594 201.465 9.47515 201.441 9.5995C201.416 9.72385 201.391 9.84819 201.366 9.99741C201.614 10.1218 201.862 10.2212 202.159 10.2958C202.456 10.3456 202.753 10.3953 203.075 10.3953H203.125C203.249 10.3953 203.348 10.3953 203.422 10.4202C203.497 10.4451 203.546 10.4699 203.571 10.5197C203.596 10.5694 203.62 10.6191 203.62 10.6689C203.62 10.7186 203.62 10.7932 203.62 10.8927V11.3652C203.62 11.4896 203.62 11.5642 203.596 11.6388C203.571 11.7134 203.546 11.7631 203.521 11.788C203.497 11.8129 203.422 11.8377 203.348 11.8626C203.274 11.8626 203.199 11.8875 203.075 11.8875H203.001C202.729 11.8875 202.481 11.8626 202.258 11.8377C202.035 11.788 201.837 11.7383 201.639 11.6636C201.441 11.589 201.292 11.5144 201.143 11.415C200.995 11.3155 200.846 11.216 200.722 11.0917C200.475 11.3652 200.202 11.5642 199.855 11.7134C199.533 11.8377 199.137 11.9372 198.666 11.9372ZM199.806 9.20159C199.806 9.05238 199.781 8.87829 199.707 8.67934C199.657 8.50525 199.558 8.33117 199.434 8.15708C199.31 8.00787 199.162 7.85865 198.988 7.75918C198.815 7.6597 198.617 7.60996 198.394 7.60996C198.171 7.60996 197.973 7.68457 197.799 7.80891C197.626 7.93326 197.453 8.10735 197.304 8.33117C197.155 8.55499 197.031 8.80368 196.932 9.07725C196.858 9.37568 196.784 9.64924 196.734 9.94767C196.784 9.99741 196.883 10.072 197.007 10.1218C197.131 10.1964 197.254 10.2461 197.428 10.2958C197.576 10.3456 197.75 10.3953 197.898 10.4202C198.072 10.4451 198.22 10.4699 198.369 10.4699C198.592 10.4699 198.79 10.4451 198.964 10.3953C199.137 10.3456 199.286 10.271 199.434 10.1715C199.558 10.072 199.657 9.94767 199.731 9.77359C199.781 9.62437 199.806 9.42542 199.806 9.20159Z" fill="#162C40"/>
<path d="M204.091 6.26702C204.413 6.16755 204.71 6.09294 205.032 6.01833C205.354 5.94372 205.701 5.91885 206.097 5.91885C206.493 5.91885 206.84 5.96859 207.137 6.09294C207.435 6.21728 207.707 6.3665 207.905 6.56545C208.128 6.76441 208.302 7.0131 208.425 7.31153C208.549 7.58509 208.648 7.90839 208.698 8.25656C208.747 8.53012 208.772 8.80369 208.822 9.05238C208.871 9.30107 208.921 9.52489 208.97 9.72385C209.02 9.9228 209.094 10.072 209.169 10.1964C209.243 10.3207 209.342 10.3704 209.441 10.3704H210.085C210.209 10.3704 210.308 10.3704 210.382 10.3953C210.457 10.4202 210.506 10.4451 210.531 10.4948C210.556 10.5445 210.58 10.5943 210.58 10.644C210.58 10.6937 210.58 10.7684 210.58 10.8678V11.3403C210.58 11.4647 210.58 11.5393 210.556 11.6139C210.531 11.6885 210.506 11.7383 210.481 11.7631C210.457 11.8129 210.407 11.8377 210.333 11.8377C210.258 11.8377 210.184 11.8626 210.06 11.8626H203.05C202.951 11.8626 202.852 11.8626 202.778 11.8377C202.704 11.8377 202.654 11.8129 202.604 11.7631C202.555 11.7383 202.53 11.6636 202.53 11.6139C202.505 11.5393 202.505 11.4647 202.505 11.3403V10.8678C202.505 10.7932 202.505 10.7186 202.505 10.644C202.505 10.5694 202.53 10.5445 202.555 10.4948C202.58 10.4451 202.629 10.4202 202.704 10.3953C202.778 10.3704 202.877 10.3704 203.001 10.3704H207.435C207.435 10.2461 207.385 10.0969 207.336 9.94767C207.286 9.77359 207.236 9.62437 207.212 9.45029C207.187 9.20159 207.137 8.9529 207.088 8.70421C207.038 8.45552 206.964 8.23169 206.865 8.03274C206.766 7.83379 206.617 7.6597 206.444 7.53535C206.27 7.41101 206.048 7.3364 205.775 7.3364C205.676 7.3364 205.577 7.3364 205.428 7.36127C205.304 7.38614 205.156 7.38614 205.007 7.41101C204.834 7.43588 204.685 7.46075 204.512 7.51049C204.363 7.56022 204.215 7.60996 204.066 7.6597V6.26702H204.091ZM205.379 13.8024C205.379 13.6781 205.403 13.5786 205.453 13.4542C205.503 13.3548 205.552 13.2553 205.626 13.1807C205.701 13.1061 205.8 13.0315 205.899 13.0066C205.998 12.9569 206.122 12.932 206.246 12.932C206.37 12.932 206.469 12.9569 206.592 13.0066C206.692 13.0563 206.791 13.1061 206.865 13.1807C206.939 13.2553 207.014 13.3548 207.038 13.4542C207.063 13.5537 207.113 13.6781 207.113 13.8024C207.113 13.9268 207.088 14.0262 207.038 14.1506C206.989 14.2749 206.939 14.3495 206.865 14.4241C206.791 14.4987 206.692 14.5734 206.592 14.5982C206.493 14.648 206.37 14.6728 206.246 14.6728C206.122 14.6728 206.023 14.648 205.899 14.5982C205.8 14.5485 205.701 14.4987 205.626 14.4241C205.552 14.3495 205.478 14.2501 205.453 14.1506C205.403 14.0262 205.379 13.9268 205.379 13.8024Z" fill="#162C40"/>
<path d="M214.743 11.9372C214.42 11.9372 214.148 11.9123 213.9 11.8626C213.653 11.8129 213.43 11.7383 213.232 11.6388C213.033 11.5393 212.86 11.4398 212.711 11.3403C212.563 11.2409 212.414 11.1165 212.315 11.017C211.919 11.589 211.349 11.8626 210.581 11.8626H210.036C209.937 11.8626 209.838 11.8626 209.764 11.8377C209.689 11.8377 209.64 11.8129 209.59 11.7631C209.541 11.7383 209.516 11.6636 209.516 11.6139C209.491 11.5393 209.491 11.4647 209.491 11.3403V10.8678C209.491 10.7932 209.491 10.7186 209.491 10.644C209.491 10.5943 209.516 10.5445 209.541 10.4948C209.566 10.4451 209.615 10.4202 209.689 10.3953C209.764 10.3704 209.863 10.3704 209.987 10.3704H210.309C210.532 10.3704 210.73 10.3207 210.878 10.1964C211.052 10.072 211.176 9.89793 211.25 9.64924C211.473 8.90316 211.721 8.33117 211.993 7.85865C212.265 7.41101 212.563 7.06284 212.86 6.81414C213.157 6.56545 213.454 6.41624 213.752 6.31676C214.049 6.24215 214.297 6.19241 214.544 6.19241C214.866 6.19241 215.188 6.24215 215.461 6.31676C215.733 6.41624 215.981 6.51571 216.204 6.66493C216.427 6.81414 216.6 6.98823 216.774 7.18718C216.922 7.38614 217.071 7.58509 217.17 7.80891C217.269 8.03274 217.343 8.25656 217.418 8.50525C217.467 8.75395 217.492 8.97777 217.492 9.20159C217.492 9.54976 217.442 9.89793 217.319 10.2212C217.195 10.5445 217.021 10.843 216.798 11.0917C216.576 11.3403 216.278 11.5393 215.931 11.6885C215.585 11.8626 215.188 11.9372 214.743 11.9372ZM215.882 9.20159C215.882 9.05238 215.857 8.87829 215.783 8.67934C215.733 8.50525 215.634 8.33117 215.51 8.15708C215.387 8.00787 215.238 7.85865 215.065 7.75918C214.891 7.6597 214.693 7.60996 214.47 7.60996C214.247 7.60996 214.049 7.68457 213.876 7.80891C213.702 7.93326 213.529 8.10735 213.38 8.33117C213.232 8.55499 213.108 8.80368 213.009 9.07725C212.91 9.35081 212.81 9.64924 212.761 9.94767C212.81 9.99741 212.91 10.072 213.033 10.1218C213.157 10.1964 213.281 10.2461 213.454 10.2958C213.603 10.3456 213.776 10.3953 213.925 10.4202C214.098 10.4451 214.247 10.4699 214.396 10.4699C214.619 10.4699 214.817 10.4451 214.99 10.3953C215.213 10.3704 215.362 10.2958 215.486 10.1964C215.609 10.072 215.709 9.94767 215.783 9.79845C215.857 9.62437 215.882 9.42542 215.882 9.20159Z" fill="#162C40"/>
<path d="M15.4912 3.03405C15.3674 3.08379 15.2683 3.13353 15.1692 3.18326C11.4289 14.2998 11.1564 26.2122 16.5811 36.9308C21.015 45.7594 28.0497 51.4047 36.1743 55.4087C38.7752 54.6377 41.277 53.4938 43.6054 51.9519L35.1835 47.5251C38.4284 28.6742 33.4496 13.3797 15.4912 3.03405ZM44.3733 51.4545C45.6861 50.5343 46.9494 49.4649 48.1136 48.2961C55.718 40.6612 58.0712 29.7685 55.1731 20.1192C53.0676 23.1533 51.2594 26.5604 49.4512 30.5146C46.2063 37.478 44.6705 44.4662 44.3733 51.4545ZM53.1172 15.0956C51.8291 12.6584 50.1695 10.3456 48.1136 8.30633C42.6146 2.76049 35.3817 0 28.1736 0C35.4065 6.26705 40.8807 14.2749 43.5559 24.4465C46.5778 20.5171 49.7732 17.4085 53.1172 15.0956ZM16.5068 54.0657C13.2123 50.6587 10.3142 46.6796 7.9363 41.9793C3.75013 33.5486 2.26392 24.8692 2.68501 16.2396C-2.24426 26.7344 -0.386492 39.6416 8.25831 48.3209C10.7106 50.783 13.5344 52.6979 16.5068 54.0657Z" fill="#5EBE79"/>
</svg>
