<svg width="150" height="150" viewBox="0 0 150 150" fill="none" xmlns="http://www.w3.org/2000/svg">
<g clip-path="url(#clip0_12_4)">
<path d="M108.144 88.7438C107.736 88.4133 107.199 88.3624 106.714 88.5658L92.2064 94.7957C91.7722 94.9737 91.4402 95.406 91.3636 95.8891C91.2869 96.3722 91.4913 96.8554 91.8488 97.1605L96.0376 100.593C91.2359 105.882 84.7228 109.137 77.5202 109.849C69.8833 110.587 62.3997 108.323 56.4742 103.467C54.1244 101.534 52.1066 99.2965 50.4975 96.7537C50.2421 96.3722 49.9101 96.0671 49.5269 95.8891C49.0927 95.5586 48.5564 95.3297 47.9689 95.3297C46.6152 95.3297 45.517 96.4231 45.517 97.7708V137.362C45.517 137.667 45.6447 140.414 47.1005 143.236C48.02 145.016 49.2715 146.44 50.8296 147.457C52.7451 148.729 55.0694 149.364 57.7512 149.364C63.7279 149.364 67.0227 146.542 68.734 144.152C70.292 142.016 70.8028 139.88 70.9561 139.168H78.312C78.4652 139.905 79.0016 142.016 80.5341 144.152C82.2453 146.516 85.5401 149.364 91.5168 149.364C94.1731 149.364 96.4974 148.729 98.4385 147.457C99.9965 146.415 101.248 145.016 102.168 143.236C103.649 140.414 103.751 137.667 103.751 137.362V112.392C103.751 111.044 102.653 109.951 101.299 109.951C99.9454 109.951 98.8472 111.044 98.8472 112.392V137.235C98.8472 137.464 98.7194 139.32 97.7489 141.1C96.5229 143.363 94.4796 144.457 91.5168 144.457C88.554 144.457 86.1531 143.44 84.6207 141.431C83.6245 140.108 83.267 138.735 83.1648 138.303V136.701C83.1648 135.353 82.0665 134.26 80.7128 134.26H68.5807C67.2271 134.26 66.1288 135.353 66.1288 136.701V138.303C66.0266 138.735 65.6435 140.108 64.6729 141.431C63.166 143.44 60.8417 144.457 57.7768 144.457C54.7118 144.457 52.7962 143.363 51.5703 141.1C50.5997 139.32 50.472 137.464 50.472 137.235V104.509C51.3915 105.45 52.362 106.34 53.3837 107.205C56.9084 110.078 60.8673 112.188 65.1837 113.46C68.2998 114.375 71.4924 114.858 74.7362 114.858C75.8345 114.858 76.9327 114.808 78.0566 114.706C82.3986 114.274 86.5873 113.053 90.4441 111.044C94.0198 109.188 97.2125 106.696 99.8943 103.696L103.674 106.772C104.058 107.103 104.594 107.179 105.054 107.001C105.539 106.823 105.871 106.416 105.948 105.933L108.706 90.0915C108.706 89.5575 108.527 89.049 108.144 88.7438Z" fill="#5FBE7B"/>
<path d="M68.8871 24.36V19.5287H80.4573V24.36H68.8871ZM64.0598 5.49244H85.4379V14.6211H64.0598V5.49244ZM57.8788 66.5706C57.9555 66.0875 57.7511 65.6043 57.3936 65.2992L53.4602 62.0698C58.262 56.7808 64.775 53.526 71.9776 52.814C79.6145 52.0766 87.0981 54.3397 93.0236 59.1965C95.3734 61.1036 97.3657 63.3666 98.9748 65.8586C99.3068 66.7994 100.226 67.486 101.273 67.486H101.35C101.784 67.486 102.244 67.3589 102.653 67.13C103.598 66.5452 104.006 65.4772 103.751 64.4855V46.1519C103.751 41.524 102.857 37.4809 101.069 34.1498C99.6133 31.4036 97.5444 29.1659 94.9903 27.4877C90.6483 24.6397 86.3063 24.3855 86.102 24.3855H85.9742H85.3357V19.5541H85.6167C88.2219 19.5541 90.3418 17.4436 90.3418 14.85V5.33987C90.3418 2.74621 88.2219 0.635681 85.6167 0.635681H63.881C61.2758 0.635681 59.1559 2.74621 59.1559 5.33987V14.85C59.1559 17.4436 61.2758 19.5541 63.881 19.5541H63.9577V24.3855H63.2936H63.1659C62.9871 24.3855 58.6195 24.6397 54.2775 27.4877C51.7234 29.1914 49.6546 31.4036 48.1987 34.1498C46.4108 37.4809 45.5169 41.4985 45.5169 46.1519V49.9152C45.5169 51.2629 46.6151 52.3563 47.9688 52.3563C49.3225 52.3563 50.4208 51.2629 50.4208 49.9152V46.1519C50.4208 39.4134 52.5663 34.5567 56.8061 31.6833C59.82 29.6491 62.936 29.3185 63.3702 29.2931H85.8976C86.3318 29.3185 89.4223 29.6745 92.4617 31.6833C96.7016 34.5567 98.8471 39.4134 98.8471 46.1519V57.8996C98.0042 57.0351 97.1102 56.2214 96.1652 55.4585C92.6405 52.5852 88.6816 50.4746 84.3651 49.2032C80.1764 47.9573 75.8599 47.5504 71.5179 47.9827C67.1759 48.415 62.9871 49.6355 59.1304 51.6443C55.5546 53.5006 52.3619 55.9925 49.6801 58.993L45.6957 55.7128C45.3125 55.3822 44.7762 55.306 44.3164 55.484C43.8311 55.662 43.4991 56.0688 43.4225 56.5519L40.664 72.3936C40.5874 72.8767 40.7662 73.3853 41.1493 73.7159H41.1748C41.5835 74.0464 42.1199 74.1227 42.6052 73.9193L57.1126 67.6894C57.5468 67.5114 57.8788 67.0791 57.9555 66.596L57.8788 66.5706Z" fill="#5FBE7B"/>
<path d="M108.144 88.7439C107.735 88.4133 107.199 88.3625 106.714 88.5659L92.2063 94.7958C91.7721 94.9738 91.4401 95.406 91.3634 95.8892C91.2868 96.3723 91.4911 96.8554 91.8487 97.1606L96.0375 100.593C91.2357 105.882 84.7227 109.137 77.5201 109.849C69.8832 110.587 62.3996 108.323 56.4741 103.467C54.1243 101.534 52.1065 99.2965 50.4974 96.7537C50.242 96.3723 49.9099 96.0672 49.5268 95.8892C49.0926 95.5586 48.5563 95.3298 47.9688 95.3298C46.6151 95.3298 45.5168 96.4232 45.5168 97.7709V137.362C45.5168 137.667 45.6446 140.414 47.1004 143.236C48.0199 145.016 49.2714 146.44 50.8294 147.457C52.745 148.729 55.0693 149.364 57.7511 149.364C63.7278 149.364 67.0226 146.542 68.7339 144.152C70.2919 142.016 70.8027 139.88 70.956 139.168H78.3118C78.4651 139.905 79.0015 142.016 80.5339 144.152C82.2452 146.516 85.54 149.364 91.5167 149.364C94.173 149.364 96.4972 148.729 98.4384 147.457C99.9964 146.415 101.248 145.016 102.167 143.236C103.649 140.414 103.751 137.667 103.751 137.362V112.392C103.751 111.044 102.653 109.951 101.299 109.951C99.9453 109.951 98.847 111.044 98.847 112.392V137.235C98.847 137.464 98.7193 139.32 97.7488 141.1C96.5228 143.363 94.4795 144.457 91.5167 144.457C88.5539 144.457 86.153 143.44 84.6205 141.431C83.6244 140.109 83.2668 138.735 83.1647 138.303V136.701C83.1647 135.353 82.0664 134.26 80.7127 134.26H68.5806C67.2269 134.26 66.1287 135.353 66.1287 136.701V138.303C66.0265 138.735 65.6434 140.109 64.6728 141.431C63.1659 143.44 60.8416 144.457 57.7767 144.457C54.7117 144.457 52.7961 143.363 51.5701 141.1C50.5996 139.32 50.4719 137.464 50.4719 137.235V104.509C51.3913 105.45 52.3619 106.34 53.3836 107.205C56.9083 110.078 60.8672 112.189 65.1836 113.46C68.2997 114.375 71.4923 114.858 74.7361 114.858C75.8343 114.858 76.9326 114.808 78.0564 114.706C82.3984 114.274 86.5872 113.053 90.4439 111.044C94.0197 109.188 97.2124 106.696 99.8942 103.696L103.674 106.772C104.057 107.103 104.594 107.179 105.054 107.001C105.539 106.823 105.871 106.416 105.948 105.933L108.706 90.0916C108.706 89.5576 108.527 89.049 108.144 88.7439Z" fill="#5FBE7B"/>
<path d="M108.016 88.6422C107.965 88.6676 107.965 88.8202 108.016 88.8202L108.221 88.5913C108.553 88.8964 108.706 89.3287 108.681 89.761C108.808 89.8881 108.885 90.0661 108.961 90.2187C109.038 89.6084 108.732 88.8964 108.195 88.6167L107.991 88.8456C107.965 88.8202 107.965 88.6676 108.016 88.6422Z" fill="#60BE7B"/>
<path d="M106.867 94.16L106.637 96.2706C107.787 95.228 107.225 96.8045 108.451 93.6515C108.502 92.4818 108.629 89.9135 108.195 90.1933C108.093 91.007 108.246 92.2783 107.914 93.4735C107.735 92.914 107.991 91.5918 107.761 90.9307C107.122 92.8378 107.761 92.2021 107.276 94.338L106.867 94.16Z" fill="#60BE7B"/>
<path d="M107.378 96.7791C107.25 96.5503 107.122 96.3469 106.995 96.3469C107.097 96.5503 107.122 97.6183 107.378 96.7791Z" fill="#60BE7B"/>
<path d="M107.25 98.0505C106.995 99.3474 106.918 97.9743 106.842 98.1014L107.174 99.7034L107.25 98.0505Z" fill="#60BE7B"/>
<path d="M106.254 103.518C106.229 103.721 106.229 103.95 106.203 104.128C106.331 103.924 106.28 103.746 106.254 103.518Z" fill="#60BE7B"/>
<path d="M105.82 106.213C106.177 105.781 106.152 104.967 106.203 104.128C106.177 104.153 106.177 104.179 106.152 104.204C105.845 104.916 105.539 104.153 105.871 102.958C105.999 101.661 106.407 101.865 106.305 100.72L105.692 102.17C105.386 104.204 105.871 105.348 105.82 106.213Z" fill="#60BE7B"/>
<path d="M106.254 103.518C106.28 103.289 106.305 103.06 106.356 102.806C106.229 103.085 106.229 103.314 106.254 103.518Z" fill="#60BE7B"/>
<path d="M106.79 100.771L106.816 100.085L106.612 100.212L106.79 100.771Z" fill="#60BE7B"/>
<path d="M102.04 105.577C102.321 105.45 102.934 105.933 103.444 106.416C103.981 107.103 105.028 106.95 104.977 106.569C104.389 106.925 103.751 106.518 103.598 106.137C103.266 105.679 103.01 105.17 103.342 105.196L101.682 104.077C101.273 103.899 101.248 104.077 101.376 104.408C101.478 104.687 101.708 105.145 102.04 105.577Z" fill="#60BE7B"/>
<path d="M98.4895 103.009C98.3618 103.238 98.183 103.441 97.9786 103.696C98.2341 103.39 98.4384 103.136 98.4895 103.009Z" fill="#60BE7B"/>
<path d="M91.057 110.18C92.3085 109.264 93.4579 108.273 94.5306 107.179C94.3008 107.586 94.5562 107.637 93.7644 108.298C95.4501 107.179 95.4246 106.696 96.7016 105.654C97.4679 105.755 94.4795 107.586 95.5267 107.332C96.4462 106.594 97.7744 105.374 98.0809 104.357L99.7921 103.06C99.8432 103.085 99.8943 103.162 99.9454 103.212L99.7666 102.882C99.6133 102.831 99.4345 102.806 99.2047 102.831C98.7705 103.187 98.3618 103.797 98.0809 104.204C97.9021 104.509 97.7233 104.764 97.4168 104.764C97.1103 104.713 97.4934 104.28 97.9787 103.696C97.0848 104.789 95.3224 105.654 93.4068 107.128C91.389 108.603 92.3596 109.061 91.057 110.18Z" fill="#60BE7B"/>
<path d="M90.5717 109.697L90.1886 109.62L90.5206 109.798L90.5717 109.697Z" fill="#60BE7B"/>
<path d="M86.3829 112.468C87.0981 112.061 87.7877 111.655 88.4517 111.197C88.7072 111.146 88.8859 111.197 89.0903 111.222C88.937 111.146 89.4223 110.637 89.2691 110.587C88.0686 110.587 86.7149 111.934 85.5145 112.443C82.2452 113.231 85.5656 112.138 84.1863 112.036C85.0803 111.782 85.1569 111.883 86.3574 111.477C84.263 111.655 82.0153 112.799 80.7127 113.155C81.0959 113.129 81.2236 113.282 81.9387 113.078L80.6361 113.511C82.092 113.689 83.369 113.612 86.3829 112.468Z" fill="#60BE7B"/>
<path d="M90.2908 110.714C89.5245 111.171 89.1925 111.273 89.0903 111.222C89.3713 111.273 89.7033 111.222 90.2908 110.714Z" fill="#60BE7B"/>
<path d="M80.0232 113.307C80.1764 113.333 80.4063 113.257 80.7128 113.18C80.5596 113.18 80.3552 113.206 80.0232 113.307Z" fill="#60BE7B"/>
<path d="M81.479 113.689C80.9171 113.79 80.3808 113.867 79.8188 113.918L80.5085 114.07C80.7383 114.019 81.5301 113.816 81.479 113.689Z" fill="#60BE7B"/>
<path d="M49.1182 135.303C49.3481 135.15 49.4503 134.54 49.3992 133.218C49.7057 133.37 49.629 135.074 49.8078 135.862C49.9866 134.133 50.1654 135.887 50.4464 135.455C50.4719 133.523 50.0888 132.684 50.1654 130.624C50.242 130.726 50.3697 130.675 50.4719 130.42C50.2931 127.954 50.0122 123.733 50.2676 121.317C50.3697 118.978 50.242 117.249 50.1143 114.68C50.1399 112.57 50.1399 110.434 50.1654 108.273C50.1654 107.052 50.1654 105.806 50.1654 104.56C49.9611 103.467 50.6762 104.458 51.0849 104.764L52.4641 106.035C53.4347 106.95 54.252 107.611 55.146 108.247C56.0399 108.883 56.9594 109.493 57.93 110.053C59.8455 111.171 61.8633 112.138 64.0088 112.926L65.388 112.748C65.72 113.155 67.4568 113.282 67.1248 113.587C66.6651 113.409 66.2053 113.358 65.6179 113.206C67.3547 114.248 70.624 114.299 72.9227 114.553C72.6673 114.426 72.3352 113.918 73.0248 113.867C72.8205 114.553 75.7067 113.918 76.4218 114.553C78.7461 114.604 76.4729 114.045 78.8738 113.918C79.0781 113.562 76.5751 113.918 76.1409 113.638C76.856 113.307 78.2863 113.689 78.1331 113.257C76.2686 113.282 73.5868 113.638 70.6495 113.435C67.7123 113.257 64.4941 112.672 61.7611 111.604L62.4508 111.502C61.0204 111.07 59.2326 110.281 57.649 109.264C56.8572 108.756 56.1165 108.222 55.5035 107.662C55.197 107.383 54.9161 107.103 54.6607 106.849C54.3542 106.518 54.3031 106.442 53.8944 105.959C54.1498 106.416 52.8217 105.145 51.468 103.899C50.7784 103.289 50.1143 102.678 49.7057 102.399C49.4247 102.068 49.578 102.653 49.6035 102.882C49.6546 103.162 49.7312 103.34 49.8334 103.467C49.6546 104.204 49.6801 104.611 49.629 106.162L49.8845 106.772C49.8845 108.908 49.5013 108.527 49.5269 110.332C49.8589 109.163 49.9611 110.459 50.2165 110.968C49.8845 113.053 49.5013 115.392 49.2204 117.223C49.3225 117.071 49.4503 116.918 49.6035 116.282C49.4758 117.528 49.8078 117.3 49.91 117.63C49.9355 118.825 49.5013 118.698 49.297 118.647C49.1693 120.834 49.9866 121.826 49.7057 123.453L50.0377 122.894C50.1143 125.157 49.7567 127.064 49.8589 129.53C49.3992 130.726 49.4502 127.471 49.2459 126.454C49.1438 126.962 49.1182 128.03 48.965 128.386C49.1948 129.454 49.5269 131.234 49.7567 132.556C49.1182 131.285 49.1438 134.463 49.1182 135.303Z" fill="#60BE7B"/>
<path d="M48.8627 128.386C48.7861 128.081 48.735 127.827 48.684 127.674C48.7095 127.903 48.735 128.132 48.7095 128.513C48.7861 128.513 48.8372 128.462 48.8627 128.386Z" fill="#60BE7B"/>
<path d="M49.1182 135.303C49.0927 135.303 49.0927 135.353 49.0671 135.353C49.0927 135.608 49.0927 135.531 49.1182 135.303Z" fill="#60BE7B"/>
<path d="M50.3186 120.987C50.3186 121.088 50.2931 121.19 50.2931 121.317C50.2931 121.47 50.2931 121.571 50.2931 121.724L50.3186 120.987Z" fill="#60BE7B"/>
<path d="M48.7606 119.13C48.8883 118.647 48.9905 117.986 49.1182 117.223C48.9649 117.427 48.8628 117.605 48.7606 119.13Z" fill="#60BE7B"/>
<path d="M49.8845 102.322C50.4464 102.755 50.0122 102.221 50.3953 102.424C49.0416 101.178 48.7606 101.051 49.8845 102.322Z" fill="#60BE7B"/>
<path d="M48.7861 131.107L48.8883 133.014L48.9905 133.701L48.7861 131.107Z" fill="#60BE7B"/>
<path d="M72.6162 134.108C71.7734 133.904 70.7517 133.879 69.6534 133.879C69.0915 133.904 68.6063 133.828 67.9422 133.955C67.3292 134.082 66.7673 134.438 66.3586 134.87C65.6946 135.786 65.8223 136.447 65.8989 136.701C66.001 136.981 66.1032 137.032 66.2054 137.083C66.3075 137.133 66.4097 137.184 66.4863 137.413C66.5119 137.54 66.563 137.718 66.5885 137.973C66.6651 138.252 66.5374 138.761 66.4097 139.168C66.2054 138.888 66.001 138.583 65.7712 138.354C65.3881 140.007 64.2387 141.939 62.5019 143.033C60.7651 144.152 58.7218 144.457 57.1382 144.762C56.8573 144.635 56.2443 144.482 57.1893 144.406C55.9889 144.33 55.6568 144.533 55.146 144.686C54.6863 144.762 53.8945 144.94 52.4897 143.694C54.0477 144.482 53.8689 144.126 53.4347 143.77C53.0261 143.389 52.5153 142.728 53.0005 142.829C53.1282 142.906 53.256 143.007 53.3837 143.058C51.6979 141.99 50.472 139.371 50.3698 138.023C50.1655 137.973 50.0122 139.295 49.7057 137.388C49.7568 138.176 49.4758 137.896 49.246 137.845C49.7823 139.829 50.1144 140.922 51.0083 141.863C51.417 142.982 50.4975 141.253 50.9062 142.397C51.2893 142.829 51.749 143.211 52.2343 143.541C53.2049 144.431 51.0083 142.88 52.5663 144.228C52.8473 144.279 54.3542 145.016 55.8356 145.245L55.4014 145.27C56.5508 145.423 58.1088 145.525 57.5724 145.067C58.0066 145.22 58.4408 145.372 58.875 145.474L58.6196 145.169C60.101 145.118 61.1993 145.067 62.3997 144.686C63.5491 144.304 64.9283 143.541 65.9244 141.66C65.2859 142.422 65.6946 141.583 65.8733 141.1C64.8006 142.346 64.8517 142.956 63.5491 144.024C63.2681 143.923 64.9794 141.939 63.4469 143.007C65.337 141.99 65.7201 140.083 66.7417 139.575C66.8695 139.269 66.9461 139.041 67.0227 138.685C67.0738 138.481 67.0738 138.303 67.0738 138.125L67.0482 137.769C67.0227 137.362 66.9972 136.981 66.9461 136.599C66.895 136.116 67.1504 135.481 67.9166 135.252V135.379C67.9933 135.074 68.1721 135.048 68.8106 135.125C69.4491 135.175 70.2409 135.226 71.1093 134.972L69.8833 134.845C69.9344 134.641 70.5474 134.616 71.3647 134.591C71.2625 134.667 71.2626 134.667 71.5435 134.769C71.7989 134.387 74.4297 134.336 74.7617 134.209C73.6634 134.133 72.3097 134.464 71.0071 134.54C71.7223 134.362 71.518 134.031 72.6162 134.108Z" fill="#60BE7B"/>
<path d="M54.533 145.194C54.8395 145.245 55.1204 145.245 55.4014 145.245C55.0693 145.194 54.7373 145.169 54.533 145.194Z" fill="#60BE7B"/>
<path d="M82.2708 135.608C82.6795 136.625 81.9388 135.531 82.092 136.421C82.2708 136.854 82.3985 136.625 82.4751 136.243C82.5518 135.913 82.4751 135.404 82.9349 135.989C82.986 136.803 83.0115 138.379 83.3691 138.863C82.9604 138.303 82.5773 138.761 82.5773 139.091C82.8838 139.625 83.1903 140.973 83.8288 141.863C83.2158 140.693 83.5734 141.126 83.931 141.583C84.3141 142.016 84.7228 142.422 84.1609 141.431C84.4674 141.482 86.102 142.906 86.8427 143.44C86.6895 143.592 86.0509 143.185 85.5656 142.804C84.876 142.829 86.6895 143.923 86.9193 144.355C88.1453 144.711 90.6483 145.042 92.4873 144.66C94.3774 144.279 95.3224 143.389 94.2752 143.389C93.5856 143.465 93.0492 143.796 92.2574 143.897C94.4795 143.77 92.3596 144.406 92.1297 144.558C91.1336 144.508 89.3713 144.558 89.8055 144.279C90.3419 144.228 90.8782 144.152 91.389 144.05C88.9626 144.024 85.9488 143.033 84.4929 140.414C84.1353 139.803 83.8288 139.091 83.65 138.405C83.5734 138.201 83.6245 137.744 83.599 137.362C83.5734 136.981 83.6245 136.574 83.5223 136.091C83.318 135.175 82.6284 134.413 81.8111 134.082C81.4024 133.904 80.9171 133.853 80.534 133.853L79.4102 133.879H80.6873C81.1725 133.904 81.6578 134.031 82.092 134.285C81.8877 134.311 81.479 134.158 80.9937 134.158C80.5085 134.158 79.9976 134.235 79.5124 134.285C79.921 134.489 80.3808 134.667 80.7383 134.896C80.0487 134.845 79.308 134.947 79.3846 134.718C78.4907 134.972 78.8994 135.125 79.4357 135.328C77.5457 135.43 77.2392 135.201 75.7833 135.582C77.3669 135.837 78.031 135.735 78.7461 135.608C79.1037 135.557 79.4868 135.506 79.9976 135.481C80.6106 135.481 80.9937 135.455 81.2747 135.786C81.5557 135.608 81.8877 135.531 82.2708 135.608Z" fill="#60BE7B"/>
<path d="M76.1408 135.099L76.9071 134.794L75.7322 134.947L76.1408 135.099Z" fill="#60BE7B"/>
<path d="M77.3413 133.777C77.3668 133.904 76.9071 133.955 76.9582 134.107C78.4396 134.184 78.2608 134.006 77.3413 133.777Z" fill="#60BE7B"/>
<path d="M88.937 145.016C89.6266 145.118 90.2907 145.169 90.9548 145.169C90.5206 145.118 90.0864 145.042 89.6777 144.94C89.7033 145.042 89.1924 145.042 88.937 145.016Z" fill="#60BE7B"/>
<path d="M98.0297 137.744C97.8765 138.939 97.6721 139.829 97.289 140.643C96.9059 141.456 96.344 142.295 95.1436 142.88C94.1474 143.872 96.0886 143.211 95.7565 143.77C97.0847 142.906 96.4972 142.524 97.2379 141.278C97.8509 140.973 98.183 139.32 98.4384 137.947C98.2596 138.1 98.1063 138.074 98.0297 137.744Z" fill="#60BE7B"/>
<path d="M99.3579 128.818C99.3579 127.623 99.1025 126.403 99.2557 125.462C99.46 125.589 99.5367 126.301 99.4856 127.038C99.9709 126.581 99.4089 125.716 99.741 124.419C99.6899 124.521 99.6133 125.004 99.5111 124.648C99.6133 121.419 99.128 122.843 99.3834 118.647C99.2557 118.037 99.2557 117.452 98.9237 117.554C99.3323 115.189 99.3323 116.384 99.6899 113.536C99.5111 113.638 99.0769 114.579 98.6683 114.553C98.8215 113.562 98.8726 112.773 98.9237 112.188C99.0258 111.604 99.2302 111.197 99.4856 110.866C99.9709 110.281 100.763 109.773 101.912 110.256C101.657 110.205 101.325 110.231 100.737 110.307C100.941 110.536 101.35 110.409 101.886 110.485C102.423 110.561 103.138 110.968 103.317 111.629C103.164 111.655 102.985 111.68 102.831 111.705C102.934 111.909 103.036 112.138 103.061 112.519C103.087 112.951 103.112 113.409 103.164 113.867C103.215 114.808 103.189 115.799 103.036 116.638L102.806 116.257C103.164 119.639 103.01 123.58 103.189 126.454L102.883 128.005C103.24 131.972 103.061 124.063 103.751 126.962C102.883 127.394 104.032 129.022 103.7 131.26C103.342 132.328 103.521 128.971 103.112 130.166C103.572 130.675 103.24 131.361 103.368 132.582C102.934 132.328 103.317 135.099 102.831 134.362C103.061 135.786 103.444 137.184 103.521 138.557C103.189 139.193 102.985 140.363 102.755 141.202C103.393 139.041 103.24 142.041 104.057 139.524C104.389 137.566 104.057 135.074 104.109 132.48C104.083 129.886 104.083 127.14 104.211 124.826C103.623 124.318 104.211 121.826 103.751 121.088C103.93 120.987 104.109 120.631 104.287 120.503C104.16 117.503 103.955 121.215 103.751 120.478C103.674 119.156 104.032 118.113 104.236 118.215C104.262 116.054 104.083 117.961 103.751 116.867L104.389 115.469C104.364 114.63 104.338 113.765 104.313 112.85C104.389 111.96 104.006 110.637 103.036 110.053C102.116 109.391 100.814 109.366 99.8687 109.976C98.8981 110.561 98.4384 111.833 98.5916 112.824C98.6683 116.842 98.6938 120.961 98.515 124.801L98.9237 124.216C98.6938 127.674 99.8176 130.014 98.9492 133.065L99.2812 134.107C99.0769 133.523 98.6683 134.692 98.4128 133.802C98.5405 134.743 98.3873 135.76 98.515 136.727L98.6938 134.997C99.0258 136.193 98.847 137.566 98.4384 137.896C98.3873 139.168 98.6427 138.863 98.9492 138.1C99.2812 137.337 99.3579 136.091 99.5367 135.837C98.796 132.2 100.252 132.175 99.9453 128.691C99.7154 126.581 99.5877 128.971 99.3579 128.818Z" fill="#60BE7B"/>
<path d="M98.2596 133.319C98.2852 133.548 98.3363 133.726 98.3618 133.853C98.3363 133.675 98.3107 133.497 98.2596 133.319Z" fill="#60BE7B"/>
<path d="M102.704 141.202C102.627 141.456 102.5 141.761 102.372 142.143C102.346 142.499 102.5 141.965 102.704 141.202Z" fill="#60BE7B"/>
<path d="M98.4128 137.947H98.4384L98.4128 137.922V137.947Z" fill="#60BE7B"/>
<path d="M98.9492 139.905C99.0769 139.575 99.1536 139.244 99.2302 138.913L99.0003 139.041C99.0258 139.32 99.0003 139.6 98.9492 139.905Z" fill="#60BE7B"/>
<path d="M95.9865 147.813L96.0631 148.017C96.1142 147.915 96.1142 147.864 95.9865 147.813Z" fill="#60BE7B"/>
<path d="M46.0022 110.765C45.8745 108.959 45.7468 106.569 45.4147 105.221L45.6191 105.348C45.5169 104.382 45.1849 101.254 44.8017 103.263L44.9805 103.746C45.287 106.035 44.6229 105.399 44.4952 107.205C44.5974 109.366 45.3892 110.587 45.2104 112.494C45.2359 113.333 45.0316 113.206 44.8528 112.951C44.7762 114.909 45.3892 115.647 45.4658 116.969C43.8567 117.503 45.9 122.843 44.8784 125.691C45.0061 127.496 44.8784 129.886 45.1849 132.175C44.7762 130.954 45.1593 134.336 44.6996 133.828C45.1593 134.158 45.0571 135.786 44.9805 137.413C44.9805 139.142 45.4147 140.719 46.0277 140.77C46.3342 142.295 46.4364 142.321 46.4875 142.397C46.5641 142.473 46.5641 142.626 47.3559 144.253C47.2537 144.33 46.9217 143.796 46.794 143.592C47.3048 145.042 48.3775 145.194 48.8117 146.415C51.0083 148.423 49.3992 146.567 50.9061 147.33C52.1065 148.169 52.6174 148.398 52.9239 148.652C53.2304 148.881 53.3581 149.11 54.1498 149.568C54.533 149.11 56.2953 149.746 57.7767 149.415C57.3936 149.415 55.4014 149.161 56.7295 149.034C58.4408 149.161 59.1304 148.932 59.7434 148.779C60.3564 148.551 60.9694 148.373 62.3741 147.839C63.1915 147.839 62.5018 148.144 61.8888 148.296C61.2759 148.449 60.7906 148.551 62.1953 148.423C60.3308 149.288 58.7473 149.288 57.649 149.771C60.4585 149.873 64.0343 148.907 66.2564 146.796C67.6356 145.804 65.7456 147.559 66.8439 146.771C68.1209 145.881 68.7594 144.813 69.2192 143.821C69.6789 142.829 69.9854 141.888 70.5218 140.795L70.6495 141.329C70.7006 140.795 70.9049 140.134 71.0837 139.371C72.5396 139.32 75.0937 139.549 76.8816 139.371C76.524 139.219 76.2941 139.117 76.6772 138.99C76.6772 139.346 77.3158 139.269 78.2863 139.244C78.6695 140.515 79.64 142.244 80.253 143.668C80.534 143.262 82.2197 145.169 83.5478 146.008C83.9054 146.44 83.7011 146.542 83.5989 146.643C82.6028 145.754 82.1175 145.372 81.5556 145.092C81.0193 144.787 80.4574 144.558 79.7422 143.694C80.3552 144.406 81.0959 145.372 81.9898 146.186C82.8838 147 83.8799 147.61 84.6717 147.813C84.4163 147.839 84.1864 147.839 83.931 147.839C85.0548 148.525 85.6933 148.525 86.2808 148.525C86.8682 148.551 87.4557 148.576 88.6816 149.008L88.3751 149.263C91.0059 149.72 94.0198 149.797 96.6761 148.754C99.3579 147.762 101.325 145.576 102.014 143.541C101.989 143.16 100.431 144.609 100.201 144.508C98.9237 146.415 97.902 147.533 96.1908 148.423L96.0375 147.991C95.8077 148.5 93.56 149.186 94.8626 149.135C93.3302 149.669 93.6366 149.008 91.8488 149.364C91.9765 148.907 93.0237 148.779 92.9981 148.373C92.5128 148.5 92.0276 148.601 91.5167 148.678C91.9765 148.5 90.5972 148.5 91.0825 148.322C88.273 148.729 87.2769 147.737 84.7738 146.72C85.208 146.999 85.6678 147.254 86.1275 147.483C86.0253 147.711 85.1825 147.33 84.544 147.05C84.0842 146.338 83.65 146.16 82.705 145.067C81.7089 144.355 80.8405 144.126 79.9465 142.575C80.253 142.626 79.9465 141.965 79.7167 141.202C79.589 140.82 79.4612 140.439 79.4102 140.083C79.308 139.575 79.2569 139.117 79.3335 138.888C79.2314 138.837 79.1037 138.608 78.976 138.252C78.5928 138.278 78.1331 138.303 77.6478 138.329C77.2392 138.329 76.805 138.354 76.4218 138.354C75.7578 138.354 75.1959 138.379 75.0937 138.507C74.1231 138.608 72.795 138.557 72.8205 138.278C72.9738 138.252 73.2547 138.227 73.5357 138.201L72.5651 138.176C72.6673 138.125 72.6162 138.074 72.7439 138.074C72.5396 138.074 72.3863 138.1 72.2331 138.125C72.0287 138.151 71.8499 138.176 71.6712 138.227C71.3136 138.303 70.9815 138.303 70.1898 138.252C70.1642 138.303 70.1642 138.354 70.1387 138.405C70.1131 138.379 70.1131 138.278 70.1131 138.151C70.3685 138.074 71.0582 138.074 71.6201 138.023C71.0582 138.023 70.5218 137.998 70.0365 138.049C69.9088 138.761 69.7811 139.447 69.6789 140.134C69.6279 140.515 69.5512 140.897 69.4491 141.278C69.2447 142.016 68.9382 142.702 68.3508 143.236C68.4274 143.694 66.7672 145.626 67.4824 145.55C66.8183 145.881 66.7928 145.474 65.3625 146.618C64.6984 147.584 63.5235 147.533 62.2975 148.22C63.8811 147.152 62.2975 148.118 63.5746 147.101C62.4763 147.483 60.8927 148.627 58.6451 148.652C58.4152 148.551 58.4152 148.423 58.1854 148.322C57.3936 148.525 56.423 148.83 55.7079 148.347L55.7589 148.678C54.3031 148.347 52.2853 147.737 51.2381 146.567C50.6251 146.415 50.0377 146.16 49.4502 145.855C48.0966 143.719 46.4108 140.922 45.568 138.888C45.3892 137.922 45.5424 136.472 45.6701 136.498C45.7212 136.727 45.7978 137.083 45.9 137.515C45.9 136.142 46.2576 134.413 45.7468 133.624C45.5935 132.175 46.1043 132.556 46.181 131.488C45.4658 128.564 46.7173 122.894 45.6191 122.004C45.6191 123.199 45.3892 125.462 45.4403 127.75C45.3126 127.14 45.1082 127.623 45.0827 126.784C45.0316 124.496 45.4403 123.326 45.2615 121.037L45.9511 121.317C46.6407 117.401 45.0061 113.841 46.0022 110.765Z" fill="#60BE7B"/>
<path d="M46.3342 139.854C46.3342 139.32 46.3342 138.761 46.3853 138.227L46.1299 138.43C46.232 138.913 46.3342 139.396 46.3342 139.854Z" fill="#60BE7B"/>
<path d="M46.1299 138.43C46.0533 138.125 45.9766 137.82 45.9 137.515C45.9256 137.871 45.9511 138.201 46.0533 138.481L46.1299 138.43Z" fill="#60BE7B"/>
<path d="M45.8745 104.179C45.9001 103.823 45.9511 103.085 45.8745 102.373C45.7979 102.856 45.7723 103.823 45.8745 104.179Z" fill="#60BE7B"/>
<path d="M45.6702 102.272L45.568 103.085L45.6446 103.212L45.6702 102.272Z" fill="#60BE7B"/>
<path d="M82.8582 108.323C83.65 107.942 84.4418 107.51 85.1825 107.077C85.6933 107.154 88.2219 105.628 87.5323 106.365C88.7072 105.272 91.7211 103.772 90.2907 103.874C87.3024 106.111 83.0626 107.891 78.4907 108.501C73.9188 109.137 69.0915 108.654 64.8772 107.357C65.3369 107.459 65.8222 107.484 66.3075 107.561C64.0598 107.128 62.6806 106.289 61.4546 105.526C60.2287 104.764 59.1559 104.052 57.3425 103.365L58.0832 103.212C56.5763 101.865 54.4563 101.254 53.4858 99.1693L53.4602 99.4999C53.0771 99.0676 53.026 98.8134 52.6684 98.3556L52.7195 98.6099C52.1576 98.0759 51.749 97.6182 51.3914 97.0842C51.2126 96.83 51.0849 96.6011 50.8805 96.2451C50.6762 95.9146 50.3186 95.5586 49.9355 95.3043C49.8589 95.0246 50.8295 95.7111 51.1615 96.2451C51.0338 95.8637 50.4463 95.3297 49.9611 95.1771C49.4758 94.872 48.5308 94.5923 47.7645 94.694C46.5385 94.7449 47.7134 94.3889 47.9433 94.338C46.6662 94.4143 45.7212 95.1263 45.2104 95.8891C44.6485 96.6265 44.5974 97.7454 44.6229 98.2031C44.6229 99.3728 44.674 100.441 45.1082 101.712C45.2615 101.966 45.4147 100.771 45.4913 102.094C45.619 100.898 45.619 99.8305 45.5424 98.7625C45.5169 98.2285 45.3892 97.7454 45.4403 97.1605C45.4913 96.6011 45.7468 96.0163 46.181 95.584C46.0022 95.7366 45.8489 95.9146 45.7212 96.0926C46.0022 95.0246 46.6152 94.8212 47.1515 94.7703C47.6879 94.7703 48.5563 94.6431 49.8589 95.3806C49.8589 95.3806 49.8844 95.3806 49.91 95.3806H49.8589C49.5269 95.3043 48.9394 95.0754 48.4797 95.0754C47.9944 95.05 47.5602 95.1771 47.3559 95.3297C48.3009 95.2789 48.9394 95.584 49.4758 95.9654C50.242 96.2706 50.5996 96.9317 51.0338 97.4657C51.4425 97.9997 51.8 98.5591 52.0554 99.3473L51.8767 99.1693C52.1065 99.6016 52.7706 100.161 53.3325 100.644C53.2559 100.39 52.8217 99.8305 52.5918 99.3982C53.1282 99.9068 53.639 99.9322 53.92 100.008C54.2009 100.848 54.7628 100.67 55.5546 101.687C55.6568 102.246 54.5585 101.178 54.0987 100.949C54.5074 101.28 54.9416 101.585 55.3758 101.865C56.4485 102.806 56.1676 103.085 56.6018 103.67C57.7256 104.204 56.1676 103.085 57.1637 103.39C57.6234 104.052 59.207 105.323 61.1737 106.365C63.1404 107.433 65.4902 108.171 67.0226 108.4C65.9754 108.171 66.5629 108.654 65.3114 108.196C65.7456 108.451 67.4058 108.756 67.4824 108.476C69.6023 108.832 72.2331 109.315 74.2508 109.595L73.6889 109.315C75.3235 108.934 77.9543 109.646 80.8405 108.756H80.7894C81.7089 108.501 82.3474 107.688 83.982 107.281C83.5989 107.815 82.6794 108.044 82.8582 108.323Z" fill="#60BE7B"/>
<path d="M91.721 103.111C91.5678 103.416 91.3635 103.696 91.1847 103.975C92.1042 103.441 92.7938 102.221 92.4617 102.17C91.9764 102.678 91.1591 103.111 91.1847 103.34C91.3124 103.314 91.389 103.441 91.721 103.111Z" fill="#60BE7B"/>
<path d="M98.1319 91.0324C98.4639 90.8035 98.3107 90.7018 98.4128 90.5493C96.2163 91.5155 93.7388 92.6089 91.6955 93.5243C90.163 94.16 89.6777 95.8383 90.0608 96.9317C90.3673 98.076 91.5933 98.7625 91.6188 98.9659C92.1297 99.4745 92.5383 99.6525 92.9981 99.8305C93.2279 99.9322 93.4578 100.034 93.7388 100.161C93.9686 100.263 94.0453 100.263 94.2751 100.39C94.2241 100.517 94.1474 100.619 94.0197 100.67C94.1219 100.695 94.0453 100.771 93.9686 100.873C93.8665 101 93.892 100.949 93.6366 101.204C93.1513 101.712 92.7937 102.017 93.4067 101.916C93.5089 101.916 93.9431 101 94.1219 100.975L94.3007 101.102C94.4539 100.848 94.837 100.619 94.4028 100.466C94.5816 100.492 94.786 100.542 95.0158 100.619C94.837 100.339 94.5816 100.136 94.3773 100.034C94.1985 99.9576 93.9431 99.8814 93.6621 99.7797C93.3812 99.7034 93.1002 99.6017 92.7171 99.3728C92.5383 99.2711 92.334 99.1185 92.1041 98.9405C92.002 98.8388 91.8743 98.7371 91.7465 98.6354C91.5678 98.4828 91.389 98.3048 91.1846 98.1268L91.6188 97.7963C89.9842 96.5249 90.7249 94.4652 92.1041 94.0583C92.7937 93.7786 93.1769 93.6769 93.8409 93.4989C93.8409 93.4989 93.7388 93.2446 93.4578 93.4989C93.1002 93.6261 92.5894 93.6006 92.7682 93.3718C95.6033 91.6935 92.4362 93.8549 94.6072 93.1684C97.008 91.7444 101.759 89.3542 103.342 89.1507C102.014 89.3796 103.674 88.2862 105.105 87.7013C105.82 87.5996 104.773 88.1845 104.619 88.4387C105.335 88.1845 105.82 88.1082 106.612 87.7268C105.947 87.8285 105.922 87.6759 106.05 87.4216C106.05 87.3453 106.433 87.0402 107.02 86.9385C107.301 86.8876 107.659 86.8622 108.042 86.9385C108.221 86.9639 108.425 87.0148 108.629 87.1165C108.731 87.1673 108.834 87.1928 108.936 87.2691L109.012 87.3199L109.038 87.3453C108.987 87.3199 108.859 87.2182 108.731 87.1928C108.451 87.0911 108.016 87.0402 107.633 87.1673C107.25 87.2945 106.995 87.5233 106.867 87.7013C107.02 87.4979 107.301 87.2436 107.761 87.1165C108.195 86.9893 108.655 87.1165 108.91 87.2436C109.089 87.3453 109.089 87.3453 109.038 87.3199L108.961 87.2436L108.885 87.1928C108.783 87.1165 108.655 87.0656 108.553 87.0148C108.323 86.9131 108.067 86.8113 107.812 86.7605C107.301 86.6588 106.79 86.6842 106.305 86.8368C106.024 86.9385 105.896 86.9893 105.82 87.0148L105.513 87.1419L104.926 87.4216C104.16 87.803 103.419 88.2099 102.704 88.6167C101.273 89.4559 99.8431 90.3204 98.1319 91.0324Z" fill="#60BE7B"/>
<path d="M98.9492 90.1678C98.5916 90.3458 98.4639 90.4475 98.4128 90.5238C98.8726 90.3204 99.3323 90.117 99.7665 89.939L98.9492 90.1678Z" fill="#60BE7B"/>
<path d="M68.8871 24.36V19.5287H80.4573V24.36H68.8871ZM64.0598 5.49244H85.4379V14.6211H64.0598V5.49244ZM57.8788 66.5706C57.9555 66.0875 57.7511 65.6043 57.3936 65.2992L53.4602 62.0698C58.262 56.7808 64.775 53.526 71.9776 52.814C79.6145 52.0766 87.0981 54.3397 93.0236 59.1965C95.3734 61.1036 97.3657 63.3666 98.9748 65.8586C99.3068 66.7994 100.226 67.486 101.273 67.486H101.35C101.784 67.486 102.244 67.3589 102.653 67.13C103.598 66.5452 104.006 65.4772 103.751 64.4855V46.1519C103.751 41.524 102.857 37.4809 101.069 34.1498C99.6133 31.4036 97.5444 29.1659 94.9903 27.4877C90.6483 24.6397 86.3063 24.3855 86.102 24.3855H85.9742H85.3357V19.5541H85.6167C88.2219 19.5541 90.3418 17.4436 90.3418 14.85V5.33987C90.3418 2.74621 88.2219 0.635681 85.6167 0.635681H63.881C61.2758 0.635681 59.1559 2.74621 59.1559 5.33987V14.85C59.1559 17.4436 61.2758 19.5541 63.881 19.5541H63.9577V24.3855H63.2936H63.1659C62.9871 24.3855 58.6195 24.6397 54.2775 27.4877C51.7234 29.1914 49.6546 31.4036 48.1987 34.1498C46.4108 37.4809 45.5169 41.4985 45.5169 46.1519V49.9152C45.5169 51.2629 46.6151 52.3563 47.9688 52.3563C49.3225 52.3563 50.4208 51.2629 50.4208 49.9152V46.1519C50.4208 39.4134 52.5663 34.5567 56.8061 31.6833C59.82 29.6491 62.936 29.3185 63.3702 29.2931H85.8976C86.3318 29.3185 89.4223 29.6745 92.4617 31.6833C96.7016 34.5567 98.8471 39.4134 98.8471 46.1519V57.8996C98.0042 57.0351 97.1102 56.2214 96.1652 55.4585C92.6405 52.5852 88.6816 50.4746 84.3651 49.2032C80.1764 47.9573 75.8599 47.5504 71.5179 47.9827C67.1759 48.415 62.9871 49.6355 59.1304 51.6443C55.5546 53.5006 52.3619 55.9925 49.6801 58.993L45.6957 55.7128C45.3125 55.3822 44.7762 55.306 44.3164 55.484C43.8311 55.662 43.4991 56.0688 43.4225 56.5519L40.664 72.3936C40.5874 72.8767 40.7662 73.3853 41.1493 73.7159H41.1748C41.5835 74.0464 42.1199 74.1227 42.6052 73.9193L57.1126 67.6894C57.5468 67.5114 57.8788 67.0791 57.9555 66.596L57.8788 66.5706Z" fill="#5FBE7B"/>
<path d="M58.0065 66.4943C58.0065 66.4689 57.981 66.4435 57.981 66.4435L58.0832 66.596C57.981 67.0029 57.7256 67.3334 57.3935 67.5369C57.368 67.6894 57.2658 67.8674 57.1892 68.02C57.7256 67.7403 58.0832 67.1554 58.0832 66.596L57.981 66.418C58.0065 66.4435 58.0065 66.4689 58.0065 66.4943Z" fill="#60BE7B"/>
<path d="M52.9494 68.3505L51.136 69.266C52.5663 69.6728 51.0338 70.0288 54.2009 69.4185C55.1715 68.8591 57.2659 67.5877 56.8317 67.3843C56.1165 67.7403 55.197 68.5285 54.0477 68.8845C54.4053 68.4268 55.5802 67.9691 55.9888 67.4097C54.1243 67.8928 54.9672 68.0963 53.0005 68.8082L52.9494 68.3505Z" fill="#60BE7B"/>
<path d="M51.1104 70.156C51.2126 69.9271 51.3403 69.6983 51.2381 69.5966C51.1359 69.8254 50.3186 70.3848 51.1104 70.156Z" fill="#60BE7B"/>
<path d="M50.0121 70.7153C48.8372 71.1985 49.8844 70.3848 49.7567 70.3848L48.684 71.529L50.0121 70.7153Z" fill="#60BE7B"/>
<path d="M45.1338 72.775C44.955 72.8767 44.7762 72.9784 44.6229 73.0547C44.8528 73.0802 44.955 72.9276 45.1338 72.775Z" fill="#60BE7B"/>
<path d="M42.7584 73.8684C43.3459 73.843 43.8822 73.487 44.6229 73.0547C44.5974 73.0547 44.5719 73.0547 44.5208 73.0547C43.7801 73.1819 44.2398 72.5207 45.3636 72.1393C46.4619 71.5545 46.513 72.0122 47.4069 71.3256L45.9255 71.5799C44.1632 72.419 43.397 73.4107 42.7584 73.8684Z" fill="#60BE7B"/>
<path d="M45.1338 72.775C45.3381 72.6733 45.5424 72.5716 45.7468 72.4699C45.4403 72.5208 45.287 72.6479 45.1338 72.775Z" fill="#60BE7B"/>
<path d="M47.6113 71.7833L48.1732 71.4273L47.9434 71.3256L47.6113 71.7833Z" fill="#60BE7B"/>
<path d="M40.7917 71.2239C41.0982 71.4528 40.8173 72.1393 40.8684 72.8259C40.9705 73.5887 41.8134 73.9193 42.0177 73.6396C41.2515 73.5633 41.0216 72.7242 41.2515 72.3682C41.4558 71.9867 41.6602 71.9359 41.8134 72.0122C41.8134 71.6308 41.89 70.8171 41.9411 70.2322C41.8134 69.5711 41.2259 70.3085 40.7917 71.2239Z" fill="#60BE7B"/>
<path d="M42.8861 67.8166C42.8606 67.6894 42.8606 67.5368 42.8606 67.3843C42.8606 67.5877 42.8606 67.7657 42.8861 67.8166Z" fill="#60BE7B"/>
<path d="M43.5502 58.2302L43.3714 62.6801C43.2437 62.2478 43.0394 62.3749 43.1416 61.3578C42.7329 63.2649 43.0649 63.5955 42.7073 65.172C42.0688 65.5534 43.1671 62.3749 42.503 63.1886C42.3242 64.3075 42.0433 65.9857 42.3498 66.9774L41.6602 68.6811L42.3753 68.1725C42.6818 67.486 42.171 66.6468 42.6563 66.2654C42.9628 66.0874 42.8606 66.8248 42.8351 67.3334C42.9117 66.1637 43.8567 64.282 44.1887 61.9172C44.5719 59.4761 43.5502 59.9084 43.5502 58.2302Z" fill="#60BE7B"/>
<path d="M44.2143 58.1793L44.4952 57.925L44.1632 58.0776L44.2143 58.1793Z" fill="#60BE7B"/>
<path d="M45.8745 56.2214C45.3637 55.84 44.6741 55.8908 44.3676 56.3485C44.2143 56.3994 44.0611 56.3485 43.9078 56.3739C44.0355 56.4502 44.0866 56.9588 44.2399 56.9588C44.7507 56.8062 45.0572 55.9925 46.2576 56.9334C48.633 59.1965 45.9511 57.0605 46.6152 58.2556C46.2576 57.9505 46.1044 57.7725 45.9001 57.5691C45.7468 57.4165 45.5936 57.2385 45.2615 56.9079C45.6702 57.925 47.6624 59.1456 49.8079 60.6459C50.1144 60.2644 50.3698 59.9084 50.5997 59.6287C50.2676 59.9084 50.1144 59.9339 49.7823 60.2644C49.6546 60.1373 49.4758 59.9847 49.246 59.8322L49.7823 60.1881L50.6252 59.0947C50.3187 59.2982 50.0377 59.5016 49.7568 59.705C49.2204 59.1202 48.6585 58.5608 48.0711 58.0268C47.5092 57.5182 46.794 56.9334 45.8745 56.2214Z" fill="#60BE7B"/>
<path d="M43.5758 57.3402C43.6524 56.5519 43.7801 56.3485 43.8823 56.3485C43.6524 56.3994 43.5247 56.6282 43.5758 57.3402Z" fill="#60BE7B"/>
<path d="M51.3914 58.7896C51.2126 58.9422 50.9572 59.2219 50.6251 59.6287C50.8039 59.4762 51.0338 59.2219 51.3914 58.7896Z" fill="#60BE7B"/>
<path d="M49.8333 59.5016L51.2381 58.0776C51.0338 58.1539 50.7528 58.3319 50.574 58.4082C50.3952 58.6116 49.7823 59.349 49.8333 59.5016Z" fill="#60BE7B"/>
<path d="M100.15 51.0341C99.9198 51.1866 99.8176 51.7715 99.8687 53.0175C99.5622 52.8649 99.6388 51.2629 99.4601 50.5001C99.2813 52.1529 99.1025 50.4747 98.8215 50.8815C98.796 52.7632 99.1791 53.3989 99.1025 55.7128C99.0259 55.5348 98.8982 55.484 98.796 55.6111C98.8471 56.2723 98.8981 57.0351 98.9492 57.8488V58.0014C98.9492 58.0522 98.8982 57.9759 98.8726 57.9505L98.6683 57.7979L98.2341 57.4419L97.2891 56.6537C95.9354 55.4331 94.7094 54.5431 93.841 53.7803C92.0531 52.4326 90.5462 51.7206 88.273 50.8561C80.9937 47.4742 72.1054 47.1944 63.8811 49.7372L62.936 50.6781C62.4252 50.5509 61.0715 51.4664 61.1481 51.0341C61.6079 50.9069 61.991 50.6781 62.5018 50.4747C60.5862 50.6527 58.0832 52.5343 56.1676 53.6277C56.4485 53.5769 57.0105 53.8057 56.4996 54.238C56.2698 53.6023 54.4052 55.7128 53.4858 55.5857C51.6979 56.8825 53.7667 56.0434 52.0299 57.4928C52.1065 57.8997 53.7412 56.1705 54.2775 56.1451C53.92 56.8062 52.6684 57.3657 53.0005 57.5945C54.3797 56.4503 56.2442 54.7466 58.594 53.1955C60.9183 51.6189 63.7023 50.2204 66.3841 49.4321L65.9244 49.9152C68.5551 48.8218 73.2547 48.3133 75.4768 48.9998C74.966 48.5676 79.5889 49.4321 79.2569 48.6947C79.9465 48.9744 80.1509 48.9744 81.147 49.2287L81.4535 49.0507C82.8838 49.3813 82.5773 49.661 84.1864 50.0932C83.2413 49.483 84.4162 49.7118 84.9782 49.6101C86.715 50.5509 88.6561 51.7206 89.9842 52.7632C89.9076 52.6106 89.831 52.4326 89.3968 52.0512C90.3674 52.6615 90.3418 52.3055 90.6739 52.3563C91.67 52.8903 91.3379 53.1955 91.1847 53.348C92.8449 54.4923 94.0453 54.3652 95.0925 55.5094L94.8626 54.9246C95.6544 55.4331 96.5994 56.3994 97.5955 57.4165C98.1319 57.9251 98.6427 58.4591 99.2046 58.9931L99.409 59.1965C99.4601 59.2473 99.5878 59.3999 99.5622 59.2473V58.6879C99.5622 58.2811 99.5367 57.8742 99.5367 57.4674C99.7665 56.9842 99.8687 57.7725 99.9453 59.1202C99.9709 59.4508 99.9709 59.8068 99.9964 60.1882V60.3153L99.8943 60.239L99.7155 60.0865L99.3579 59.7813C98.8726 59.3745 98.4384 59.0185 98.1319 58.8151C98.4639 59.1711 98.9748 59.6796 99.4601 60.1882C99.7155 60.4425 99.9709 60.6967 100.175 60.9256L100.328 61.1036V61.0273C100.354 60.951 100.354 60.9002 100.38 60.8493C100.15 58.4336 99.8176 55.1026 99.5878 53.6532C100.15 54.8737 100.124 51.8478 100.15 51.0341Z" fill="#60BE7B"/>
<path d="M100.38 60.8493C100.405 61.0273 100.405 61.2053 100.431 61.3579C100.456 61.5359 100.303 61.3324 100.252 61.3324C100.124 61.2562 99.9964 61.1799 99.9198 61.129C100.073 61.2562 100.226 61.3833 100.405 61.5104C100.431 61.5359 100.507 61.6121 100.533 61.5867V61.3833C100.533 61.2561 100.533 61.1036 100.533 60.9256C100.482 60.773 100.431 60.773 100.38 60.8493Z" fill="#60BE7B"/>
<path d="M100.15 51.034C100.175 51.034 100.175 50.9832 100.201 50.9832C100.175 50.7543 100.175 50.8306 100.15 51.034Z" fill="#60BE7B"/>
<path d="M93.5856 53.6277C93.6622 53.6785 93.7388 53.7548 93.8154 53.8311C93.9176 53.9074 94.0198 53.9837 94.1219 54.06L93.5856 53.6277Z" fill="#60BE7B"/>
<path d="M91.2869 53.9837C90.9804 53.6531 90.4951 53.2463 89.9587 52.814C90.0354 53.0429 90.1375 53.1954 91.2869 53.9837Z" fill="#60BE7B"/>
<path d="M78.3119 49.2541C77.8776 49.2795 78.1075 49.4067 77.801 49.4829C78.6694 49.5592 79.0015 49.4829 78.3119 49.2541Z" fill="#60BE7B"/>
<path d="M100.482 56.0434L100.38 53.2463L100.277 52.5851L100.38 53.8057L100.482 56.0434Z" fill="#60BE7B"/>
<path d="M81.76 29.4202C82.5518 29.6236 83.5479 29.6491 84.5695 29.6491C85.6167 29.5982 86.5873 29.6236 87.5578 29.9288C89.2947 30.2848 89.4479 30.2085 89.6267 30.0305C89.7799 29.9033 89.9332 29.6745 91.5423 30.4628L90.6228 30.9205C92.1553 31.607 93.7899 32.853 95.0925 34.3533C96.3951 35.8535 97.3402 37.5318 98.1319 38.8032C98.1064 39.0829 98.183 39.6931 97.7999 38.8794C98.4384 41.0408 99.3835 39.7186 99.5878 42.8971C98.6938 40.0746 99.2302 43.8888 98.5917 43.1513L98.4895 42.7191C98.796 44.6007 99.0259 47.169 99.0003 48.4404C99.2047 48.4912 99.5367 47.3724 99.5622 49.0761C99.6133 48.3895 99.8432 48.6692 100.073 48.7201C99.8432 46.9656 99.9964 45.9993 99.6644 44.9059C99.8943 43.8888 99.7921 45.5924 100.022 44.5499C99.8943 44.0668 99.7921 43.5836 99.6389 43.1005C99.5878 42.0071 100.048 44.1939 99.9198 42.4902C99.741 42.3122 99.3835 40.99 99.077 39.6931L99.2813 40.0491C98.9493 39.0829 98.5661 37.6843 98.2852 38.2946C98.3107 37.8623 98.2852 37.43 98.2596 36.9978L98.0553 37.3283C97.5445 36.0315 97.238 35.0907 96.7272 34.099C96.2163 33.1327 95.4501 32.0647 93.8155 31.0985C94.4795 31.7087 93.7133 31.3527 93.3046 31.1239C94.3774 32.2173 94.9648 32.1156 95.9865 33.1836C95.9098 33.5141 93.9432 32.0647 95.0159 33.4124C93.9943 31.7596 92.3341 31.2002 92.002 30.1322C89.9076 29.0134 88.9626 29.0896 86.715 28.4539L86.7916 28.3522C86.6639 28.4539 86.4851 28.4794 86.2552 28.4794C86.0254 28.4539 85.7189 28.4285 85.3868 28.4031C84.7738 28.3522 84.0076 28.3014 83.1903 28.5557L84.3652 28.6828C84.3141 28.8862 83.7267 28.9117 82.9349 28.9371C83.037 28.8608 83.037 28.8608 82.7816 28.7591C82.5262 29.1405 80.0232 29.1914 79.7167 29.3185C80.7639 29.3948 82.0665 29.0642 83.2925 28.9879C82.6028 29.1659 82.8072 29.4965 81.76 29.4202Z" fill="#60BE7B"/>
<path d="M99.5623 40.7611L99.2302 40.0746C99.3324 40.3543 99.4346 40.6086 99.5623 40.7611Z" fill="#60BE7B"/>
<path d="M71.8244 28.7591C70.4196 28.6828 72.2075 28.4286 70.9049 28.276C69.4746 28.5303 72.5396 28.81 71.1603 29.1914C70.2919 28.9625 68.9127 29.344 68.3253 29.3694C68.9638 29.1405 68.6062 28.6574 68.3508 28.5557C67.8144 28.7083 66.614 28.454 65.669 28.4286C67.9421 28.7337 63.7789 28.6066 65.7967 28.9625C65.6434 29.2931 63.5235 29.3694 62.6551 29.344C62.6551 29.1151 63.4213 29.0388 63.9832 29.0643C64.2131 28.8608 63.8811 28.81 63.3703 28.7591C62.8339 28.7591 62.2975 28.81 62.0676 28.6574C60.9949 29.1151 58.8239 29.9542 57.3936 31.0731C55.9633 32.1665 55.2737 33.1836 56.2698 32.8785C56.9083 32.5733 57.2659 32.0648 57.9044 31.6325C55.9888 32.6242 57.6235 31.2256 57.7256 30.9968C58.6196 30.6154 60.0499 29.7762 59.82 30.2339C59.4114 30.5137 59.0027 30.8188 58.6196 31.1239C59.6923 30.6408 60.9183 30.2085 62.2464 29.9542C62.9361 29.8017 63.498 29.7508 64.2642 29.7762C64.9794 29.7762 65.72 29.7762 66.4607 29.7762C69.4235 29.7254 72.4885 29.7 75.2725 29.6491L72.8461 29.6237C73.127 29.3694 74.2764 29.3694 75.1448 29.2423L73.9699 28.6574C74.6595 28.7083 75.3236 28.6065 75.2725 28.8354C76.1154 28.5811 75.7322 28.4286 75.2214 28.2251C77.0348 28.1234 77.3158 28.3523 78.7206 27.9708C75.7322 27.4877 76.192 28.3777 72.7439 27.9454L71.8244 28.7591Z" fill="#60BE7B"/>
<path d="M78.3885 28.4285L77.6733 28.7337L78.7716 28.5811L78.3885 28.4285Z" fill="#60BE7B"/>
<path d="M77.2391 29.7508C77.2136 29.6236 77.6478 29.5728 77.6222 29.4202C76.2175 29.3439 76.3963 29.5219 77.2391 29.7508Z" fill="#60BE7B"/>
<path d="M60.2031 29.1405C59.6156 29.3694 59.0282 29.6236 58.4918 29.9288C58.8749 29.7762 59.2836 29.6745 59.6667 29.5728C59.5646 29.4456 59.9988 29.2422 60.2031 29.1405Z" fill="#60BE7B"/>
<path d="M52.3875 38.6506C53.2303 36.4638 53.5113 35.2941 55.6057 33.5904C56.3208 32.3953 54.6351 33.4887 54.8139 32.853C53.7412 33.8193 54.3542 34.1499 53.6135 35.345C53.0005 35.5993 52.5663 37.1504 52.0299 38.3963C52.2342 38.2438 52.3619 38.3201 52.3875 38.6506Z" fill="#60BE7B"/>
<path d="M49.91 46.8384C49.91 47.9573 50.1654 49.1524 50.0122 50.0169C49.8079 49.9407 49.7312 49.2287 49.7823 48.5421C49.2459 48.8981 49.9866 50.0424 49.3737 50.5764C49.4503 50.5509 49.6291 50.2712 49.6546 50.5509C49.1182 51.4918 48.684 51.568 48.352 51.7715C48.1477 51.8478 47.8923 51.8986 47.5347 51.8223C47.1771 51.746 46.6152 51.4663 46.3342 50.7289C46.0022 50.3729 46.0277 49.8644 45.6957 49.9661C46.1044 47.703 46.1044 48.8472 46.4619 46.1264C46.2832 46.2282 45.849 47.1181 45.4403 47.0927C46.0277 43.2785 45.4658 43.1514 46.2321 40.7866C46.2065 41.0663 46.2576 41.3968 46.1044 42.0325C46.6918 41.8037 46.2832 39.9983 46.7684 38.7269L47.2026 38.9812C47.407 37.7861 47.8667 35.6501 48.9139 34.455L48.9395 34.8364C49.9611 31.8867 52.7196 29.2931 54.8906 27.7928C55.3503 27.6148 55.8101 27.4623 56.2698 27.3351C57.8023 26.3689 56.985 26.7249 56.0144 27.1063C55.0694 27.5131 53.9966 28.0725 54.9927 27.03C55.7845 27.5894 56.5252 25.7586 58.7473 25.3772C59.7945 25.3517 56.7806 26.2926 57.9811 26.2672C58.262 25.6823 58.9772 25.7332 60.0244 25.3009C59.8967 25.7332 62.3231 24.8432 61.7356 25.4535C62.1443 25.3009 62.3231 25.1737 62.9616 25.0466L64.4175 24.7923C64.3664 24.1058 64.2131 23.3684 64.111 22.7835C64.3664 22.1224 64.3153 21.0035 64.2642 19.961C64.2642 21.2324 64.111 21.029 63.9322 20.9273C63.7534 20.8764 63.5491 20.7238 63.4469 21.9444C63.4724 22.7581 63.5491 23.2666 63.5235 23.9786C63.1915 24.0041 62.8594 24.0041 62.5274 24.0549C62.1443 24.1058 61.6079 24.2075 61.1482 24.3092C60.1776 24.538 59.207 24.8178 58.262 25.1737C56.3464 25.8603 54.533 26.8266 53.0261 27.8691C52.975 28.5811 50.804 29.7508 50.7018 30.6408C50.4975 30.5899 50.1399 30.7425 49.9356 30.7171C48.2243 33.0819 50.5996 30.3611 50.3187 31.0731C49.578 32.0647 48.7607 32.7513 48.633 32.5224C47.5091 34.3024 48.633 32.8022 48.3775 33.8701C47.9689 34.1498 47.5858 34.455 47.1771 34.7855C45.849 37.8115 45.2104 41.6003 45.236 45.4653C45.2615 46.4316 45.2615 47.3979 45.287 48.3641C45.3637 49.2795 45.1083 50.3475 45.6957 51.2883C46.2321 52.1783 47.3048 52.7123 48.352 52.5852C49.3992 52.4835 50.3187 51.7206 50.6507 50.7543C50.4464 50.9069 50.2676 51.0341 50.0633 51.1103C50.5486 50.4238 50.3953 49.6101 50.3442 48.8981C50.2931 48.1861 50.2165 47.4996 50.1399 46.8384C49.9866 45.5162 49.9611 44.1685 50.5741 42.7445C50.4975 42.3885 50.4464 42.058 50.3698 41.702C50.4719 42.2868 51.0594 41.2443 51.1871 42.1342C51.1615 41.2443 51.5447 40.3543 51.6724 39.4389C51.468 39.9474 51.2637 40.456 51.0849 40.9646C50.9572 39.7694 51.5957 38.5743 52.0044 38.3455C52.5408 35.9044 50.7784 39.4389 50.4208 39.9729C50.3698 41.8037 50.1143 42.6174 49.7823 43.4819C49.4758 44.3211 49.1182 45.2365 49.297 46.9147C49.5524 48.9998 49.6801 46.7113 49.91 46.8384Z" fill="#60BE7B"/>
<path d="M51.2126 42.6428C51.2126 42.4394 51.2126 42.2614 51.187 42.1342C51.187 42.3122 51.187 42.4648 51.2126 42.6428Z" fill="#60BE7B"/>
<path d="M64.2642 19.961C64.2131 19.783 64.3408 19.4016 64.1364 19.2744C64.0598 19.2744 63.9321 19.2744 63.7789 19.2744C63.4724 19.3253 63.6512 19.3253 64.0854 19.3253C64.3152 19.2998 64.1875 19.7067 64.2642 19.961Z" fill="#60BE7B"/>
<path d="M51.8 36.4384L51.3914 37.3029L51.6212 37.2266L51.8 36.4384Z" fill="#60BE7B"/>
<path d="M59.9477 13.1463H59.7434C59.82 13.2226 59.8711 13.248 59.9477 13.1463Z" fill="#60BE7B"/>
<path d="M75.0936 1.55109H74.5317C74.685 1.57651 74.8893 1.55109 75.0936 1.55109Z" fill="#60BE7B"/>
<path d="M102.142 37.9895C102.78 39.566 103.291 41.7782 103.725 42.9988L103.496 42.8971C103.725 43.7871 104.134 46.7876 104.441 44.8296L104.236 44.3719C103.751 42.1851 104.466 42.7445 104.364 40.9645C103.879 38.854 102.806 37.9132 102.346 36.1587C102.014 35.4212 102.244 35.4467 102.5 35.5992C101.81 33.8447 100.865 33.4887 100.124 32.497C100.661 31.8613 99.7411 30.6662 98.3874 29.5474C97.0337 28.4285 95.3224 27.4623 94.3518 26.3689C92.7683 25.606 90.6228 24.538 88.3496 24.3855C89.6267 24.2075 86.2042 23.9532 86.9193 23.6481C86.7661 23.8769 86.383 23.9278 85.8466 23.9532C85.77 23.4192 85.8721 22.7072 85.8977 21.6901C85.9232 21.1561 85.9232 20.8764 85.8977 20.6221C85.8977 20.3678 85.7444 20.0118 85.7955 19.8847C85.8721 19.8084 85.8977 19.7067 85.8466 19.605C87.3025 19.6304 87.3535 19.4016 87.4302 19.4016C87.4812 19.2999 87.7111 19.427 89.167 18.359C89.2691 18.4607 88.8094 18.8676 88.6051 19.0202C89.9843 18.2319 89.7544 17.1639 90.5973 16.2485C90.9804 14.7737 90.6994 14.6465 90.6228 14.6974C90.4951 14.7228 90.3163 14.8754 90.1631 14.0871C90.2908 11.2392 90.4696 12.0529 90.9549 10.4763C90.393 10.222 90.6739 8.51837 90.3674 7.14526C90.3419 7.47582 90.2397 9.43378 90.0098 8.16238C90.0609 6.50956 89.9587 5.823 89.831 5.23815C89.6523 4.70417 89.5245 4.14475 88.7583 3.12763C88.5795 2.41564 89.0393 2.89878 89.2947 3.40734C89.499 3.9159 89.7033 4.32275 89.3458 3.12763C90.5973 4.57703 90.1631 6.30613 90.6994 7.29783C90.6994 6.6367 90.725 5.95014 90.6994 5.21273C90.6739 4.44989 90.444 3.66162 90.0354 2.97506C89.2436 1.60195 87.6856 0.711964 86.2297 0.686536C84.5951 0.483112 87.1237 0.457684 85.7955 0.305116C82.9094 0.0254072 81.4024 0.915388 79.1292 0.661108L79.6145 0.355972C78.2098 0.788248 74.5829 0.25426 71.9266 0.50854C72.2586 0.661108 72.4885 0.76282 72.1309 0.88996C72.182 0.101691 68.453 1.29681 65.8478 0.737392C65.9499 0.991673 65.3625 1.1951 64.5707 1.32224C63.6768 1.37309 62.9361 1.52566 62.3231 1.8308C61.8378 1.90708 61.8378 1.70366 61.7612 1.57652C62.885 1.16967 63.4214 1.06796 63.9833 0.839104C64.5452 0.63568 65.056 0.355972 66.0777 0.25426C65.2093 0.406828 64.1365 0.279688 62.9361 0.483112C61.7612 0.711964 60.7651 1.42395 60.4075 2.11051C60.433 1.88165 60.5097 1.6528 60.5863 1.39852C59.5646 2.26307 59.5391 2.97506 59.488 3.50905C59.4625 4.09389 59.4114 4.57703 59.2581 5.823L58.9772 5.56872C59.0027 8.0861 58.875 10.8069 58.8239 13.426C58.8239 14.0871 58.7728 14.6974 58.8495 15.3839C58.9006 16.0705 59.1304 16.7062 59.4625 17.2402C60.101 18.359 61.1993 19.071 62.1954 19.2744C62.3997 19.2236 62.0677 18.893 61.7867 18.5116C61.5058 18.1302 61.3014 17.6979 61.3525 17.5962C59.7434 16.4265 59.488 14.9517 59.2837 13.1208L59.7434 13.1463C59.4369 12.714 59.2326 10.5018 59.0027 11.7223C58.7728 10.2475 59.4114 10.6035 59.1304 8.89979C59.6157 9.02693 59.6668 10.0441 60.0755 10.0695L59.82 8.56923C60.0244 9.05236 59.9988 7.67925 60.1776 8.13695C59.8967 6.78927 59.9222 5.69586 60.0755 4.90759C60.2798 4.11932 60.6629 3.43276 61.4036 2.56821C61.0716 2.82249 60.7651 3.15306 60.5352 3.50905C60.2798 3.38191 60.714 2.72078 61.1226 2.26307C61.8633 2.13593 62.1443 1.80537 63.3192 1.72909C63.7534 1.57652 64.2898 1.42395 64.8517 1.27138C65.4136 1.11881 66.001 1.0171 66.8694 1.0171C66.5119 1.52566 69.7301 1.29681 70.0366 1.70366C70.3941 1.1951 73.3569 1.52566 73.6123 1.24595C74.5318 1.14424 75.8089 1.1951 75.7833 1.47481C75.6556 1.50023 75.3747 1.52566 75.0937 1.55109L76.0132 1.57652C75.9366 1.62737 75.9621 1.67823 75.86 1.67823C76.6773 1.70366 76.6773 1.32224 77.75 1.57652C77.75 1.70366 77.1626 1.70366 76.7028 1.75451C78.8738 1.8308 80.534 0.991673 82.3219 1.44938C82.6795 1.22052 85.2081 1.1951 84.6462 0.661108C85.2847 0.915388 85.1825 1.14424 86.7405 1.34767C87.8133 1.22052 88.3752 2.21222 89.2436 3.02592C87.8388 2.08508 89.167 3.00049 87.8899 2.41564C88.5284 3.07677 89.9588 4.01761 89.6778 6.2807C89.5756 6.50956 89.4479 6.48413 89.3202 6.71298C89.4735 7.52668 89.8566 8.44209 89.4735 9.23036L89.8055 9.15407C89.6523 10.6289 89.7544 12.6886 89.3968 14.2651C89.6012 14.9262 89.8055 15.3839 89.8566 15.9942C89.3713 16.7825 88.8094 17.5453 88.0687 18.1302C87.7111 18.4353 87.3025 18.6896 86.8427 18.893C86.4085 19.1219 85.6167 19.2236 85.2336 19.3253C85.1825 19.8847 85.4124 20.5713 85.5146 20.9527C85.489 21.8427 85.3869 23.1904 85.2336 23.2412C85.1825 23.0124 85.1059 22.6309 85.0037 22.2241C85.0037 22.8344 84.8505 24.0803 84.9016 24.894C85.6934 24.894 86.5107 24.8686 86.8938 24.6906C88.273 24.7415 87.8133 25.1992 88.7583 25.4789C90.1631 25.4534 92.0531 26.2671 93.5345 27.208C95.0415 28.1234 96.1653 29.1151 96.8549 28.9879C96.012 28.2251 94.3774 26.7757 92.3341 25.9366C92.9215 26.0637 92.5895 25.6823 93.3557 26.0129C95.348 27.03 96.0631 27.9962 97.7999 29.3439L97.1358 29.6745C98.2341 31.1748 99.4346 32.3444 100.431 33.6921C101.427 35.0398 102.219 36.4638 102.142 37.9895Z" fill="#60BE7B"/>
<path d="M84.9015 19.5796L84.7227 20.5204C84.6717 20.8764 84.595 21.2578 84.5439 21.4613L84.8504 21.2833C84.7994 20.7747 84.7994 20.0119 84.9015 19.5796Z" fill="#60BE7B"/>
<path d="M84.8505 21.2833C84.876 21.6138 84.9271 21.919 85.0037 22.1987C85.0037 21.8427 85.0037 21.5121 84.9271 21.2324L84.8505 21.2833Z" fill="#60BE7B"/>
<path d="M103.317 44.0413C103.317 44.3973 103.291 45.0584 103.368 45.745C103.47 45.2873 103.47 44.3719 103.317 44.0413Z" fill="#60BE7B"/>
<path d="M103.598 45.8467L103.7 45.0584L103.598 44.9567V45.8467Z" fill="#60BE7B"/>
<path d="M83.2158 54.416C82.3729 54.3143 81.5301 54.2126 80.7128 54.1872C80.3552 53.8312 77.5201 53.704 78.4651 53.4752C76.9582 53.7295 73.7911 53.2209 74.966 53.9583C78.5417 53.8312 82.8071 54.6703 86.766 56.6028C90.7249 58.5099 94.3007 61.4087 97.0592 64.5618L95.9864 63.6972C96.7782 64.4347 97.3657 65.1466 97.7999 65.8332C97.902 65.9858 98.0042 66.1383 98.0808 66.2909C98.1064 66.3418 98.183 66.5706 98.3362 66.8249C98.5917 67.2826 98.9492 67.6894 99.3579 67.9692C100.201 68.5794 101.248 68.7574 102.27 68.4269C103.24 68.1471 104.185 67.1555 104.236 66.0112C104.364 66.2655 104.441 66.5452 104.492 66.8503C104.9 66.2146 105.028 65.4264 104.9 64.7144C104.824 64.2821 104.773 64.4347 104.747 64.0787L104.619 63.3412C104.466 62.3496 104.364 61.3579 104.67 60.2899L104.441 60.5187C104.441 59.9593 104.543 59.7305 104.543 59.1456L104.441 59.3745C104.211 57.8742 104.236 56.9588 104.39 55.484C104.568 55.3823 104.466 56.1705 104.517 56.6282C104.696 55.9417 104.313 54.7974 104.313 53.6532C104.466 52.7378 104.568 53.6532 104.67 53.7803C104.415 50.3475 105.028 48.771 104.16 46.3553C104.006 46.1265 103.853 47.2453 103.777 45.9993C103.496 48.2624 103.853 50.0932 104.083 52.1783V51.5935C104.926 53.2209 103.879 52.8395 104.262 55.484C103.93 54.7974 103.93 53.6532 103.725 53.17C103.087 56.2214 104.211 57.5182 103.393 59.527L103.368 59.2982C103.291 59.7559 103.444 60.5442 103.521 61.2307C103.623 61.0019 103.674 60.3407 103.777 59.883C103.853 60.5696 104.236 60.9256 104.39 61.1544C104.006 61.9427 104.568 62.197 104.39 63.443C104.032 63.8752 104.083 62.4004 103.879 61.9427L104.109 63.443C104.134 64.1549 104.006 64.4347 103.955 64.6889C103.879 64.9686 103.725 65.1466 103.598 65.4263C103.572 66.596 103.955 64.7652 104.083 65.8078C103.879 66.1892 103.496 66.8757 102.678 67.2826C101.886 67.6894 100.686 67.7657 99.7665 67.0792C99.3068 66.774 98.9748 66.2146 98.7704 65.7823C98.4639 65.3501 98.1319 64.9178 97.8254 64.5109C97.1613 63.7227 96.5228 63.0361 95.9609 62.553C96.6761 63.2904 96.4973 62.5784 97.238 63.5701C97.0336 63.1633 95.8332 62.0698 95.6289 62.2478C94.0964 60.8493 92.2319 59.1711 90.8016 57.8488L91.0825 58.4336C89.55 57.8996 87.8899 55.9163 85.1059 55.128L85.1569 55.1534C84.2885 54.8737 83.369 55.2043 81.8366 54.6703C82.3474 54.4669 83.2158 54.7211 83.2158 54.416Z" fill="#60BE7B"/>
<path d="M73.4336 53.7803L74.302 53.3988C73.2803 53.3225 72.0799 53.9328 72.3097 54.1362C72.9483 54.0091 73.8422 54.1108 73.9444 53.9074C73.8678 53.8565 73.8678 53.704 73.4336 53.7803Z" fill="#60BE7B"/>
<path d="M56.6017 60.5696C56.3974 60.8747 56.5507 60.9256 56.4996 61.0781C59.2836 58.3573 63.6001 56.0942 65.1836 55.9417C66.4351 55.6111 66.4862 55.0008 68.0698 54.4414C68.3507 54.4923 68.6062 54.5685 68.8871 54.6448C69.7044 54.1617 72.4629 54.2634 71.4412 53.7803C71.3135 53.7294 70.7005 54.1617 69.9343 54.1871L70.0109 53.9583C69.4235 54.06 68.8616 54.238 68.2741 54.3651L68.7594 53.9837C66.2819 54.2126 67.278 55.0771 64.4429 55.8654L64.2641 55.3568C62.3741 56.0942 61.5823 56.7299 59.8966 57.3656C59.8966 57.3656 60.0243 57.5945 60.2542 57.3402C60.5606 57.1876 61.0459 57.1622 60.9182 57.4165C58.594 59.3236 61.1226 56.8825 59.2325 57.8233C58.2364 58.6879 56.8572 59.9339 55.6567 61.1798C55.4779 61.3578 55.3247 61.5358 55.1714 61.6884C55.1204 61.8155 54.7883 61.9427 54.9416 62.0444C55.1459 62.2478 55.2991 62.4512 55.3758 62.6547C55.2225 62.3241 55.4779 62.3241 55.6823 62.3241C56.142 62.553 56.8316 63.0107 57.3935 63.4938C57.8022 64.0786 56.8316 63.4429 56.5507 63.4175C57.0615 63.9261 57.3424 64.3075 58.0321 64.7906C57.6745 64.2821 57.8022 64.1803 58.0576 64.1803C58.1342 64.1549 58.5173 64.3075 58.926 64.7652C59.1048 64.994 59.2836 65.2738 59.4113 65.6043C59.4624 65.7823 59.5135 65.9603 59.539 66.1637L59.5645 66.4689V66.5452V66.596V66.418C59.5645 66.1383 59.4368 65.8586 59.2836 65.6297C59.4624 65.8586 59.5901 66.1892 59.5901 66.4943C59.5901 66.6723 59.5901 66.4434 59.5901 66.4434C59.5901 66.3163 59.5901 66.2146 59.5901 66.0874C59.5645 65.8586 59.539 65.6043 59.4624 65.3755C59.3091 64.9178 59.0537 64.4855 58.7217 64.1295C58.5173 63.9261 58.4407 63.8752 58.3641 63.8244L58.1087 63.6209L57.6234 63.2395L56.6528 62.553L56.142 62.2224L55.8866 62.0698H55.8355C55.7333 62.0698 55.2225 61.9935 55.4269 61.7901C55.4779 61.663 55.4779 61.6121 55.6823 61.4341C55.9632 61.129 56.2697 60.8493 56.6017 60.5696Z" fill="#60BE7B"/>
<path d="M56.142 61.5867C56.3719 61.3324 56.4485 61.2053 56.4741 61.1036C56.2442 61.3324 55.9888 61.5613 55.7589 61.7901H55.8355C55.9122 61.7647 56.0654 61.6376 56.142 61.5867Z" fill="#60BE7B"/>
<path d="M64.2131 5.49249L64.111 5.64506L64.443 5.69592L64.2131 5.49249Z" fill="#60BE7B"/>
<path d="M63.0382 6.28078L63.1659 6.56048C64.1365 6.40792 63.8555 6.63677 64.5196 6.17906C64.3664 6.0265 64.0343 5.6705 63.6767 5.72136C63.7278 5.82307 64.0854 6.00107 63.9577 6.17906C63.7023 6.10278 63.7278 5.92478 63.3702 5.82307C63.0893 6.10278 63.6001 6.00107 63.4724 6.3062L63.0382 6.28078Z" fill="#60BE7B"/>
<path d="M63.9832 6.63677C63.8299 6.61134 63.6511 6.56048 63.5234 6.58591C63.7022 6.61134 63.881 6.73848 63.9832 6.63677Z" fill="#60BE7B"/>
<path d="M64.0854 6.78931C64.0599 6.9673 63.7278 6.78931 63.6768 6.81473L64.2897 7.01816L64.0854 6.78931Z" fill="#60BE7B"/>
<path d="M64.0343 7.55212L64.0854 7.62841C64.1876 7.60298 64.1109 7.57755 64.0343 7.55212Z" fill="#60BE7B"/>
<path d="M64.1109 7.93356C64.3153 7.85727 64.1876 7.75556 64.0854 7.65385C64.0598 7.65385 64.0598 7.65385 64.0343 7.65385C63.8555 7.75556 63.4213 7.65385 63.549 7.50128C63.4724 7.32328 63.9066 7.32328 63.6001 7.17072L63.2681 7.39957C63.3191 7.65385 63.9321 7.83184 64.1109 7.93356Z" fill="#60BE7B"/>
<path d="M64.0343 7.55215C64.0343 7.52672 64.0088 7.5013 64.0088 7.45044C63.9322 7.5013 63.9833 7.52672 64.0343 7.55215Z" fill="#60BE7B"/>
<path d="M64.0854 7.17071L64.0087 7.09442H63.83L64.0854 7.17071Z" fill="#60BE7B"/>
<path d="M64.1621 8.54386C63.5491 8.51843 64.2131 8.11159 63.7534 8.06073C63.7789 8.31501 63.3447 8.49301 63.0127 8.44215L63.1915 8.72186C63.4214 8.79814 63.8811 8.69643 64.1621 8.54386Z" fill="#60BE7B"/>
<path d="M62.655 9.07782C62.7061 9.10325 62.7317 9.12868 62.7572 9.1541C62.7317 9.10325 62.7061 9.07782 62.655 9.07782Z" fill="#60BE7B"/>
<path d="M63.6767 10.451L63.0637 9.81527C63.2425 9.86613 63.4468 9.8407 63.4979 9.99327C63.5745 9.71356 63.1914 9.68813 63.2681 9.43385C63.83 9.35757 63.3191 9.8407 63.8044 9.71356C63.7789 9.56099 63.7533 9.30671 63.2936 9.17957L63.6767 8.92529L63.0637 9.02701C62.9105 9.12872 63.549 9.23043 63.1403 9.28129C62.8594 9.33214 62.8083 9.23043 62.7572 9.15415C62.8849 9.33214 62.2975 9.61185 62.3741 9.94241C62.4252 10.2984 63.3702 10.2221 63.6767 10.451Z" fill="#60BE7B"/>
<path d="M63.0126 10.4764L62.7572 10.5272L63.0892 10.5018L63.0126 10.4764Z" fill="#60BE7B"/>
<path d="M63.8044 11.1629L63.4213 10.8323C63.4724 10.8069 63.6001 10.7815 63.7023 10.7561C63.5745 10.7561 63.3191 10.6798 63.217 10.7052C62.6551 10.8578 63.3958 11.1121 63.4724 11.29C63.2425 11.7478 63.1914 11.2646 62.6806 11.4426C62.7061 11.3155 62.8338 11.3155 62.8594 11.1375C62.2464 11.4172 62.8083 11.7732 62.9616 11.9512C63.0126 11.9003 63.1914 11.8749 63.1403 11.7732L63.3191 11.9512C63.7533 11.7732 63.8555 11.5952 63.8044 11.1629Z" fill="#60BE7B"/>
<path d="M63.7789 10.5781C63.83 10.7052 63.7789 10.7561 63.7023 10.7561C63.8555 10.7306 63.9577 10.6798 63.7789 10.5781Z" fill="#60BE7B"/>
<path d="M62.9615 12.0529C63.0126 12.0275 62.9871 12.002 62.9615 11.9512C62.936 11.9766 62.936 12.002 62.9615 12.0529Z" fill="#60BE7B"/>
<path d="M63.6257 11.8749L63.5746 12.1038L63.83 12.0021C63.8045 11.9766 63.7534 11.8495 63.6257 11.8749Z" fill="#60BE7B"/>
<path d="M70.1897 15.8925C70.1641 15.6637 70.0875 15.562 69.9087 15.6128C69.9343 15.3077 70.1641 15.384 70.2663 15.206C70.0364 15.028 70.2663 14.85 70.2152 14.5703C69.9598 14.5448 69.8321 14.9263 69.5512 14.85C69.5767 14.7737 69.5512 14.6465 69.5256 14.5448C69.168 14.7228 68.6061 15.0025 68.2741 14.7483C67.9421 14.6465 67.7122 14.7737 67.3546 14.9008C66.8182 14.8245 66.3074 14.85 65.72 14.8754C65.107 14.9008 64.4174 14.9263 63.8555 14.8245C63.881 14.6974 63.9065 14.5448 63.9065 14.4177C63.7277 14.5194 63.5234 14.5957 63.3446 14.6465C63.6256 14.3668 63.3446 14.2397 63.7277 14.0617C63.6511 14.1888 63.7277 14.2397 63.7277 14.316C64.2386 13.7057 63.6767 13.5277 63.8555 13.07C63.7277 13.1209 63.2425 13.2734 63.1403 13.1209C63.7788 13.07 63.1403 12.6377 63.8555 12.5614C64.0342 12.2309 63.2935 12.5614 63.3957 12.2309C63.0381 12.2055 63.2425 12.536 62.936 12.6123C62.6295 12.5106 63.0637 12.3072 62.6806 12.3326C62.6295 12.4597 62.655 12.6123 62.7061 12.7903C62.7572 12.9683 62.8338 13.4006 62.936 13.6803C63.1403 14.316 63.3702 14.7737 63.4979 15.206H63.549L63.3446 15.3331L63.1403 15.4602L63.1658 15.5111C64.0342 15.2822 64.7494 15.2822 65.1836 15.8417C65.1581 15.5111 66.1797 16.0451 66.0009 15.2568C66.1031 15.4348 66.1286 15.4094 66.2819 15.4602L66.333 15.206C66.5373 15.206 66.5117 15.5874 66.7672 15.562C66.5884 15.2568 66.7672 15.1551 66.8438 14.9008C67.1247 15.2568 67.4568 15.5874 67.7122 15.8925C67.6866 15.7654 67.6611 15.6637 67.5845 15.5111C67.7633 15.6382 67.7377 15.3077 67.7633 15.206C67.9165 15.1805 67.9165 15.6128 67.891 15.8162C68.1975 15.9434 68.3252 15.1297 68.555 15.4094L68.4784 15.0788C68.7849 15.0025 69.0403 15.3585 69.3979 15.2568C69.5512 15.7145 69.117 15.6637 68.9637 15.8671C69.0403 15.9688 69.168 15.9942 69.2191 16.1468C69.3724 15.9179 69.6022 15.5874 69.781 15.3585C69.6278 15.8925 70.062 15.8671 70.1897 15.8925Z" fill="#60BE7B"/>
<path d="M69.2447 16.1214C69.1937 16.1977 69.1681 16.2485 69.1426 16.2994C69.1681 16.274 69.2192 16.2485 69.2447 16.274C69.2447 16.2231 69.2447 16.1723 69.2447 16.1214Z" fill="#60BE7B"/>
<path d="M70.1897 15.8925V15.9434C70.2152 15.9179 70.2152 15.8925 70.1897 15.8925Z" fill="#60BE7B"/>
<path d="M68.223 14.6974L68.2741 14.7483H68.3252L68.223 14.6974Z" fill="#60BE7B"/>
<path d="M67.9677 16.2485C67.8911 16.1214 67.8144 16.0197 67.7123 15.8925C67.7378 16.0451 67.7634 16.1468 67.9677 16.2485Z" fill="#60BE7B"/>
<path d="M65.8733 15.8671C65.7966 15.918 65.8477 16.0197 65.7966 16.1468C65.9499 16.1468 65.9754 16.0451 65.8733 15.8671Z" fill="#60BE7B"/>
<path d="M69.6023 16.2231L69.8577 16.1214L69.9599 16.0197L69.6023 16.2231Z" fill="#60BE7B"/>
<path d="M74.8637 14.4685C74.6339 14.0617 74.3018 14.316 74.0209 14.2397C73.51 14.4431 73.9443 15.1297 73.459 15.1805L73.5356 14.3414C73.0503 14.3923 72.3352 14.2143 71.9265 14.9517C71.901 14.85 71.7988 14.7228 71.9265 14.5957C71.5945 14.6211 71.7477 15.7908 71.3135 15.5111C71.7222 15.0025 71.1858 15.028 71.288 14.494L71.339 14.4431C71.0581 14.494 70.7005 14.7737 70.5217 14.7483C70.5217 14.9517 70.675 15.2822 70.4196 15.3077C70.5217 15.3585 70.4706 15.5874 70.4706 15.8162C70.7261 15.5874 70.8538 15.7145 71.007 15.4348C71.1603 15.7145 70.9048 15.5365 71.0581 15.7908L71.2624 15.5365C71.4157 15.6128 71.1092 15.8162 71.339 15.8671C71.3646 15.7145 71.5434 15.5365 71.7477 15.562L71.6966 15.6637C71.8243 15.562 72.0287 15.6891 71.9776 15.2314L72.1308 15.6891L72.1053 15.384C72.4884 15.5111 72.6416 16.2485 73.1269 15.8671C72.9992 15.7654 73.1269 15.6128 73.178 15.5365C72.9737 15.3077 72.9226 15.7654 72.7183 15.8162C72.6927 15.5111 73.0248 15.1297 72.7949 14.9262C73.0503 15.3077 73.2802 14.8754 73.4079 15.6637C73.7144 15.7145 73.8421 15.3331 74.1486 15.5111V15.6382C74.1997 15.1297 74.404 15.8671 74.6339 15.3331L74.4551 15.206C74.4551 15.0025 74.5572 14.9771 74.6594 14.9517C74.6339 15.028 74.6339 15.028 74.6849 15.1297C74.7105 14.7483 75.0681 14.6974 75.1192 14.5703C74.9659 14.494 74.7871 14.8245 74.6083 14.9008C74.736 14.7228 74.7105 14.3923 74.8637 14.4685Z" fill="#60BE7B"/>
<path d="M71.6456 15.8417L71.7478 15.6637C71.6967 15.6891 71.6456 15.74 71.6456 15.8417Z" fill="#60BE7B"/>
<path d="M76.2941 15.1297C76.4984 15.206 76.243 15.4603 76.4218 15.6128C76.6261 15.3586 76.1919 15.0789 76.3962 14.6974C76.524 14.9263 76.7283 14.5449 76.8049 14.5194C76.7027 14.7483 76.7538 15.2314 76.8049 15.3331C76.8815 15.1806 77.0603 15.4348 77.188 15.4603C76.856 15.1297 77.4434 15.2568 77.1625 14.9263C77.188 14.6211 77.4945 14.4177 77.6222 14.6466C77.6222 14.85 77.5201 14.8246 77.4434 14.8246C77.3668 15.2314 77.6478 15.0534 77.6989 15.4094C78.0054 14.85 79.0015 14.8754 78.7205 13.9854C78.6183 13.8075 78.5162 14.0363 78.414 14.0617C78.746 14.2397 78.414 14.5449 78.3885 14.6974C78.2608 14.5449 78.0053 14.85 78.082 14.5194L78.3118 14.1889C77.6222 14.0109 76.6517 14.0872 75.8599 14.2143L76.2175 14.2397C76.1664 14.494 76.0131 14.494 75.8854 14.6211L76.0642 15.206C75.8854 15.1551 75.7833 15.2568 75.8088 15.028C75.6811 15.2823 75.7322 15.4348 75.8088 15.6383C75.5534 15.74 75.5023 15.5111 75.298 15.8926C75.7322 16.3757 75.6556 15.4857 76.1664 15.918L76.2941 15.1297Z" fill="#60BE7B"/>
<path d="M75.3491 15.4349L75.4512 15.1552L75.298 15.2823L75.3491 15.4349Z" fill="#60BE7B"/>
<path d="M75.5279 14.138C75.5279 14.2651 75.4768 14.316 75.4768 14.4686C75.6556 14.5448 75.6301 14.3669 75.5279 14.138Z" fill="#60BE7B"/>
<path d="M77.9287 15.4348L78.1841 15.3331L78.0053 15.206C78.0309 15.3586 77.9543 15.4094 77.9287 15.4348Z" fill="#60BE7B"/>
<path d="M79.7422 13.8837C79.3846 13.9346 79.2313 14.2143 78.8227 13.9092C78.6183 14.2906 78.9248 14.6466 78.8227 15.0026C79.027 15.0788 79.0015 14.4177 79.2058 14.2906C79.2824 14.6211 79.5123 14.2143 79.7166 14.2906C79.7166 14.1634 79.7166 14.0109 79.7422 13.8837Z" fill="#60BE7B"/>
<path d="M80.9938 15.1551C81.147 15.1551 81.3258 14.9008 81.4535 15.0534C81.428 15.2568 81.3258 15.3331 81.2492 15.2823C81.3002 15.7654 81.428 15.206 81.6067 15.5365C81.5812 15.4857 81.5301 15.4094 81.5812 15.3077C82.0154 15.4094 81.8366 14.9263 82.3985 15.1805C82.4751 15.0534 82.5518 15.0534 82.5518 14.7228C82.8838 15.1297 82.705 15.1297 83.1137 15.4857C83.0881 15.3077 82.9604 14.8754 82.9604 14.4686C83.5223 15.028 83.4968 14.3923 83.9055 14.7991C83.8544 14.8246 83.8033 14.9263 83.7011 14.8754C83.7522 15.4348 84.0587 14.7737 84.263 14.8754L84.3652 15.3585C84.6462 15.2823 84.8505 14.9771 85.3869 15.3077L85.4635 15.5365C85.6678 15.384 85.9232 15.3331 86.1786 15.2823C86.1275 14.85 86.1531 14.4686 86.0509 14.1126C86.1531 14.0617 86.2553 14.0109 86.3574 13.96C85.9743 13.1209 86.1786 14.672 85.4635 13.782C86.3319 14.1126 85.1825 13.3497 85.5146 13.1972C85.8721 13.0955 85.6933 13.604 86.102 13.5023C85.6423 13.2989 85.9743 13.248 85.8466 13.0192C86.2808 13.07 85.8977 12.6123 86.383 12.7395L85.5912 12.1546C85.8211 12.0529 85.7955 11.9003 85.7189 11.7732C85.7189 12.0783 85.0804 11.6969 84.876 12.0275C85.0804 12.5615 85.2336 13.3752 85.0037 13.7312C85.5912 14.2143 85.0037 14.0363 85.4635 14.5703C85.3613 14.494 85.2591 14.4177 85.1825 14.316L84.9016 14.0617C84.6972 14.1889 85.2847 14.3923 85.4124 14.5957C85.2847 14.672 84.8505 14.316 84.6972 14.1126C84.4418 14.0871 84.7994 14.2651 84.9016 14.5957C84.6972 14.3923 84.4929 14.1634 84.3397 13.96C83.9821 14.1634 82.5007 14.5957 81.5046 14.2143L81.5812 14.6211C81.0959 14.3923 80.7894 15.5111 80.3552 14.6466L80.202 14.9771C80.2786 14.7737 80.1254 14.3669 80.2531 14.1126C80.1254 14.2397 79.9976 14.0871 79.8444 14.2143L80.0743 14.3923C79.8955 14.7228 79.7167 14.5194 79.6656 14.2143C79.308 14.6211 79.8699 14.9008 79.9466 15.2314C80.4574 14.494 80.4574 15.9434 80.9171 15.6383C81.3002 15.5111 80.9682 15.384 80.9938 15.1551Z" fill="#60BE7B"/>
<path d="M80.3807 14.0617C80.3552 14.0871 80.3296 14.138 80.3041 14.1634C80.3296 14.1634 80.3552 14.1126 80.3807 14.0617Z" fill="#60BE7B"/>
<path d="M85.7444 11.7986C85.7444 11.7732 85.7444 11.7223 85.7188 11.6715C85.6167 11.6206 85.6678 11.6969 85.7444 11.7986Z" fill="#60BE7B"/>
<path d="M79.4868 15.2822L79.6145 15.3077L79.589 15.1042L79.4868 15.2822Z" fill="#60BE7B"/>
<path d="M86.2297 10.4001H86.0254C86.102 10.4255 86.1531 10.4255 86.2297 10.4001Z" fill="#60BE7B"/>
<path d="M86.3574 6.3316V6.45874C86.383 6.40789 86.383 6.35703 86.3574 6.3316Z" fill="#60BE7B"/>
<path d="M77.4945 5.00935C77.2391 5.13649 76.9071 5.26363 76.7283 5.59419L76.7538 5.39077C76.6261 5.49248 76.1919 5.82304 76.4729 6.20446L76.5495 6.02647C76.856 5.72133 76.7794 6.38246 77.0348 6.5096C77.3413 6.40789 77.4945 5.61962 77.7499 5.79761C77.8776 5.77219 77.8521 5.97561 77.801 6.15361C78.0564 6.20446 78.1586 5.59419 78.3374 5.51791C78.414 7.11987 79.1547 5.08563 79.5378 6.10275C79.7932 5.97561 80.0997 6.10275 80.4318 5.79761C80.253 6.20446 80.7382 5.82304 80.6616 6.28075C80.7382 5.36534 81.5556 6.6876 81.6067 5.51791C82.0409 5.84847 81.6322 5.44162 82.1175 5.72133C82.1175 5.84847 82.0409 5.84847 81.9898 5.8739C82.1941 6.10275 82.2963 5.36534 82.4495 5.89933C82.8326 5.97561 82.5261 5.59419 82.756 5.26363C83.1647 5.39077 83.0625 5.56876 83.2668 6.05189C83.2924 5.49248 83.5478 5.77219 83.7521 5.46705C83.701 5.44162 83.4201 5.33991 83.5989 5.11106C84.1352 5.21277 84.0842 4.75506 84.7993 4.6025C84.8249 5.21277 84.1863 4.62792 84.5184 5.11106C84.0842 5.39077 83.8798 5.36534 83.7266 5.82304C84.0331 5.84847 84.3651 5.74676 84.9781 5.49248C85.1313 5.56876 84.6461 5.77219 84.7738 5.84847C84.7993 5.95018 84.927 5.89933 85.1313 5.79761C85.3101 5.77219 85.6166 5.72133 85.4378 6.05189L85.1313 6.20446C85.5655 6.12818 85.0292 6.84016 85.2846 7.06902C85.4378 7.01816 85.54 6.9673 85.6677 7.01816C84.8759 7.06902 86.0764 7.55215 85.5145 7.93357C86.0253 7.90814 86.3062 8.26413 86.3573 8.49299C86.1785 8.5947 85.9742 8.56927 85.8465 8.56927C86.153 8.18785 85.2846 8.21328 85.0547 7.90814C85.3101 8.16242 85.0547 8.56927 85.4123 8.77269L85.0036 8.69641C84.9526 9.02698 85.8976 9.00155 85.5145 9.35754L85.2335 9.33211C85.2846 10.0441 84.7482 10.9087 85.4123 11.4681C85.6422 11.5189 86.2041 11.2392 86.4084 11.2138C86.2041 10.8578 85.7699 10.6798 85.5656 10.4001H86.0253C85.7188 10.3492 85.5145 10.0187 85.2846 10.1967C85.0547 9.99324 85.6933 10.0441 85.4378 9.78982C85.9231 9.81524 85.9742 9.96781 86.3573 9.96781L86.1275 9.76439C86.3062 9.84067 86.2807 9.63725 86.485 9.6881C85.8976 9.28126 86.7149 9.12869 86.4595 8.72184L86.3829 8.95069C86.1275 8.95069 86.153 8.82355 86.0764 8.72184C86.4595 8.62013 86.4084 8.54384 86.5617 8.34042C86.3573 8.16242 85.872 8.06071 85.872 7.80643C86.3829 7.85729 86.153 7.39958 86.5617 7.34872C86.0508 7.37415 86.3829 6.6876 86.1019 6.71302C85.9997 6.56046 86.0508 6.3316 86.3318 6.20446C86.3573 6.22989 86.4084 6.25532 86.4084 6.3316L86.434 6.12818C86.485 6.12818 86.5361 6.10275 86.5361 6.12818C86.5617 5.92475 86.1785 6.10275 86.434 5.74676C86.5617 5.67047 86.5617 5.79761 86.6127 5.89933C86.6894 5.26363 85.8465 5.59419 86.3062 4.85678C86.2296 4.90763 86.1785 4.8822 86.1275 4.85678C85.8465 4.98392 85.54 5.11106 85.2846 5.46705C85.3612 5.28905 85.7443 4.85678 85.3357 4.93306C84.8759 5.39077 85.0547 4.78049 84.6205 5.0602C85.1824 4.57707 84.6461 4.93306 85.2335 4.47536C85.0036 4.29736 84.3651 4.8822 84.0075 4.80592C83.982 4.70421 83.982 4.57707 83.9564 4.44993C83.7266 4.6025 83.65 4.98392 83.5223 4.6025L83.5478 4.93306C83.3435 4.78049 83.037 4.8822 82.8071 4.52621L82.5517 5.13649C82.1941 4.50078 81.7088 5.0602 81.4279 5.61962C81.3002 5.59419 81.0958 5.49248 81.0958 5.33991C81.1214 5.28905 81.1724 5.21277 81.2491 5.11106C80.9681 5.08563 80.7382 4.75506 80.6361 5.2382C80.4318 5.39077 80.4828 4.8822 80.3551 4.80592C79.9465 5.51791 79.1802 4.27193 79.0525 5.36534C79.2058 5.36534 79.5378 5.59419 79.8443 5.54333C79.7677 5.67047 79.8188 5.8739 79.7166 5.89933C79.4101 5.95018 79.2313 5.54333 78.9248 5.72133L78.9504 5.03477C78.414 4.37364 77.9287 6.00104 77.4945 5.00935Z" fill="#60BE7B"/>
<path d="M81.5045 5.03476L81.2747 4.67877L81.3002 4.98391C81.3768 4.93305 81.4534 4.93305 81.5045 5.03476Z" fill="#60BE7B"/>
<path d="M81.3002 4.98389C81.2491 5.00931 81.198 5.06017 81.1725 5.13645C81.2236 5.13645 81.2746 5.13645 81.3002 5.06017V4.98389Z" fill="#60BE7B"/>
<path d="M76.6006 5.13648C76.5495 5.11105 76.4474 5.0602 76.3452 5.13648C76.4218 5.21277 76.5495 5.23819 76.6006 5.13648Z" fill="#60BE7B"/>
<path d="M76.3452 5.3399L76.4474 5.44162L76.4729 5.36533L76.3452 5.3399Z" fill="#60BE7B"/>
<path d="M69.7044 5.92478L69.3213 6.35706C69.2702 6.15363 68.836 6.40791 68.9893 6.02649C68.7594 6.53506 68.2997 6.05192 68.4785 6.76391C69.5512 6.50963 71.0326 6.9419 72.2586 6.3062L72.0542 6.58591C72.6928 6.02649 72.9482 7.22161 73.459 6.07735L73.3824 6.6622C73.6889 6.81476 73.9443 5.82307 74.2508 6.43334L74.2252 6.20449C74.3019 6.20449 74.3274 6.3062 74.4296 6.3062L74.404 6.20449C74.6084 5.97564 74.7616 6.00107 74.9659 6.15364C74.9915 6.33163 74.8638 6.22992 74.8127 6.28078C74.9149 6.45877 75.0681 6.07735 75.2469 6.07735C75.3746 6.22992 75.2469 6.33163 75.2214 6.43334C75.7066 6.17906 75.9365 6.78934 76.2941 5.92478C76.3196 5.77221 76.1664 5.61965 76.3452 5.54336C76.0131 5.26365 75.7577 5.61965 75.4512 5.8485H75.5279C75.298 6.68762 75.3491 5.64507 74.9659 6.02649C75.0681 5.69593 75.2214 5.69593 75.298 5.49251C74.8638 4.85681 74.6595 5.97564 74.3785 5.16194L74.404 5.13651C74.3274 5.06023 74.2252 5.2128 74.1231 5.28908C74.1486 5.39079 74.2508 5.44165 74.3274 5.54336C74.2252 5.61965 74.1742 6.00107 74.1486 6.15364C74.0465 5.77221 73.9954 6.33163 73.8166 6.15364C73.7655 5.79764 73.9698 5.8485 74.0209 5.64507L73.8166 5.87393C73.6123 5.89935 73.6123 5.49251 73.5356 5.31451C73.3824 5.56879 73.6378 5.49251 73.5101 5.87393C73.3058 5.44165 72.3863 5.56879 71.9776 5.89935C72.1309 5.8485 72.0287 5.51793 72.2075 5.59422C72.1309 5.51793 71.901 5.69593 71.901 5.95021C71.5945 6.17906 71.2369 6.02649 70.956 5.77221L71.0326 6.02649C70.8027 6.45877 70.4451 5.69593 70.0365 5.95021C69.9088 6.00107 69.7811 6.6622 69.5512 6.50963C69.5767 6.22992 69.7044 6.25535 69.7044 5.92478Z" fill="#60BE7B"/>
<path d="M68.2486 6.53503L68.3763 6.15361C68.2231 6.07732 68.0443 6.53503 68.0698 6.78931C68.172 6.71302 68.2997 6.86559 68.3253 6.66217C68.2997 6.63674 68.2997 6.48417 68.2486 6.53503Z" fill="#60BE7B"/>
<path d="M65.4901 6.6113C65.439 6.68758 65.439 6.84015 65.4135 6.94186C66.001 6.891 66.7161 6.73844 66.946 7.04357C67.1503 7.14529 67.1758 6.58587 67.4313 6.45873L67.5334 6.84015C67.6611 6.6113 68.0698 7.01814 67.9421 6.40787C67.9165 6.35702 67.8144 6.68758 67.7122 6.58587L67.7378 6.38244L67.4823 6.45873L67.559 6.20445C67.2014 5.82303 67.3036 6.99272 66.8694 6.76386V6.22988C66.5629 6.20445 66.4352 6.38244 66.1542 6.05188C66.1542 6.05188 66.1542 6.30616 66.2053 6.20445C66.2564 6.22988 66.3074 6.4333 66.2819 6.6113C65.8477 7.01814 66.3585 6.30616 66.052 6.07731C65.6689 6.4333 64.9538 6.73844 64.7494 6.30616C64.9282 6.63672 64.6728 6.96729 64.4429 6.94186C64.3408 6.71301 64.494 6.58587 64.5451 6.4333C64.4429 6.38244 64.3663 6.22988 64.2641 6.33159C64.3919 6.6113 64.2897 7.01814 64.0598 7.19614C64.5706 7.52671 64.9793 6.53501 65.4901 6.6113Z" fill="#60BE7B"/>
<path d="M65.3369 7.04358C65.388 7.01815 65.4136 6.9673 65.4136 6.91644H65.2092L65.3369 7.04358Z" fill="#60BE7B"/>
<path d="M68.8872 24.2075L68.9638 24.3092L68.9894 24.0041L68.8872 24.2075Z" fill="#60BE7B"/>
<path d="M69.2959 25.3772L69.4491 25.25C69.347 24.3092 69.4747 24.5889 69.2448 23.9023C69.1682 24.0549 68.9638 24.3855 68.9894 24.7415C69.0405 24.6906 69.1426 24.3346 69.2448 24.4618C69.1937 24.7415 69.1171 24.6906 69.066 25.0466C69.2192 25.3263 69.1682 24.8178 69.3214 24.9449L69.2959 25.3772Z" fill="#60BE7B"/>
<path d="M69.5002 24.4363C69.4746 24.5889 69.4746 24.7669 69.4746 24.894C69.4746 24.7415 69.5512 24.5381 69.5002 24.4363Z" fill="#60BE7B"/>
<path d="M69.5768 24.3346C69.6789 24.3601 69.5768 24.6906 69.5768 24.7415L69.6789 24.1312L69.5768 24.3346Z" fill="#60BE7B"/>
<path d="M69.9855 24.3855L70.0366 24.3346C70.0366 24.2329 70.011 24.3092 69.9855 24.3855Z" fill="#60BE7B"/>
<path d="M70.1898 24.3092C70.1387 24.1058 70.0876 24.2329 70.0365 24.3346C70.0365 24.3601 70.0365 24.3601 70.0365 24.3855C70.0876 24.5635 70.0365 24.9958 69.9599 24.8686C69.8578 24.9703 69.8833 24.5381 69.7811 24.8178L69.8833 25.1738C70.0621 25.0975 70.1387 24.4872 70.1898 24.3092Z" fill="#60BE7B"/>
<path d="M69.9854 24.3855C69.9599 24.4109 69.9599 24.4109 69.9343 24.4109C69.9599 24.4872 69.9854 24.4364 69.9854 24.3855Z" fill="#60BE7B"/>
<path d="M69.7812 24.3347L69.7301 24.4109L69.7556 24.6144L69.7812 24.3347Z" fill="#60BE7B"/>
<path d="M70.5218 24.2838C70.4962 24.8686 70.2919 24.2329 70.2664 24.6906C70.3941 24.6652 70.4962 25.0974 70.4707 25.428L70.6239 25.25C70.675 24.9957 70.5984 24.5635 70.5218 24.2838Z" fill="#60BE7B"/>
<path d="M70.8284 25.7586C70.8284 25.7077 70.8539 25.6823 70.8539 25.6569C70.8284 25.6823 70.8284 25.7077 70.8284 25.7586Z" fill="#60BE7B"/>
<path d="M71.569 24.7415L71.237 25.3263C71.2625 25.1483 71.2625 24.9449 71.3391 24.8941C71.1859 24.8178 71.1603 25.1992 71.0326 25.1229C71.0071 24.5635 71.2625 25.0721 71.1859 24.5889C71.1093 24.6144 70.956 24.6398 70.9049 25.0975L70.7772 24.7161L70.8283 25.3263C70.8794 25.5043 70.9305 24.8432 70.9816 25.2755C71.0071 25.5298 70.9305 25.5806 70.9049 25.6315C71.0071 25.5043 71.1603 26.0892 71.3391 26.0129C71.4668 25.9875 71.4413 25.0466 71.569 24.7415Z" fill="#60BE7B"/>
<path d="M71.569 25.4026L71.5945 25.6569L71.569 25.3264V25.4026Z" fill="#60BE7B"/>
<path d="M71.9522 24.6398L71.7734 25.0212C71.7479 24.9703 71.7479 24.8432 71.7223 24.7415C71.7223 24.8686 71.6968 25.1229 71.6968 25.2246C71.7734 25.7586 71.9266 25.0466 72.0033 24.9449C72.2587 25.1992 72.0033 25.2246 72.0799 25.7586C72.0033 25.7332 72.0033 25.606 71.9011 25.5806C72.0544 26.1909 72.2587 25.6315 72.3609 25.4789C72.3353 25.428 72.3353 25.25 72.2587 25.3009L72.3609 25.1229C72.2842 24.6652 72.1821 24.5635 71.9522 24.6398Z" fill="#60BE7B"/>
<path d="M71.6201 24.6398C71.6967 24.5889 71.7223 24.6398 71.7223 24.7161C71.6967 24.5635 71.6967 24.4618 71.6201 24.6398Z" fill="#60BE7B"/>
<path d="M72.4119 25.4535C72.4119 25.428 72.3864 25.428 72.3608 25.4789C72.3864 25.4789 72.3864 25.4789 72.4119 25.4535Z" fill="#60BE7B"/>
<path d="M72.3352 24.7924L72.4629 24.8432L72.4118 24.5889C72.3863 24.6398 72.3097 24.6652 72.3352 24.7924Z" fill="#60BE7B"/>
<path d="M77.1115 25.6314C77.1115 25.4026 77.0604 25.3009 76.9582 25.3517C76.9582 25.0466 77.0859 25.1229 77.1626 24.9449C77.0349 24.7669 77.1626 24.5889 77.137 24.3092C76.9838 24.2838 76.9327 24.6652 76.7794 24.5889C76.7794 24.5126 76.7794 24.3855 76.7539 24.2838C76.5751 24.4617 76.2686 24.7415 76.0898 24.4872C75.8855 24.36 75.7578 24.5126 75.579 24.6397C74.966 24.4872 74.3019 24.7923 73.6379 24.5126L73.5357 25.0974C73.5102 24.8177 73.3824 25.0974 73.3824 24.716C73.408 24.7923 73.4591 24.716 73.5102 24.716C73.3569 24.2075 73.127 24.7669 72.9482 24.5889C72.9738 24.6906 72.9993 25.1992 72.9482 25.2754C72.9738 24.6397 72.7439 25.2754 72.6928 24.5635C72.514 24.3855 72.6928 25.1229 72.514 25.0212C72.4885 25.4026 72.6928 25.1992 72.7184 25.4789C72.6673 25.784 72.5651 25.3517 72.5651 25.7331C72.8461 25.9111 73.3824 25.1483 73.8167 24.9195L73.7656 25.2754C73.9954 25.0212 74.353 25.0212 74.5318 25.5806C74.4807 25.25 74.8638 25.7586 74.8383 24.9957C74.8894 25.1737 74.9149 25.1483 74.9915 25.1992L75.0171 24.9449C75.1448 24.9449 75.1193 25.3263 75.247 25.3009C75.1703 24.9703 75.247 24.8686 75.298 24.6143C75.4768 24.9703 75.6301 25.3009 75.7578 25.606C75.7578 25.5043 75.7322 25.3772 75.6812 25.2246C75.7833 25.3517 75.7578 25.0212 75.7833 24.9195C75.86 24.894 75.86 25.3263 75.86 25.5297C76.0132 25.6569 76.0898 24.8432 76.2175 25.1229L76.1664 24.7923C76.3452 24.716 76.4729 25.072 76.6517 24.9703C76.7284 25.428 76.4985 25.3772 76.4219 25.5806C76.4474 25.6823 76.5496 25.7077 76.5751 25.8603C76.6517 25.6314 76.7794 25.3009 76.8816 25.072C76.805 25.6314 77.0349 25.606 77.1115 25.6314Z" fill="#60BE7B"/>
<path d="M76.5751 25.8603C76.5496 25.9366 76.524 25.9874 76.524 26.0383C76.5496 26.0129 76.5496 25.9874 76.5751 26.0129C76.6007 25.962 76.6007 25.9111 76.5751 25.8603Z" fill="#60BE7B"/>
<path d="M76.0387 24.4363L76.0642 24.4872H76.0898L76.0387 24.4363Z" fill="#60BE7B"/>
<path d="M75.9111 25.9875C75.8855 25.8603 75.8344 25.7586 75.7578 25.6315C75.7834 25.784 75.7834 25.8858 75.9111 25.9875Z" fill="#60BE7B"/>
<path d="M74.7872 25.606C74.7616 25.6569 74.7616 25.7586 74.7361 25.8857C74.8127 25.8857 74.8382 25.784 74.7872 25.606Z" fill="#60BE7B"/>
<path d="M76.7794 25.962L76.9327 25.8603L76.9837 25.7586L76.7794 25.962Z" fill="#60BE7B"/>
<path d="M79.5378 24.2075C79.2314 23.8006 79.2058 24.0549 79.0526 23.9786C78.8738 24.1821 79.2314 24.8686 78.8993 24.9195L78.8738 24.0804C78.6694 24.1312 78.2608 23.9532 78.0309 24.6906C78.0054 24.5889 77.9543 24.4618 78.0309 24.3346C77.8521 24.3601 77.9288 25.5298 77.6989 25.25C77.9288 24.7415 77.6223 24.7669 77.6989 24.2329L77.7244 24.1821C77.5712 24.2329 77.3668 24.5126 77.2902 24.4872C77.2902 24.6906 77.3668 25.0212 77.2391 25.0466C77.2902 25.0975 77.2647 25.3263 77.2647 25.5552C77.3924 25.3263 77.469 25.4535 77.5712 25.1738C77.6478 25.4535 77.5201 25.2755 77.5967 25.5298L77.6989 25.2755C77.7755 25.3518 77.6223 25.5552 77.75 25.606C77.7755 25.4535 77.8777 25.2755 77.9543 25.3009L77.9288 25.4026C78.0054 25.3009 78.1075 25.428 78.082 24.9703L78.1586 25.428L78.1331 25.1229C78.3374 25.25 78.414 25.9875 78.695 25.606C78.6439 25.5043 78.6694 25.3518 78.7461 25.2755C78.6184 25.0466 78.5928 25.5043 78.4907 25.5552C78.4651 25.25 78.6439 24.8686 78.5162 24.6652C78.6439 25.0466 78.7716 24.6143 78.9249 25.4026C79.2058 25.4535 79.2314 25.0721 79.5123 25.25L79.5378 25.3772C79.4101 24.8686 79.8443 25.606 79.8188 25.072L79.64 24.9449C79.5634 24.7415 79.6145 24.7161 79.6656 24.6906C79.6911 24.7669 79.6911 24.7669 79.7677 24.8686C79.6145 24.4872 79.7933 24.4364 79.7422 24.3092C79.64 24.2329 79.6911 24.5635 79.6145 24.6398C79.6145 24.4363 79.4357 24.1312 79.5378 24.2075Z" fill="#60BE7B"/>
<path d="M77.8777 25.5806L77.9288 25.4026C77.9032 25.428 77.9032 25.4789 77.8777 25.5806Z" fill="#60BE7B"/>
<path d="M80.8661 24.8686C81.0959 24.9449 81.1215 25.1738 81.4535 25.3518C81.3258 25.1483 81.1981 25.0721 81.0704 24.9703C80.8661 24.7924 80.6617 24.6398 80.5085 24.4109C80.534 24.4364 80.5596 24.4364 80.5596 24.4618C80.6873 24.5126 80.3552 24.1058 80.3552 24.0549C80.5851 24.3092 81.0704 24.7161 81.1726 24.7924C81.0193 24.6144 81.2747 24.6906 81.3003 24.5889C80.9938 24.5889 81.1215 24.2584 80.7639 24.2075C80.4574 23.9532 80.2531 23.6481 80.483 23.7498C80.6873 23.8769 80.6617 23.9278 80.6617 23.9787C81.0704 24.3092 80.8916 24.0041 81.2492 24.1821C80.6873 23.5718 80.7128 23.0632 79.8189 22.9615C79.6401 22.9361 79.87 23.0378 79.8955 23.0887C80.0743 23.0378 80.3808 23.2667 80.534 23.3684C80.3808 23.3684 80.6873 23.6481 80.3552 23.4447L80.0232 23.1904C79.8955 23.343 79.8955 23.5464 79.9721 23.8769C79.921 23.9024 79.8444 23.9278 79.7933 23.9532L79.9466 23.9787C80.1509 24.2329 80.0998 24.2329 80.1254 24.3601L80.7384 24.9449C80.6362 24.8941 80.6362 24.9958 80.4574 24.7669C80.5851 25.0212 80.7384 25.1738 80.9682 25.3772C80.815 25.4789 80.6362 25.2501 80.7128 25.6315C81.4791 26.1146 80.7384 25.2246 81.5301 25.6569L80.8661 24.8686Z" fill="#60BE7B"/>
<path d="M80.4318 25.1738L80.3041 24.894V25.0212L80.4318 25.1738Z" fill="#60BE7B"/>
<path d="M79.6145 23.877C79.6911 24.0041 79.7422 24.0549 79.8188 24.2075C79.9976 24.2838 79.8444 24.1058 79.6145 23.877Z" fill="#60BE7B"/>
<path d="M81.2747 23.9786L81.1725 23.7244L81.0448 23.8006C81.198 23.8515 81.2491 23.9278 81.2747 23.9786Z" fill="#60BE7B"/>
<path d="M79.7167 22.5801C79.7678 22.7072 80.0487 22.8089 79.7422 22.8852C80.1253 23.0632 80.4829 23.0378 80.8405 23.1649C80.9171 23.0378 80.253 22.9106 80.1253 22.8089C80.4574 22.8089 80.0487 22.6564 80.1253 22.5801C79.9976 22.6055 79.8444 22.6055 79.7167 22.5801Z" fill="#60BE7B"/>
<path d="M81.0193 21.919C81.0193 21.8427 80.7639 21.741 80.9171 21.6647C81.1215 21.6647 81.1981 21.7156 81.147 21.7918C81.6323 21.7664 81.0704 21.6901 81.4024 21.5884C81.3513 21.5884 81.2747 21.6393 81.1726 21.6138C81.2747 21.3596 80.7894 21.5121 81.0448 21.1307C80.9171 21.0799 80.9171 21.029 80.5851 21.0799C80.9938 20.8256 80.9938 20.9527 81.3513 20.5459C81.1726 20.6221 80.7383 20.8001 80.3297 20.9019C80.8916 20.4442 80.2531 20.6476 80.6617 20.2662C80.6873 20.2662 80.7894 20.2662 80.7383 20.3424C81.3003 20.0373 80.6362 20.1899 80.7383 20.0373L81.2236 19.7576C81.147 19.6559 80.8405 19.6813 81.1726 19.2236L81.4024 19.071C81.2492 19.0202 81.1981 18.9185 81.147 18.7913C80.8916 18.8422 80.6873 18.8168 80.4574 18.9185C80.4829 18.8168 80.5085 18.715 80.5085 18.6133C79.8699 18.9693 80.7894 18.7913 79.9721 19.4779C80.5596 18.6133 79.6145 19.7576 79.6912 19.4016C79.7933 19.0456 79.9977 19.2236 80.1254 18.8168C79.8189 19.2745 79.9466 18.9439 79.7422 19.071C79.9721 18.6388 79.5379 19.0202 79.8189 18.537C79.5379 18.7913 79.3336 19.071 79.1548 19.3253C79.1548 19.0965 79.0271 19.1219 78.9505 19.1982C79.1292 19.1982 78.8228 19.8339 78.9505 20.0373C79.1548 19.8339 79.7167 19.6813 79.7933 19.9102C80.3297 19.3253 79.9721 19.9102 80.4574 19.4525C80.3552 19.5542 80.2786 19.6559 80.202 19.7322L79.9466 19.9864C80.0743 20.0373 80.2786 19.6305 80.4829 19.4525C80.5596 19.4779 80.202 19.8847 79.9977 20.0627C79.9721 20.2153 80.1509 19.9356 80.4829 19.7322L79.8444 20.3679C80.0487 20.495 80.4829 21.0036 80.0998 21.6138L80.5085 21.563C80.2786 21.8173 81.4024 21.9953 80.534 22.2241L80.8661 22.3004C80.6617 22.2495 80.2531 22.3513 79.9977 22.275C80.1254 22.3513 79.9721 22.4275 80.0998 22.4784L80.2786 22.3513C80.6106 22.453 80.4063 22.5293 80.0998 22.5801C80.5085 22.7581 80.7894 22.4784 81.1215 22.4275C80.3808 22.1478 81.8366 22.1478 81.5301 21.8935C81.3769 21.741 81.2236 21.919 81.0193 21.919Z" fill="#60BE7B"/>
<path d="M79.921 22.2495C79.9466 22.2749 79.9976 22.2749 80.0232 22.3004C79.9976 22.2749 79.9721 22.2495 79.921 22.2495Z" fill="#60BE7B"/>
<path d="M78.976 19.2236C78.9505 19.2236 78.9249 19.2236 78.8738 19.249C78.8483 19.3507 78.8994 19.2999 78.976 19.2236Z" fill="#60BE7B"/>
<path d="M81.1215 22.7327L81.147 22.6564H80.9683L81.1215 22.7327Z" fill="#60BE7B"/>
<path d="M76.1409 18.6133H76.192C76.1664 18.5879 76.1664 18.5879 76.1409 18.6133Z" fill="#60BE7B"/>
<path d="M71.237 19.0456C71.1093 19.1728 70.9305 19.2999 70.8283 19.6305V19.427C70.7517 19.5288 70.5218 19.8593 70.6751 20.2407L70.7006 20.0627C70.8794 19.7576 70.8283 20.4187 70.956 20.5459C71.1093 20.4442 71.2115 19.6559 71.3392 19.8339C71.3902 19.8085 71.3902 20.0119 71.3647 20.1899C71.5179 20.2407 71.569 19.6305 71.6457 19.5542C71.6967 21.1562 72.0799 19.1219 72.2842 20.139C72.4119 20.0119 72.5907 20.139 72.7695 19.8339C72.6673 20.2407 72.9227 19.8593 72.8972 20.317C72.9483 19.4016 73.3825 20.7239 73.408 19.5542C73.6379 19.8848 73.408 19.4779 73.689 19.7576C73.689 19.8847 73.6379 19.8847 73.6379 19.9102C73.74 20.139 73.7911 19.4016 73.8933 19.9356C74.0976 20.0119 73.9188 19.6305 74.0465 19.2999C74.2764 19.427 74.1998 19.605 74.3275 20.0882C74.353 19.5288 74.4807 19.8085 74.5829 19.5033C74.5574 19.4779 74.4041 19.3762 74.5063 19.1473C74.7617 19.249 74.7106 18.7913 74.9405 18.6388C75.0682 19.249 74.7106 18.6642 74.9149 19.1473C74.7617 19.427 74.6595 19.4016 74.5574 19.8593C74.7617 19.8847 75.0171 19.783 75.2214 19.5288C75.3491 19.605 75.1704 19.8085 75.247 19.8848C75.4768 20.1645 75.579 19.249 75.7578 19.5288L75.7323 19.8339C75.8344 19.4016 76.1154 19.9356 76.3197 19.6813C76.2942 19.5288 76.2686 19.427 76.2942 19.2999C76.2942 20.0882 76.5751 18.8931 76.7794 19.4525C76.7539 18.9439 76.9582 18.6642 77.0859 18.6133C77.137 18.7405 77.1115 18.9693 77.1115 19.0965C76.9072 18.7913 76.9072 19.6559 76.7539 19.8848C76.8816 19.6305 77.1115 19.8847 77.2137 19.5288L77.1626 19.9356C77.3414 19.9865 77.3158 19.0456 77.5201 19.427L77.4946 19.7068C77.8777 19.6559 78.3375 20.1899 78.644 19.5288C78.6695 19.2999 78.5163 18.7405 78.5163 18.5371C78.4396 18.7659 78.3119 19.1982 78.1842 19.4016V18.9439C78.1587 19.249 77.9799 19.4525 78.0821 19.6813C77.9543 19.9102 78.0054 19.2745 77.8522 19.5288C77.8522 19.0456 77.9543 18.9948 77.9543 18.6133L77.8266 18.8422C77.8522 18.6642 77.75 18.6896 77.8011 18.4862C77.5968 19.0711 77.4946 18.2574 77.2903 18.5116L77.418 18.5879C77.418 18.8422 77.3414 18.8168 77.2903 18.8931C77.2392 18.5116 77.1881 18.5625 77.0859 18.4099C76.9838 18.6133 76.9327 19.0965 76.805 19.0965C76.8305 18.5879 76.5751 18.8168 76.5496 18.4099C76.524 18.9185 76.2942 18.5879 76.2686 18.8676C76.192 18.9693 76.0898 18.9185 76.0898 18.6388C76.0898 18.6133 76.1154 18.5625 76.1409 18.5625L76.0643 18.5371C76.0643 18.4862 76.0643 18.4354 76.0643 18.4354C76.0132 18.4099 76.0132 18.7913 75.911 18.5371C75.911 18.4099 75.9621 18.4099 75.9877 18.3591C75.8089 18.2828 75.6812 19.1219 75.5535 18.6642C75.5279 18.8931 75.3236 18.9185 75.3747 19.4525C75.3236 19.2745 75.3491 18.8422 75.1959 18.9185C75.1193 19.3762 75.0426 18.7659 74.9405 19.0456C75.0937 18.5625 74.9405 18.9185 75.0682 18.4608C74.966 18.2828 74.8383 18.8676 74.6595 18.7913C74.6595 18.6896 74.634 18.5625 74.634 18.4354C74.5829 18.5879 74.5063 18.9693 74.4297 18.5879V18.9185C74.3275 18.7659 74.1487 18.8676 74.021 18.5116L73.8677 19.1219C73.6634 18.4862 73.408 19.0456 73.2548 19.605C73.1781 19.5796 73.076 19.4779 73.076 19.3253C73.1526 19.3253 73.2037 19.2236 73.2292 19.1473C73.127 19.1219 72.9993 18.7913 72.9483 19.2745C72.8461 19.427 72.8716 18.9185 72.795 18.8422C72.5907 19.5542 72.1565 18.3082 72.1054 19.4016C72.182 19.4016 72.3608 19.6305 72.5396 19.5796C72.4885 19.7068 72.5396 19.9102 72.463 19.9356C72.2842 19.9865 72.2076 19.5796 72.0288 19.7576L72.0543 19.0711C71.7223 18.3845 71.4669 20.0373 71.237 19.0456Z" fill="#60BE7B"/>
<path d="M73.408 19.0456L73.2803 18.6896L73.3058 18.9948C73.3314 18.9693 73.3569 18.9693 73.408 19.0456Z" fill="#60BE7B"/>
<path d="M73.2802 18.9948C73.2547 19.0202 73.2292 19.071 73.2036 19.1473C73.2292 19.1473 73.2547 19.1473 73.2802 19.071V18.9948Z" fill="#60BE7B"/>
<path d="M70.7517 19.1473C70.7262 19.1219 70.6751 19.071 70.624 19.1473C70.6751 19.2236 70.7262 19.2744 70.7517 19.1473Z" fill="#60BE7B"/>
<path d="M70.624 19.3762L70.6751 19.4779L70.7006 19.4016L70.624 19.3762Z" fill="#60BE7B"/>
<path d="M69.3214 21.3342L69.73 21.5376C69.5257 21.563 69.7811 21.7919 69.398 21.7156C69.9088 21.8427 69.4235 22.097 70.1387 21.9953C70.0876 21.8427 70.062 21.6901 70.062 21.5376V21.1816C70.062 21.0544 70.011 20.9782 69.6789 20.5713L69.9599 20.8256C69.5257 20.3933 70.0876 20.7747 69.9343 20.5967C69.8833 20.5459 69.7811 20.3933 69.5768 20.1136L70.0876 20.6985C70.2408 20.851 69.5768 19.8593 70.0876 20.4696L69.9343 20.2407C69.9599 20.2407 70.0365 20.3425 70.062 20.3425L69.9854 20.2407C69.9088 20.0119 70.011 20.0373 70.1387 20.1899C70.2153 20.3679 70.1387 20.2662 70.1387 20.317C70.2408 20.495 70.1131 20.1136 70.1898 20.1136C70.2919 20.2662 70.2664 20.3679 70.3175 20.4696C70.4196 20.2153 70.4963 20.8256 70.5729 19.961C70.5984 19.8085 70.4962 19.6559 70.5984 19.5796C70.4196 19.2999 70.2664 19.6559 70.2153 19.8848H70.2408C70.3941 20.7239 70.1131 19.6813 70.0876 20.0627C69.9854 19.7322 70.062 19.7322 70.0365 19.5288C69.5001 18.8931 69.9599 20.0119 69.3469 19.1982V19.1728C69.2447 19.0965 69.2703 19.2491 69.2703 19.3253C69.3724 19.427 69.4491 19.4779 69.5512 19.5796C69.5512 19.6559 69.7811 20.0373 69.8577 20.1899C69.5512 19.8085 69.9343 20.3679 69.7556 20.1899C69.4491 19.8339 69.5768 19.8848 69.4746 19.6813L69.5512 19.9102C69.5001 19.9356 69.1681 19.5288 68.9382 19.3508C69.0915 19.605 69.1426 19.5288 69.398 19.9102C69.2447 19.783 69.117 19.7068 68.9893 19.6559C68.9127 19.7576 69.0404 20.1645 69.2703 20.4187C69.2192 20.317 68.8872 20.1645 68.9638 20.1136C68.8872 20.0882 69.0659 20.3425 69.3214 20.495C69.5512 20.7493 69.398 20.7493 69.1426 20.8002L69.398 20.851C69.8322 21.0544 69.0659 20.9782 69.3214 21.207C69.3724 21.2579 70.0365 21.3087 69.8833 21.4359C69.6278 21.4104 69.6534 21.3342 69.3214 21.3342Z" fill="#60BE7B"/>
<path d="M69.9343 22.1224L69.5512 22.0461C69.4746 22.1224 69.9343 22.2241 70.1898 22.1986C70.1131 22.1478 70.2664 22.0715 70.0621 22.0715C70.011 22.0715 69.8833 22.0715 69.9343 22.1224Z" fill="#60BE7B"/>
<path d="M70.011 23.5972C70.0876 23.6227 70.2409 23.6227 70.343 23.6227C70.292 23.3175 70.1387 22.9361 70.4452 22.809C70.5474 22.7072 69.9855 22.6818 69.8578 22.5547L70.2409 22.5038C70.011 22.4275 70.4197 22.2241 69.8067 22.3004C69.7556 22.3004 70.0876 22.3513 69.9855 22.4275H69.7811L69.8578 22.5801L69.6023 22.5292C69.2192 22.7327 70.3941 22.6564 70.1643 22.9107H69.6279C69.6023 23.0632 69.7811 23.1395 69.4491 23.2921C69.4491 23.2921 69.7045 23.2921 69.6023 23.2667C69.6279 23.2412 69.8322 23.2158 70.011 23.2158C70.4197 23.4447 69.7045 23.1904 69.4746 23.3429C69.8322 23.5464 70.1387 23.9278 69.7045 24.0549C70.0365 23.9532 70.3686 24.1058 70.343 24.2075C70.1643 24.2584 70.0365 24.1821 69.8578 24.1566C69.8067 24.2075 69.679 24.2584 69.7556 24.3092C70.0365 24.2329 70.4452 24.2838 70.624 24.4109C70.9049 24.0804 69.9344 23.8769 70.011 23.5972Z" fill="#60BE7B"/>
<path d="M70.4452 23.6735C70.4197 23.648 70.3686 23.6226 70.3175 23.6226V23.7243L70.4452 23.6735Z" fill="#60BE7B"/>
<path d="M66.3842 78.3438C68.4275 78.3438 68.453 75.1653 66.3842 75.1653C64.3409 75.1653 64.3409 78.3438 66.3842 78.3438Z" fill="#60BE7B"/>
<path d="M71.1093 68.9354C73.1526 68.9354 73.1781 65.7569 71.1093 65.7569C69.066 65.7569 69.066 68.9354 71.1093 68.9354Z" fill="#60BE7B"/>
<path d="M74.7617 78.0387C76.805 78.0387 76.8305 74.8602 74.7617 74.8602C72.7184 74.8602 72.6928 78.0387 74.7617 78.0387Z" fill="#60BE7B"/>
<path d="M83.1903 69.9016C85.2336 69.9016 85.2591 66.7231 83.1903 66.7231C81.1215 66.7231 81.1215 69.9016 83.1903 69.9016Z" fill="#60BE7B"/>
<path d="M83.1903 78.0387C85.2336 78.0387 85.2591 74.8602 83.1903 74.8602C81.1215 74.8602 81.1215 78.0387 83.1903 78.0387Z" fill="#60BE7B"/>
<path d="M75.86 85.667C77.9033 85.667 77.9288 82.4885 75.86 82.4885C73.7911 82.4885 73.7911 85.667 75.86 85.667Z" fill="#60BE7B"/>
<path d="M60.5352 83.2514C62.5785 83.2514 62.604 80.0729 60.5352 80.0729C58.4663 80.0729 58.4663 83.2514 60.5352 83.2514Z" fill="#60BE7B"/>
<path d="M52.5408 79.5135C54.5841 79.5135 54.6096 76.335 52.5408 76.335C50.4719 76.335 50.4719 79.5135 52.5408 79.5135Z" fill="#60BE7B"/>
<path d="M54.4819 88.4133C56.5252 88.4133 56.5508 85.2348 54.4819 85.2348C52.4386 85.2348 52.4386 88.4133 54.4819 88.4133Z" fill="#60BE7B"/>
<path d="M62.8083 91.9732C64.8516 91.9732 64.8772 88.7947 62.8083 88.7947C60.7395 88.7947 60.7395 91.9732 62.8083 91.9732Z" fill="#60BE7B"/>
<path d="M69.5001 85.667C71.5434 85.667 71.569 82.4885 69.5001 82.4885C67.4313 82.4885 67.4313 85.667 69.5001 85.667Z" fill="#60BE7B"/>
<path d="M68.8872 96.1943C70.9305 96.1943 70.956 93.0157 68.8872 93.0157C66.8184 93.0157 66.8184 96.1943 68.8872 96.1943Z" fill="#60BE7B"/>
<path d="M77.0859 97.542C79.1292 97.542 79.1548 94.3635 77.0859 94.3635C75.0171 94.3635 75.0171 97.542 77.0859 97.542Z" fill="#60BE7B"/>
<path d="M83.1903 86.9639C85.2336 86.9639 85.2591 83.7854 83.1903 83.7854C81.1215 83.7854 81.1215 86.9639 83.1903 86.9639Z" fill="#60BE7B"/>
<path d="M93.6111 78.3438C95.6544 78.3438 95.6799 75.1653 93.6111 75.1653C91.5678 75.1653 91.5678 78.3438 93.6111 78.3438Z" fill="#60BE7B"/>
<path d="M93.6111 85.667C95.6544 85.667 95.6799 82.4885 93.6111 82.4885C91.5678 82.4885 91.5678 85.667 93.6111 85.667Z" fill="#60BE7B"/>
<path d="M59.0538 74.1227C61.0971 74.1227 61.1227 70.9442 59.0538 70.9442C57.0105 70.9442 57.0105 74.1227 59.0538 74.1227Z" fill="#60BE7B"/>
<path d="M87.4302 83.3023C89.4735 83.3023 89.499 80.1238 87.4302 80.1238C85.3613 80.1238 85.3613 83.3023 87.4302 83.3023Z" fill="#60BE7B"/>
<path d="M78.3375 91.3375C80.3808 91.3375 80.4063 88.159 78.3375 88.159C76.2942 88.159 76.2686 91.3375 78.3375 91.3375Z" fill="#60BE7B"/>
<path d="M85.438 94.4143C87.4813 94.4143 87.5068 91.2358 85.438 91.2358C83.3947 91.2358 83.3947 94.4143 85.438 94.4143Z" fill="#60BE7B"/>
</g>
<defs>
<clipPath id="clip0_12_4">
<rect width="69.2935" height="150" fill="white" transform="translate(40)"/>
</clipPath>
</defs>
</svg>
